<svg width="64" height="64" viewBox="0 0 64 64" fill="none" xmlns="http://www.w3.org/2000/svg">
<path fill-rule="evenodd" clip-rule="evenodd" d="M30.4 9H47.8C53.3 9 57.8 13.4 57.9 18.9V24.6C57.9 30.1 53.4 34.6 47.9 34.6H45.4V49.5L32.9 34.6H30.4C24.9 34.6 20.4 30.1 20.4 24.6V19C20.4 13.5 24.9 9 30.4 9ZM37.2 30.8H40.2V27.8H37.2V30.8ZM44.2 18.7V18.9C44.1 19.5 44 20 43.8 20.5C43.6 21 43.3 21.4 42.8 21.9L42.6 22.1L42.2 22.5C41.8623 22.7702 41.5702 23.086 41.2929 23.3858C41.1596 23.5298 41.0298 23.6702 40.9 23.8C40.4 24.3 40.2 24.7 40.2 26.1H37.2C37.2 24.3 37.4 23.1 38.6 21.8L40 20.4L40.4 20L40.5 19.9C40.7 19.7 40.9 19.5 40.9 19.3C40.9562 19.1877 40.9808 19.0754 41.0093 18.9454C41.0315 18.8438 41.0562 18.7315 41.1 18.6V18.5V17.8C40.9 16 39.4 15.8 38.5 15.8C36.9 15.8 36 16.9 36 18.8V19H33V18.8C33.1 15.2 35.3 12.8 38.5 12.8C40.8 12.8 43.6 14 44 17.4C44.2 17.8 44.2 18.3 44.2 18.7ZM11.9 29.1H17.2C18.9 34.1 23.4 37.9 28.9 38.5V40.5C27.9 42.6 25.9 44 23.5 44H21.4L14.2 54.9L14 44H11.9C8.6 44 6 41.4 6 38.1V35C6 31.7 8.6 29.1 11.9 29.1Z" fill="#d2d4d9"/>
</svg>
