<?xml version="1.0" encoding="UTF-8"?><svg id="Layer_2" xmlns="http://www.w3.org/2000/svg" xmlns:xlink="http://www.w3.org/1999/xlink" viewBox="0 0 384.9 138.34"><defs><style>.cls-1{fill:url(#linear-gradient);}.cls-1,.cls-2,.cls-3,.cls-4{stroke-width:0px;}.cls-2{fill:url(#linear-gradient-2);}.cls-3{fill:url(#linear-gradient-3);}.cls-4{fill:#002f67;}</style><linearGradient id="linear-gradient" x1="1140.14" y1="52.45" x2="1278.48" y2="52.45" gradientTransform="translate(-748.86 -823.02) rotate(45)" gradientUnits="userSpaceOnUse"><stop offset="0" stop-color="#ef4123"/><stop offset=".02" stop-color="#ef4123"/><stop offset=".08" stop-color="#ef4920"/><stop offset=".17" stop-color="#f2621b"/><stop offset=".29" stop-color="#f68a12"/><stop offset=".43" stop-color="#fcc006"/><stop offset=".5" stop-color="#fd0"/><stop offset=".57" stop-color="#fcc006"/><stop offset=".71" stop-color="#f68a12"/><stop offset=".83" stop-color="#f2621b"/><stop offset=".92" stop-color="#ef4920"/><stop offset=".98" stop-color="#ef4123"/><stop offset="1" stop-color="#ef4123"/></linearGradient><linearGradient id="linear-gradient-2" x1="1222.63" y1="28.45" x2="1185.7" y2="28.45" gradientTransform="translate(-1140.14 16.53)" gradientUnits="userSpaceOnUse"><stop offset=".2" stop-color="#ffda00"/><stop offset=".29" stop-color="#fdc703"/><stop offset=".48" stop-color="#f8970c"/><stop offset=".75" stop-color="#f14a1b"/><stop offset=".9" stop-color="#ed1c24"/></linearGradient><linearGradient id="linear-gradient-3" x1="-5658.73" y1="-7373.81" x2="-5695.67" y2="-7373.81" gradientTransform="translate(-5602.94 -7280.43) rotate(-180)" xlink:href="#linear-gradient-2"/></defs><g id="Logo"><rect class="cls-1" x="20.26" y="20.26" width="97.82" height="97.82" transform="translate(-28.65 69.17) rotate(-45)"/><polygon class="cls-2" points="72.97 16.97 44.97 44.98 72.97 72.98 72.97 16.97"/><polygon class="cls-3" points="65.32 121.38 93.33 93.38 65.32 65.38 65.32 121.38"/><path class="cls-4" d="m179.76,26.56c-.84-.3-1.69-.53-2.56-.68-.87-.15-1.72-.23-2.56-.23-.53,0-1.06.05-1.58.16-.53.11-.99.27-1.37.5-.39.23-.7.54-.94.94s-.36.87-.36,1.41c0,.45.08.85.25,1.2.17.34.43.67.81.99.37.31.86.62,1.45.92.59.3,1.32.62,2.18.97,1.01.39,1.93.8,2.76,1.24.83.44,1.53.94,2.11,1.49s1.02,1.18,1.32,1.89c.3.71.45,1.54.45,2.49,0,1.12-.23,2.1-.68,2.94-.45.84-1.07,1.53-1.87,2.07-.79.54-1.69.94-2.69,1.2s-2.03.39-3.09.39-2.21-.1-3.47-.31c-1.26-.2-2.45-.53-3.6-.99l.79-3.14c1.08.47,2.16.82,3.25,1.03,1.09.21,2.08.32,2.96.32,1.41,0,2.52-.27,3.33-.82.81-.55,1.22-1.36,1.22-2.44,0-.49-.11-.94-.33-1.34-.22-.4-.55-.76-.97-1.1-.43-.33-.97-.66-1.62-.97-.65-.31-1.39-.63-2.23-.95-.99-.39-1.86-.8-2.63-1.24-.76-.44-1.4-.93-1.93-1.47-.53-.54-.94-1.14-1.22-1.81-.29-.67-.43-1.41-.43-2.23,0-1.08.23-2.03.69-2.84.46-.82,1.07-1.49,1.83-2.02.76-.53,1.61-.92,2.54-1.16.94-.25,1.91-.37,2.92-.37,1.1,0,2.16.08,3.19.23,1.02.15,1.96.38,2.82.68l-.76,3.07Zm22.05,10.93c0,1.4-.2,2.65-.59,3.75-.4,1.1-.96,2.04-1.7,2.81-.74.78-1.63,1.37-2.67,1.78-1.05.41-2.22.61-3.52.61s-2.47-.2-3.52-.61c-1.05-.41-1.94-1-2.67-1.78-.74-.78-1.3-1.71-1.7-2.81-.4-1.1-.59-2.35-.59-3.75s.2-2.62.59-3.73c.4-1.11.96-2.04,1.7-2.8.74-.75,1.63-1.34,2.67-1.75,1.05-.41,2.22-.61,3.52-.61s2.47.2,3.52.6c1.05.4,1.94.98,2.67,1.75.74.77,1.3,1.7,1.7,2.81.4,1.11.59,2.36.59,3.73Zm-3.76,0c0-.88-.09-1.7-.28-2.44-.19-.74-.47-1.38-.86-1.92-.39-.54-.87-.96-1.47-1.26-.59-.3-1.3-.45-2.11-.45s-1.52.15-2.11.45c-.59.3-1.08.73-1.47,1.28-.39.55-.67,1.19-.86,1.92-.19.73-.28,1.54-.28,2.42,0,1.83.39,3.31,1.17,4.43.78,1.12,1.96,1.69,3.55,1.71,1.61-.02,2.8-.59,3.57-1.7.77-1.11,1.15-2.59,1.15-4.45Zm10.96-8.5v2.39h.07c.48-.88,1.21-1.57,2.18-2.05.97-.49,2.04-.73,3.2-.73,1.94,0,3.48.56,4.62,1.68,1.14,1.12,1.72,2.63,1.72,4.53v11.25h-3.76v-9.86c0-.73-.05-1.4-.16-2-.11-.6-.31-1.11-.59-1.52-.29-.41-.66-.72-1.12-.94-.46-.21-1.06-.32-1.78-.32-.53,0-1.05.1-1.55.29-.51.19-.96.5-1.35.9-.4.41-.72.94-.97,1.6-.25.66-.38,1.46-.38,2.41v9.44h-3.76v-17.07h3.66Zm22.85,12.57h.07l4.65-12.57h3.96l-9.47,23.37h-3.96l2.81-6.66-6.83-16.71h4.09l4.69,12.57Zm-64.28,15.46h3.86v23.08h-3.86v-23.08Zm12.44,6.01v2.39h.07c.48-.88,1.21-1.57,2.18-2.05.97-.49,2.04-.73,3.2-.73,1.94,0,3.48.56,4.62,1.68,1.14,1.12,1.72,2.63,1.72,4.53v11.25h-3.76v-9.86c0-.73-.05-1.4-.16-2-.11-.6-.31-1.11-.59-1.52-.29-.41-.66-.72-1.12-.94s-1.06-.32-1.78-.32c-.53,0-1.05.1-1.55.29-.51.19-.96.5-1.35.9-.4.41-.72.94-.97,1.6-.25.66-.38,1.46-.38,2.41v9.44h-3.76v-17.07h3.66Zm14.63,0h2.91v-4.43h3.76v4.43h3.83v2.81h-3.83v8.92c0,.58.02,1.05.07,1.41.04.35.14.63.3.82.15.19.36.32.63.39.26.06.63.1,1.09.1.33,0,.63-.01.91-.03.27-.02.54-.05.81-.1v2.75c-.37.04-.81.09-1.32.13-.51.04-1.01.06-1.52.06-1.01,0-1.83-.11-2.44-.32-.62-.22-1.09-.53-1.44-.95-.34-.42-.57-.93-.68-1.52-.11-.59-.17-1.28-.17-2.05v-9.6h-2.91v-2.81Zm16.47,9.6c.13,1.62.74,2.86,1.82,3.73,1.08.87,2.46,1.31,4.16,1.31.73,0,1.48-.06,2.26-.18.78-.12,1.5-.3,2.16-.53l.5,2.75c-1.52.52-3.27.77-5.25.77-1.5,0-2.83-.22-3.99-.66-1.17-.44-2.14-1.06-2.94-1.84-.79-.79-1.39-1.72-1.8-2.81-.41-1.09-.61-2.28-.61-3.57s.19-2.49.58-3.59c.39-1.1.94-2.05,1.67-2.84s1.6-1.42,2.63-1.86c1.02-.44,2.17-.66,3.45-.66s2.35.2,3.28.6c.94.4,1.72.96,2.36,1.68.64.72,1.12,1.61,1.44,2.65.32,1.05.48,2.2.48,3.47v1.58h-12.18Zm4.62-7.34c-1.32,0-2.38.43-3.19,1.28-.8.85-1.28,1.97-1.44,3.35h8.68v-.06c.02-1.38-.34-2.48-1.07-3.31-.74-.83-1.73-1.24-2.99-1.24Zm20.4.29c-.38-.09-.85-.13-1.42-.13-.51-.02-1.03.07-1.58.27-.55.21-1.01.52-1.39.95-.37.43-.67,1.01-.89,1.75-.22.73-.33,1.58-.33,2.55v9.12h-3.76v-17.07h3.66v2.26h.07c.79-1.77,2.31-2.65,4.56-2.65.18,0,.37,0,.59.02.22.01.44.03.66.05l-.16,2.88Zm12.05,3.39c0-1.14-.33-2.01-.99-2.62-.66-.6-1.68-.9-3.07-.9-.62,0-1.33.08-2.13.24-.8.16-1.58.39-2.33.69l-.76-2.75c.59-.24,1.43-.46,2.51-.68,1.08-.22,2.07-.32,2.97-.32,2.49,0,4.37.53,5.64,1.6s1.92,2.65,1.92,4.74v7.24c0,.6.02,1.26.07,1.97.04.71.12,1.35.23,1.91h-3.34c-.09-.3-.16-.67-.23-1.1-.07-.43-.12-.84-.16-1.23h-.07c-.44.8-1.11,1.45-2.01,1.96-.9.51-1.99.76-3.27.76-.75,0-1.48-.09-2.2-.27-.72-.18-1.36-.48-1.93-.9-.57-.42-1.03-.97-1.39-1.63-.35-.67-.53-1.48-.53-2.42,0-1.23.3-2.23.89-3.01.59-.78,1.4-1.37,2.43-1.79s2.2-.71,3.52-.86c1.32-.15,2.73-.23,4.23-.23v-.39Zm-.73,2.84c-.88,0-1.73.04-2.54.13-.82.09-1.53.25-2.15.5-.62.25-1.11.58-1.47,1-.36.42-.54.97-.54,1.63,0,.82.24,1.47.73,1.96.48.48,1.21.73,2.18.73.77,0,1.45-.13,2.03-.39.58-.26,1.06-.6,1.42-1.03.36-.43.63-.92.81-1.47s.26-1.13.26-1.73v-1.33h-.73Zm20.24-5.75c-.48-.22-1-.37-1.55-.47-.55-.1-1.07-.15-1.55-.15-.9,0-1.7.16-2.39.48-.69.32-1.27.76-1.73,1.31-.46.55-.82,1.2-1.06,1.96-.24.75-.36,1.55-.36,2.39s.12,1.63.36,2.36c.24.73.59,1.38,1.06,1.94.46.56,1.06,1,1.78,1.31.73.31,1.53.47,2.41.47.55,0,1.08-.04,1.58-.13.51-.09,1.02-.25,1.55-.48l.63,2.78c-.66.24-1.32.4-1.98.5-.66.1-1.33.14-2.01.14-1.5,0-2.82-.23-3.98-.68-1.15-.45-2.11-1.08-2.87-1.88-.76-.8-1.33-1.73-1.72-2.81-.39-1.08-.58-2.25-.58-3.52s.21-2.52.63-3.6c.42-1.09,1.02-2.03,1.8-2.81.78-.79,1.73-1.41,2.85-1.86,1.12-.45,2.4-.68,3.83-.68,1.56,0,2.91.2,4.03.61l-.73,2.81Zm2.67-3.04h2.91v-4.43h3.76v4.43h3.83v2.81h-3.83v8.92c0,.58.02,1.05.07,1.41.04.35.14.63.3.82.15.19.36.32.63.39.26.06.63.1,1.09.1.33,0,.63-.01.91-.03.27-.02.54-.05.81-.1v2.75c-.37.04-.81.09-1.32.13-.51.04-1.01.06-1.52.06-1.01,0-1.83-.11-2.44-.32-.62-.22-1.09-.53-1.44-.95-.34-.42-.57-.93-.68-1.52-.11-.59-.17-1.28-.17-2.05v-9.6h-2.91v-2.81Zm17.79-6.53v3.43h-3.86v-3.43h3.86Zm-.07,6.53v17.07h-3.76v-17.07h3.76Zm11.42,13.8h.07l4.62-13.8h3.99l-6.54,17.07h-4.39l-6.47-17.07h4.09l4.62,13.8Zm13.4-4.2c.13,1.62.74,2.86,1.82,3.73,1.08.87,2.46,1.31,4.16,1.31.73,0,1.48-.06,2.26-.18.78-.12,1.5-.3,2.16-.53l.49,2.75c-1.52.52-3.27.77-5.25.77-1.5,0-2.83-.22-3.99-.66-1.17-.44-2.14-1.06-2.94-1.84-.79-.79-1.39-1.72-1.8-2.81-.41-1.09-.61-2.28-.61-3.57s.19-2.49.58-3.59c.39-1.1.94-2.05,1.67-2.84.73-.8,1.6-1.42,2.63-1.86,1.02-.44,2.17-.66,3.45-.66s2.35.2,3.28.6c.94.4,1.72.96,2.36,1.68.64.72,1.12,1.61,1.44,2.65.32,1.05.48,2.2.48,3.47v1.58h-12.18Zm4.62-7.34c-1.32,0-2.38.43-3.19,1.28-.8.85-1.28,1.97-1.44,3.35h8.68v-.06c.02-1.38-.34-2.48-1.07-3.31-.74-.83-1.73-1.24-2.99-1.24Zm-149.97,25.77h13.57v3.07h-9.71v6.63h8.95v3.1h-8.95v7.21h10v3.07h-13.87v-23.08Zm21.59,6.01v2.39h.07c.48-.88,1.21-1.57,2.18-2.05.97-.49,2.04-.73,3.2-.73,1.94,0,3.48.56,4.62,1.68,1.14,1.12,1.72,2.63,1.72,4.53v11.25h-3.76v-9.86c0-.73-.05-1.4-.16-2-.11-.6-.31-1.11-.59-1.52-.29-.41-.66-.72-1.12-.94-.46-.21-1.06-.32-1.78-.32-.53,0-1.05.1-1.55.29-.51.19-.96.5-1.35.9-.4.41-.72.94-.97,1.6-.25.66-.38,1.46-.38,2.41v9.44h-3.76v-17.07h3.66Zm14.63,0h2.91v-4.43h3.76v4.43h3.83v2.81h-3.83v8.92c0,.58.02,1.05.07,1.41.04.35.14.63.3.82.15.19.36.32.63.39.26.06.63.1,1.09.1.33,0,.63-.01.91-.03.27-.02.54-.05.81-.1v2.75c-.37.04-.81.09-1.32.13-.51.04-1.01.06-1.52.06-1.01,0-1.83-.11-2.44-.32-.62-.22-1.09-.53-1.44-.95-.34-.42-.57-.93-.68-1.52-.11-.59-.17-1.28-.17-2.05v-9.6h-2.91v-2.81Zm16.47,9.6c.13,1.62.74,2.86,1.82,3.73,1.08.87,2.46,1.31,4.16,1.31.73,0,1.48-.06,2.26-.18.78-.12,1.5-.3,2.16-.53l.5,2.75c-1.52.52-3.27.77-5.25.77-1.5,0-2.83-.22-3.99-.66-1.17-.44-2.14-1.06-2.94-1.84-.79-.79-1.39-1.72-1.8-2.81-.41-1.09-.61-2.28-.61-3.57s.19-2.49.58-3.59c.39-1.1.94-2.05,1.67-2.84s1.6-1.42,2.63-1.86c1.02-.44,2.17-.66,3.45-.66s2.35.2,3.28.6c.94.4,1.72.96,2.36,1.68.64.72,1.12,1.61,1.44,2.65.32,1.05.48,2.2.48,3.47v1.58h-12.18Zm4.62-7.34c-1.32,0-2.38.43-3.19,1.28-.8.85-1.28,1.97-1.44,3.35h8.68v-.06c.02-1.38-.34-2.48-1.07-3.31-.74-.83-1.73-1.24-2.99-1.24Zm20.4.29c-.38-.09-.85-.13-1.42-.13-.51-.02-1.03.07-1.58.27-.55.21-1.01.52-1.39.95-.37.43-.67,1.01-.89,1.75-.22.73-.33,1.58-.33,2.55v9.12h-3.76v-17.07h3.66v2.26h.07c.79-1.77,2.31-2.65,4.56-2.65.18,0,.37,0,.59.02.22.01.44.03.66.05l-.16,2.88Zm1.62-2.55h2.91v-4.43h3.76v4.43h3.83v2.81h-3.83v8.92c0,.58.02,1.05.07,1.41.04.35.14.63.3.82.15.19.36.32.63.39.26.06.63.1,1.09.1.33,0,.63-.01.91-.03.27-.02.54-.05.81-.1v2.75c-.37.04-.81.09-1.32.13-.51.04-1.01.06-1.52.06-1.01,0-1.83-.11-2.44-.32-.62-.22-1.09-.53-1.44-.95-.34-.42-.57-.93-.68-1.52-.11-.59-.17-1.28-.17-2.05v-9.6h-2.91v-2.81Zm23.8,5.95c0-1.14-.33-2.01-.99-2.62-.66-.6-1.68-.9-3.07-.9-.62,0-1.33.08-2.13.24-.8.16-1.58.39-2.33.69l-.76-2.75c.59-.24,1.43-.46,2.51-.68,1.08-.22,2.07-.32,2.97-.32,2.49,0,4.37.53,5.64,1.6,1.28,1.07,1.92,2.65,1.92,4.74v7.24c0,.6.02,1.26.07,1.97.04.71.12,1.35.23,1.91h-3.34c-.09-.3-.16-.67-.23-1.1-.07-.43-.12-.84-.16-1.23h-.07c-.44.8-1.11,1.45-2.01,1.96-.9.51-1.99.76-3.27.76-.75,0-1.48-.09-2.2-.27-.72-.18-1.36-.48-1.93-.9-.57-.42-1.03-.97-1.39-1.63-.35-.67-.53-1.48-.53-2.42,0-1.23.3-2.23.89-3.01.59-.78,1.4-1.37,2.43-1.79s2.2-.71,3.52-.86c1.32-.15,2.73-.23,4.23-.23v-.39Zm-.73,2.84c-.88,0-1.73.04-2.54.13-.82.09-1.53.25-2.15.5-.62.25-1.11.58-1.47,1-.36.42-.54.97-.54,1.63,0,.82.24,1.47.73,1.96.48.48,1.21.73,2.18.73.77,0,1.45-.13,2.03-.39s1.06-.6,1.42-1.03c.36-.43.63-.92.81-1.47.18-.55.26-1.13.26-1.73v-1.33h-.73Zm12.97-15.32v3.43h-3.86v-3.43h3.86Zm-.07,6.53v17.07h-3.76v-17.07h3.76Zm8.71,0v2.39h.07c.48-.88,1.21-1.57,2.18-2.05.97-.49,2.04-.73,3.2-.73,1.94,0,3.48.56,4.62,1.68,1.14,1.12,1.72,2.63,1.72,4.53v11.25h-3.76v-9.86c0-.73-.05-1.4-.16-2-.11-.6-.31-1.11-.59-1.52-.29-.41-.66-.72-1.12-.94-.46-.21-1.06-.32-1.78-.32-.53,0-1.05.1-1.55.29-.51.19-.96.5-1.35.9-.4.41-.72.94-.97,1.6-.25.66-.38,1.46-.38,2.41v9.44h-3.76v-17.07h3.66Zm19.68,0v2.46h.07c.44-.91,1.13-1.61,2.08-2.1.95-.5,1.96-.74,3.04-.74,2.57,0,4.29.93,5.15,2.78h.1c.62-.99,1.4-1.71,2.36-2.15.96-.44,1.99-.65,3.09-.63,1.06,0,1.98.15,2.77.45.79.3,1.45.73,1.96,1.28s.9,1.2,1.16,1.96c.25.75.38,1.59.38,2.52v11.25h-3.76v-9.86c0-.86-.04-1.55-.13-2.07-.09-.52-.26-.99-.51-1.42s-.6-.75-1.06-.97c-.45-.21-1.02-.32-1.7-.32-.46,0-.92.08-1.39.24-.46.16-.87.41-1.22.74-.35.33-.64.78-.86,1.32-.22.55-.33,1.19-.33,1.92v10.41h-3.76v-10.05c0-.71-.04-1.35-.13-1.92-.09-.57-.25-1.06-.49-1.45-.24-.4-.59-.7-1.04-.91-.45-.2-1.02-.31-1.7-.31-.51,0-1,.1-1.49.29-.48.19-.9.48-1.26.86-.35.38-.64.88-.87,1.52-.23.64-.35,1.42-.35,2.34v9.63h-3.76v-17.07h3.66Zm29.18,9.6c.13,1.62.74,2.86,1.82,3.73,1.08.87,2.46,1.31,4.16,1.31.73,0,1.48-.06,2.26-.18.78-.12,1.5-.3,2.16-.53l.49,2.75c-1.52.52-3.27.77-5.25.77-1.5,0-2.83-.22-3.99-.66-1.17-.44-2.14-1.06-2.94-1.84-.79-.79-1.39-1.72-1.8-2.81-.41-1.09-.61-2.28-.61-3.57s.19-2.49.58-3.59c.39-1.1.94-2.05,1.67-2.84s1.6-1.42,2.63-1.86c1.02-.44,2.17-.66,3.45-.66s2.35.2,3.28.6c.94.4,1.72.96,2.36,1.68.64.72,1.12,1.61,1.44,2.65.32,1.05.48,2.2.48,3.47v1.58h-12.18Zm4.62-7.34c-1.32,0-2.38.43-3.19,1.28-.8.85-1.28,1.97-1.44,3.35h8.68v-.06c.02-1.38-.34-2.48-1.07-3.31-.74-.83-1.73-1.24-2.99-1.24Zm14.69-2.26v2.39h.07c.48-.88,1.21-1.57,2.18-2.05.97-.49,2.04-.73,3.2-.73,1.94,0,3.48.56,4.62,1.68,1.14,1.12,1.72,2.63,1.72,4.53v11.25h-3.76v-9.86c0-.73-.05-1.4-.16-2-.11-.6-.31-1.11-.59-1.52-.29-.41-.66-.72-1.12-.94-.46-.21-1.06-.32-1.78-.32-.53,0-1.05.1-1.55.29-.51.19-.96.5-1.35.9-.4.41-.72.94-.97,1.6-.25.66-.38,1.46-.38,2.41v9.44h-3.76v-17.07h3.66Zm14.63,0h2.91v-4.43h3.76v4.43h3.83v2.81h-3.83v8.92c0,.58.02,1.05.07,1.41.04.35.14.63.3.82.15.19.36.32.63.39.26.06.63.1,1.09.1.33,0,.63-.01.91-.03.27-.02.54-.05.81-.1v2.75c-.37.04-.81.09-1.32.13-.51.04-1.01.06-1.52.06-1.01,0-1.83-.11-2.44-.32-.62-.22-1.09-.53-1.44-.95-.34-.42-.57-.93-.68-1.52-.11-.59-.17-1.28-.17-2.05v-9.6h-2.91v-2.81Z"/></g></svg>