<svg width="68" height="53" viewBox="0 0 68 53" fill="none" xmlns="http://www.w3.org/2000/svg">
<path fill-rule="evenodd" clip-rule="evenodd" d="M67.149 40.7218C65.8556 41.9912 64.3041 42.9671 62.5999 43.5833L39.0902 52.2506V45.8591L56.2539 39.5322C58.2615 38.8094 58.5684 37.7888 56.9388 37.2537C54.7554 36.7442 52.4724 36.8625 50.3534 37.5952L39.0902 41.7621V35.1292L39.7708 34.8975C42.2417 33.987 44.8206 33.4018 47.4425 33.1567C52.599 32.6209 57.8101 33.2436 62.695 34.9795C67.8839 36.6261 68.4668 39.0511 67.149 40.7218ZM40.791 29.8394V13.4923C40.791 11.5736 40.5057 9.80834 38.7119 9.30691C37.3374 8.86369 37.3743 10.1461 37.3743 12.0634V52.9946L25.5642 49.4909V0.6875C30.6671 1.77558 35.7004 3.16801 40.637 4.85734C49.9481 8.06684 53.1038 12.0622 53.1038 21.0618C53.1038 29.8345 47.6453 33.1604 40.791 29.8394ZM5.31676 45.1916C-0.00692966 43.6843 -0.89438 40.5491 1.53177 38.7414C3.41612 37.5074 5.45319 36.5241 7.59157 35.8164L23.877 30.1887V36.6028L12.012 40.6809C10.0056 41.4035 9.69851 42.4236 11.3276 42.9604C13.5115 43.4686 15.7945 43.3503 17.9142 42.6191L23.877 40.6373V46.377C23.5326 46.439 23.1481 46.5002 22.7916 46.5591C16.9402 47.4829 10.9533 47.0144 5.31676 45.1916V45.1916Z" fill="white"/>
</svg>
