<svg xmlns="http://www.w3.org/2000/svg" width="0" height="0" style="position:absolute"><symbol id="ps-icon_utility_blue-tick" viewBox="0 0 15 15"><circle cx="7.22" cy="7.22" r="6" fill="#FFF"/><path fill="#0068BD" d="M6.027 10.294L2.934 6.928l.87-.8L6.07 8.594l4.576-4.503.83.842-5.449 5.361zM0 7.047a7.048 7.048 0 1 0 14.096-.002A7.048 7.048 0 0 0 0 7.047z"/></symbol><symbol id="ps-icon_utility_cancel" viewBox="0 0 64 64"><path fill-rule="evenodd" d="M32.5 12C21.178 12 12 21.178 12 32.5S21.178 53 32.5 53 53 43.822 53 32.5A20.5 20.5 0 0 0 32.5 12zm10.803 29.08l-2.213 2.213-8.59-8.579-8.58 8.58-2.213-2.215 8.579-8.579-8.58-8.58 2.215-2.213 8.579 8.579 8.58-8.58 2.213 2.215-8.579 8.579 8.59 8.58z"/></symbol><symbol id="ps-icon_utility_cancel-copy" viewBox="0 0 64 64"><path fill-rule="evenodd" d="M36 32.5l14.1-14.1a2 2 0 0 0 0-2.84l-.65-.65a2 2 0 0 0-2.84 0L32.5 29 18.4 14.9a2 2 0 0 0-2.84 0l-.65.65a2 2 0 0 0 0 2.84L29 32.5 14.9 46.6a2 2 0 0 0 0 2.84l.65.65a2 2 0 0 0 2.84 0L32.5 36l14.1 14.1a2 2 0 0 0 2.84 0l.65-.65a2 2 0 0 0 0-2.84L36 32.5z"/></symbol><symbol id="ps-icon_utility_chevron-down" viewBox="0 0 64 64"><path fill-rule="evenodd" d="M15.461 25.466l2.981-2.926 13.336 13.596 13.34-13.596 2.982 2.926-16.322 16.633z"/></symbol><symbol id="ps-icon_utility_chevron-left" viewBox="0 0 64 64"><path fill-rule="evenodd" d="M38.633 16l2.926 2.981-13.595 13.34 13.595 13.336-2.926 2.982L22 32.321z"/></symbol><symbol id="ps-icon_utility_chevron-right" viewBox="0 0 64 64"><path fill-rule="evenodd" d="M24.926 48.639L22 45.658l13.596-13.336L22 18.982 24.926 16l16.633 16.322z"/></symbol><symbol id="ps-icon_utility_chevron-up" viewBox="0 0 64 64"><path fill-rule="evenodd" d="M48.099 39.174L45.118 42.1 31.782 28.504 18.442 42.1l-2.982-2.926 16.322-16.633z"/></symbol><symbol id="ps-icon_utility_done" viewBox="0 0 64 64"><path fill-rule="evenodd" d="M28.534 40.947l-8.999-9.793 2.532-2.326L28.657 36l13.312-13.1 2.413 2.45-15.848 15.597zM31.503 11C20.181 11 11 20.177 11 31.501c0 11.321 9.181 20.501 20.503 20.501 11.32 0 20.501-9.18 20.501-20.501C52.004 20.177 42.823 11 31.503 11z"/></symbol><symbol id="ps-icon_utility_download" viewBox="0 0 64 64"><path fill-rule="evenodd" d="M44.621 32.628L32.001 54.49 19.378 32.628H44.62zm-6.876 3.97h-11.49L32 46.549l5.745-9.95zm-5.48-15.407a2.92 2.92 0 0 1-.004 5.84 2.928 2.928 0 0 1-2.92-2.918 2.928 2.928 0 0 1 2.924-2.922zm0-11.68a2.92 2.92 0 0 1-.004 5.84 2.929 2.929 0 0 1-2.92-2.92 2.928 2.928 0 0 1 2.924-2.92z"/></symbol><symbol id="ps-icon_utility_drag" viewBox="0 0 64 64"><path d="M24.211 21l1.973 2.01L17.02 32l9.164 8.989L24.21 43 13 32.001 24.211 21zm14.761 0l11.212 11.002L38.972 43 37 40.99l9.164-8.988L37 23.01 38.972 21z"/></symbol><symbol id="ps-icon_utility_external_link" viewBox="0 0 10.41 10.41"><path fill="#fff" d="M5.2 0v1.12H1.12v8.16h8.16V5.2h1.12v5.2H0V0h5.2zm5.21 0v3.37L9.12 2.08 6 5.2l-.79-.79 3.12-3.12L7.04 0h3.38z"/></symbol><symbol id="ps-icon_utility_filter" viewBox="0 0 64 64"><path fill-rule="evenodd" d="M32 34.5a7 7 0 0 1 6.706 5H50.5a2 2 0 0 1 0 4H38.706a7 7 0 0 1-6.706 5 7 7 0 0 1-6.706-5H13.5a2 2 0 0 1 0-4h11.794a7 7 0 0 1 6.706-5zm0 4a3 3 0 1 0 0 6 3 3 0 0 0 0-6zm9.5-23a7 7 0 0 1 6.706 5H50.5a2 2 0 0 1 0 4h-2.294a7 7 0 0 1-6.706 5 7 7 0 0 1-6.706-5H13.5a2 2 0 0 1 0-4h21.294a7 7 0 0 1 6.706-5zm0 4a3 3 0 1 0 0 6 3 3 0 0 0 0-6z"/></symbol><symbol id="ps-icon_utility_grab" viewBox="0 0 64 64"><path fill-rule="evenodd" d="M34.07 36.028a1 1 0 0 1 1 1v4.373a.996.996 0 0 1-.114.466l4.4-.001a1 1 0 0 1 .707 1.707l-7.356 7.356a1 1 0 0 1-1.414 0l-7.356-7.356a1 1 0 0 1 .707-1.707h4.4a.996.996 0 0 1-.114-.465v-4.373a1 1 0 0 1 1-1zm9.409-12.174l.094.083 7.356 7.356a1 1 0 0 1 .083 1.32l-.083.094-7.356 7.356a1 1 0 0 1-1.7-.59l-.007-.117v-4.4a.993.993 0 0 1-.34.107l-.125.007h-4.373a1 1 0 0 1-.993-.883l-.007-.117v-4.14a1 1 0 0 1 .883-.994l.117-.006h4.373c.126 0 .247.023.358.065l.108.05-.001-4.4a1 1 0 0 1 1.613-.791zm-21.638.083a1 1 0 0 1 .293.707v4.4a.996.996 0 0 1 .465-.114h4.373a1 1 0 0 1 1 1v4.14a1 1 0 0 1-1 1h-4.373a.996.996 0 0 1-.466-.114l.001 4.4a1 1 0 0 1-1.707.707l-7.356-7.356a1 1 0 0 1 0-1.414l7.356-7.356a1 1 0 0 1 1.414 0zm10.866-10.866l7.356 7.356a1 1 0 0 1-.707 1.707h-4.4a.996.996 0 0 1 .114.465v4.373a1 1 0 0 1-1 1h-4.14a1 1 0 0 1-1-1v-4.373a1 1 0 0 1 .114-.466l-4.4.001a1 1 0 0 1-.707-1.707l7.356-7.356a1 1 0 0 1 1.414 0z"/></symbol><symbol id="ps-icon_utility_guillemet-left" viewBox="0 0 64 64"><path d="M48.706 50.274L52 46.936l-15.293-14.93L52 17.064l-3.294-3.338L30 32z"/><path d="M30.707 50.274l3.294-3.338-15.293-14.93L34 17.064l-3.294-3.338L12 32z"/></symbol><symbol id="ps-icon_utility_guillemet-right" viewBox="0 0 64 64"><path d="M15.294 50.274L12 46.936l15.293-14.93L12 17.064l3.294-3.338L34 32z"/><path d="M33.293 50.274l-3.294-3.338 15.293-14.93L30 17.064l3.294-3.338L52 32z"/></symbol><symbol id="ps-icon_utility_interact" viewBox="0 0 64 64"><path fill-rule="evenodd" d="M24.22 17.204h13.101v2.768l5.435-3.986L37.32 12v2.768h-13.1V12l-5.425 3.986 5.425 3.986v-2.768zm20.321 21.888l-10.859-4.59v-10.72a2.82 2.82 0 0 0-1.301-2.42 2.794 2.794 0 0 0-2.736-.153 2.925 2.925 0 0 0-1.601 2.66v18.517l-1.67-1.9A5.922 5.922 0 0 0 18 39.95L28.675 51.8a3.09 3.09 0 0 0 2.523 1.2h8.249c3.698 0 6.696-3.01 6.696-6.724V41.52a2.632 2.632 0 0 0-1.602-2.427z"/></symbol><symbol id="ps-icon_utility_list" viewBox="0 0 64 64"><path fill-rule="evenodd" d="M15.5 41.5c1.379 0 2.5 1.122 2.5 2.5s-1.121 2.5-2.5 2.5A2.503 2.503 0 0 1 13 44c0-1.378 1.121-2.5 2.5-2.5zm35 .5v4h-28v-4h28zm-35-12.5c1.379 0 2.5 1.122 2.5 2.5s-1.121 2.5-2.5 2.5A2.503 2.503 0 0 1 13 32c0-1.378 1.121-2.5 2.5-2.5zm35 .5v4h-28v-4h28zm-35-12.5c1.379 0 2.5 1.122 2.5 2.5s-1.121 2.5-2.5 2.5A2.503 2.503 0 0 1 13 20c0-1.378 1.121-2.5 2.5-2.5zm35 .5v4h-28v-4h28z"/></symbol><symbol id="ps-icon_utility_log-in" viewBox="0 0 64 64"><path fill-rule="evenodd" d="M34.175 43.382v11.49l-6.802-3.887-7.761 4.583-6.25-3.623 7.854-4.586-6.956-3.977h19.915zm2.414-34.95c1.693 0 2.837.44 2.884.46 8.368 2.106 11.249 10.814 11.163 17.628v18.842l-6.64 3.83V26.756c-.08-6.022-3.178-12.892-8.766-13.765-1.723-.264-3.102.026-3.897.89-.213.23-.905 1.1-.905 2.732l-.018 17.07-6.625 3.809.005-18.61c.02-3.728 2.248-5.62 2.342-5.698.417-.414 1.06-.837 1.087-.855 1.475-1.266 4.236-2.647 6.19-3.345a9.446 9.446 0 0 1 3.18-.55z"/></symbol><symbol id="ps-icon_utility_log-out" viewBox="0 0 64 64"><path fill-rule="evenodd" d="M36.075 43.381l7.76 4.584 6.803-3.888v11.49H30.723l6.956-3.977-7.853-4.586 6.249-3.623zM27.41 8.433c1.094 0 2.163.188 3.18.55 1.954.698 4.715 2.079 6.19 3.345.026.018.67.44 1.087.855.094.078 2.321 1.97 2.342 5.698l.005 18.61-6.625-3.808-.018-17.071c0-1.631-.692-2.502-.905-2.732-.795-.864-2.174-1.154-3.897-.89-5.588.873-8.686 7.743-8.767 13.765v22.438l-6.639-3.831V26.52c-.086-6.814 2.795-15.522 11.163-17.628.047-.02 1.191-.46 2.884-.46z"/></symbol><symbol id="ps-icon_utility_menu" viewBox="0 0 64 64"><path fill-rule="evenodd" d="M47.872 42.581v5.291H16.128v-5.291h31.744zm0-13.225v5.291H16.128v-5.291h31.744zm0-13.228v5.291H16.128v-5.291h31.744z"/></symbol><symbol id="ps-icon_utility_more" viewBox="0 0 64 64"><path fill-rule="evenodd" d="M16.52 28.13a3.874 3.874 0 0 1 3.868 3.876 3.866 3.866 0 0 1-3.868 3.864A3.865 3.865 0 0 1 12.653 32a3.88 3.88 0 0 1 3.867-3.87zm15.48 0a3.878 3.878 0 0 1 3.867 3.876A3.87 3.87 0 0 1 32 35.87 3.865 3.865 0 0 1 28.133 32 3.877 3.877 0 0 1 32 28.13zm15.475 0a3.88 3.88 0 0 1 3.871 3.876 3.872 3.872 0 0 1-3.87 3.864A3.865 3.865 0 0 1 43.607 32a3.877 3.877 0 0 1 3.867-3.87z"/></symbol><symbol id="ps-icon_utility_plus" viewBox="0 0 64 64"><path fill-rule="evenodd" d="M35 16v13h13v6H35v13h-6V35H16v-6h13V16h6z"/></symbol><symbol id="ps-icon_utility_search" viewBox="0 0 64 64"><path fill-rule="evenodd" d="M37.246 26.339c0 5.9-4.782 10.688-10.687 10.688-5.9 0-10.681-4.788-10.681-10.688s4.781-10.686 10.681-10.686c5.905 0 10.687 4.786 10.687 10.686zm2.539 8.59a15.523 15.523 0 0 0 2.408-8.328c0-8.614-6.98-15.601-15.594-15.601C17.986 11 11 17.987 11 26.601c0 8.608 6.986 15.594 15.599 15.594 2.809 0 5.454-.745 7.731-2.048l12.4 12.4 5.336-5.34-12.281-12.278z"/></symbol><symbol id="ps-icon_utility_setup" viewBox="0 0 64 64"><path fill-rule="evenodd" d="M21.697 45.764a1.213 1.213 0 0 0 1.717 0l10.041-9.849c.61-.607.672-.659 2.506-.409 2.41.324 4.928.114 6.996-1.931 2.588-2.547 2.908-8.315 2.908-8.315.011-.808-1.052-1.218-1.612-.676l-3.123 3.291c-.558.538-1.52 1.301-2.762 1.135-.542-.073-1.118-.491-1.65-1.026l-.707-.705c-.535-.534-.954-1.11-1.026-1.654-.168-1.238.595-2.204 1.135-2.761l3.291-3.122c.54-.561.13-1.624-.678-1.612 0 0-5.762.321-8.311 2.906-2.046 2.068-2.257 4.584-1.933 6.997.249 1.835.197 1.897-.41 2.51l-9.851 10.036a1.219 1.219 0 0 0 .001 1.717l3.468 3.468zm30.316-13.277c0 11.31-9.18 20.49-20.509 20.49C20.18 52.979 11 43.797 11 32.487 11 21.182 20.18 12 31.504 12c11.329 0 20.509 9.182 20.509 20.487z"/></symbol><symbol id="ps-icon_utility_tick" viewBox="0 0 64 64"><path fill-rule="evenodd" d="M51.737 18.227l-.64-.64a2 2 0 0 0-2.83 0l-23 22.8-9.3-9.23a2 2 0 0 0-2.83 0l-.54.54a2 2 0 0 0 0 2.85l11.36 11.26a2 2 0 0 0 2.86 0l24.92-24.73a2 2 0 0 0 0-2.85z"/></symbol><symbol id="ps-icon_utility_verified_user_badge" viewBox="0 0 64 64"><path fill-rule="evenodd" clip-rule="evenodd" d="M11.481 32c0 11.332 9.187 20.52 20.52 20.52 11.331 0 20.517-9.188 20.517-20.52 0-11.332-9.186-20.519-20.518-20.519S11.481 20.668 11.481 32" fill="#fff"/><path fill-rule="evenodd" clip-rule="evenodd" d="M32 13.913c-9.989 0-18.087 8.098-18.087 18.087 0 9.99 8.098 18.087 18.087 18.087 9.99 0 18.087-8.098 18.087-18.087 0-9.989-8.098-18.087-18.087-18.087m0 1.521c9.135 0 16.567 7.431 16.567 16.566 0 9.136-7.432 16.567-16.567 16.567S15.433 41.137 15.433 32c0-9.135 7.432-16.566 16.567-16.566" fill="#3D75BA"/><path fill-rule="evenodd" clip-rule="evenodd" d="M22.4 29.245l6.013 5.791 12.523-11.662 3.35 3.236-15.883 14.742-9.297-8.789 3.293-3.318z" fill="#3E75BA"/></symbol></svg>