<svg xmlns="http://www.w3.org/2000/svg" width="0" height="0" style="position:absolute"><symbol id="ps-icon_media_actual-size" viewBox="0 0 64 64"><path fill-rule="evenodd" d="M38.152 32.85c3.037-5.34 2.296-12.25-2.26-16.806-5.468-5.465-14.33-5.465-19.792-.004-5.468 5.468-5.468 14.33 0 19.796 4.515 4.516 11.346 5.29 16.667 2.343l13.876 13.876L52 46.7 38.152 32.85zM18.42 31.21h15.2v-3.39h-15.2v3.39zm0-7.122h15.2v-3.39h-15.2v3.39z"/></symbol><symbol id="ps-icon_media_fullscreen" viewBox="0 0 64 64"><path fill-rule="evenodd" d="M14.156 37.35v5.235l5.233-5.235 2.062 2.063-5.236 5.237h5.236v2.921H11.24v-10.22h2.917zm38.606 0v10.221H42.548v-2.92h5.235l-5.235-5.238 2.064-2.063 5.232 5.236V37.35h2.918zm-31.31-20.92v2.918h-5.233l5.232 5.233-2.062 2.064-5.233-5.232v5.232H11.24V16.43h10.212zm31.31 0v10.215h-2.918V21.41l-5.233 5.235-2.063-2.064 5.234-5.233h-5.234V16.43h10.214z"/></symbol><symbol id="ps-icon_media_loop" viewBox="0 0 64 64"><path fill-rule="evenodd" d="M52.143 33.455c-.585-9.562-8.578-17.373-18.423-18.083V9.976c0-.805-.975-1.278-1.608-.758l-11.307 8.71a.967.967 0 0 0 0 1.515l11.307 8.663c.633.52 1.608.048 1.608-.757v-5.207c6.92.757 12.185 6.864 11.405 13.917-.634 5.775-5.459 10.462-11.405 11.077-7.408.805-13.792-4.497-14.426-11.408-.049-.616-.585-1.09-1.218-1.09h-4.533c-.731 0-1.267.569-1.218 1.279C13.055 46 21.682 54 32.258 54c11.356 0 20.567-9.326 19.885-20.545z"/></symbol><symbol id="ps-icon_media_minimize" viewBox="0 0 64 64"><path fill-rule="evenodd" d="M50.02 26.418v2.69H40.6V19.69h2.692v4.822l4.827-4.822 1.901 1.901-4.83 4.827h4.83zm0 12.109h-4.828l4.828 4.826-1.901 1.902-4.828-4.822v4.822H40.6v-9.418h9.42v2.69zm-26.908-9.419h-9.42v-2.691h4.824l-4.824-4.826 1.902-1.901 4.826 4.826V19.69h2.692v9.418zm0 16.147h-2.695V40.43l-4.823 4.825-1.902-1.902 4.827-4.826h-4.827v-2.69h9.42v9.418zM11 47.945h41.711V17H11v30.945z"/></symbol><symbol id="ps-icon_media_pause" viewBox="0 0 64 64"><path fill-rule="evenodd" d="M29 19.3v25.4h-8.65V19.3H29zm14.649 0v25.4H35V19.3h8.649z"/></symbol><symbol id="ps-icon_media_play" viewBox="0 0 64 64"><path fill-rule="evenodd" d="M50.6 32L17 18v28z"/></symbol><symbol id="ps-icon_media_spoiler-warning" viewBox="0 0 64 64"><path fill-rule="evenodd" d="M13.738 11.262l39 39-2.475 2.475-39-39 2.475-2.475zm2.651 11.843l2.83 2.831C16.748 28.109 14.751 30.419 13.5 32c3.039 3.843 10.442 12 18.5 12 1.527 0 3.031-.295 4.486-.797l3.066 3.066C37.181 47.328 34.643 48 32 48c-7.615 0-14.381-5.523-18.669-10.08a4.03 4.03 0 0 1-1.929-.083c-1.731-.503-2.869-2.171-2.869-3.974v-.759c0-.735.229-1.452.66-2.045 1.14-1.57 3.7-4.852 7.196-7.954zM32 16c12.956 0 23.461 15.99 23.465 16-.002.006-3.037 4.622-7.854 8.895l-2.83-2.831c2.471-2.172 4.468-4.482 5.719-6.064-3.038-3.843-10.44-12-18.5-12-1.527 0-3.031.295-4.486.797l-3.068-3.068C26.817 16.67 29.356 16 32 16zm-8.341 14.376l9.965 9.965A8.599 8.599 0 0 1 32 40.5a8.5 8.5 0 0 1-8.341-10.124zM32 23.5a8.5 8.5 0 0 1 8.5 8.5c0 .556-.058 1.098-.159 1.624l-9.965-9.965A8.517 8.517 0 0 1 32 23.5z"/></symbol><symbol id="ps-icon_media_video" viewBox="0 0 64 64"><path fill-rule="evenodd" d="M32 8.72c12.836 0 23.28 10.443 23.28 23.28 0 12.837-10.444 23.28-23.28 23.28C19.161 55.28 8.72 44.837 8.72 32 8.72 19.164 19.161 8.72 32 8.72zm0 2.287c-11.576 0-20.992 9.416-20.992 20.994 0 11.575 9.416 20.992 20.992 20.992 11.574 0 20.992-9.417 20.992-20.992 0-11.578-9.418-20.994-20.992-20.994zm-7.425 12.879l19.134 8.129-19.134 8.126V23.886z"/></symbol><symbol id="ps-icon_media_video--backer" viewBox="0 0 64 64"><path fill-opacity=".2" d="M32 11.007c-11.576 0-20.992 9.416-20.992 20.994 0 11.575 9.416 20.992 20.992 20.992 11.574 0 20.992-9.417 20.992-20.992 0-11.578-9.418-20.994-20.992-20.994"/><path d="M32 8.72c12.836 0 23.28 10.443 23.28 23.28 0 12.837-10.444 23.28-23.28 23.28C19.161 55.28 8.72 44.837 8.72 32 8.72 19.164 19.161 8.72 32 8.72zm0 2.287c-11.576 0-20.992 9.416-20.992 20.994 0 11.575 9.416 20.992 20.992 20.992 11.574 0 20.992-9.417 20.992-20.992 0-11.578-9.418-20.994-20.992-20.994zm-7.425 12.879l19.134 8.129-19.134 8.126V23.886z"/></symbol><symbol id="ps-icon_media_zoom-in" viewBox="0 0 64 64"><path fill-rule="evenodd" d="M38.151 32.85c3.04-5.342 2.296-12.252-2.259-16.806-5.466-5.465-14.33-5.465-19.792-.004-5.468 5.468-5.468 14.33 0 19.796 4.515 4.518 11.346 5.29 16.667 2.341l13.876 13.878L52 46.7 38.151 32.85zm-10.03.724h-4.446v-5.397h-5.269v-4.444h5.27v-5.397h4.445v5.397h5.525v4.444h-5.525v5.397z"/></symbol><symbol id="ps-icon_media_zoom-out" viewBox="0 0 64 64"><path fill-rule="evenodd" d="M38.151 32.851c3.04-5.342 2.295-12.25-2.258-16.805-5.47-5.466-14.329-5.466-19.79-.004-5.47 5.466-5.47 14.33 0 19.795 4.511 4.516 11.342 5.29 16.663 2.341l13.878 13.876L52 46.698 38.151 32.851zm-19.746-4.673h15.24v-4.446h-15.24v4.446z"/></symbol></svg>