<svg xmlns="http://www.w3.org/2000/svg" width="0" height="0" style="position:absolute"><symbol id="ps-icon_device_dualSense-wireless-controller" viewBox="0 0 64 64"><path fill-rule="evenodd" d="M55.72 35.492a49.182 49.182 0 0 0-4.302-15.009C50.788 19.084 48.585 15 43.5 15c-2.036 0-3.84 1.133-5.645 2.308 0 0-3.021-.21-5.868-.21-2.846 0-5.882.21-5.882.21C24.302 16.133 22.498 15 20.462 15c-5.084 0-7.287 4.105-7.917 5.483a49.182 49.182 0 0 0-4.266 15.01c-.378 2.874-.867 9.63 2.238 11.728.986.7 5.833 1.28 6.294 1.029 1.21-.7 2.448-6.295 4.253-9.233a3.574 3.574 0 0 1 1.343-1.51c.7-.413 1.783-.336 3.672-.336h11.89c1.888 0 2.972-.077 3.671.336.584.364 1.05.888 1.343 1.51 1.797 2.938 3.035 8.54 4.252 9.233.441.251 5.288-.364 6.295-1.029 3.056-2.098 2.567-8.854 2.19-11.729z"/></symbol><symbol id="ps-icon_device_dualsense-edge" viewBox="0 0 64 64"><path fill-rule="evenodd" d="M48.631 46.3c-3.2.3-5.5-4.9-6.7-7.1-.3-.6-.6-1-1.2-1.4-.6-.4-1.6-.3-3.3-.3h-10.5c-1.7 0-2.7-.1-3.3.3-.6.4-.9.7-1.2 1.4-1.1 2.2-3.4 7.3-6.7 7.1-4.3-.4-5.1-5.9-4.6-10.6.8-7.2 2.8-11.9 3.7-13.8.6-1.2 2.5-4.9 7.1-4.9h.4c.1.5 1.2 5.6 1.6 7.4.1.6.2 1.2-.2 1.7-2.2 2.6-4.4 5.3-5.7 8.5-.1.2 0 .5.3.6h.2c.2 0 .3-.1.4-.3.7-1.4 1.6-2.8 2.7-4.1.6-.8 1.5-1.7 2.5-2.7 1.4-1.5 1.9-2.6 1.7-4.2-.1-1-.4-3.2-.7-5 0 0 1.7-.2 7.1-.2 5.4 0 7.1.2 7.1.2-.2 1.8-.5 4-.7 5-.2 1.6.3 2.7 1.7 4.2 1 1 1.8 1.9 2.5 2.7 1.1 1.3 2 2.7 2.7 4.1.1.2.3.3.5.3h.2c.2-.1.4-.4.3-.6-1.3-3.2-3.5-5.9-5.7-8.5-.3-.4-.3-1-.2-1.7.4-1.8 1.5-6.9 1.6-7.4h.4c4.5 0 6.5 3.7 7.1 4.9.9 2 3 6.7 3.7 13.8.3 4.7-.5 10.2-4.8 10.6"/></symbol><symbol id="ps-icon_device_hd-camera" viewBox="0 0 64 64"><path fill-rule="evenodd" d="M54.16 23.08h-6.658l.606-1.62a.92.92 0 0 0-.832-1.241C44.013 20.095 35.362 20 32.047 20c-3.314 0-11.95.11-15.213.219A.92.92 0 0 0 16 21.46l.606 1.635H9.84A3.855 3.855 0 0 0 6 26.943v10.366a3.898 3.898 0 0 0 3.701 3.862c.73.044 4.38.219 6.928.35l-.591 1.599a.905.905 0 0 0 .825 1.234c3.27.117 11.914.226 15.236.226 3.321 0 11.914-.124 15.177-.24a.905.905 0 0 0 .832-1.235l-.599-1.628 6.045-.292h.73A3.87 3.87 0 0 0 58 37.338v-10.41a3.855 3.855 0 0 0-3.84-3.847zm.92 14.229c0 .512-.408.93-.92.942-1.657.08-4.84.38-8.811.606-3.256.175-5.264 1.46-10.016 1.905-.986.088-2.081.146-3.344.146s-2.19-.058-3.14-.146c-4.547-.46-6.832-1.781-10.073-1.92-1.796-.08-8.03-.547-8.921-.606a.949.949 0 0 1-.935-.927V26.928c0-.51.41-.923.92-.927h44.32c.508.008.916.42.92.927v10.381zm-9.198-1.898a3.373 3.373 0 1 1-.015-6.746 3.373 3.373 0 0 1 .015 6.746zm-27.705 0a3.373 3.373 0 1 1-.015-6.746 3.373 3.373 0 0 1 .015 6.746z"/></symbol><symbol id="ps-icon_device_move" viewBox="0 0 64 64"><path fill-rule="evenodd" d="M31.225 24.272l8.504 8.504c-.341 4.272-7.268 6.636-9.638 9.007-.67.67-1.474 1.495-2.281 2.334l-.558.581a509.947 509.947 0 0 0-3.57 3.768c-2.027 2.027-5.493 1.846-7.744-.403-2.25-2.251-2.43-5.717-.403-7.743 0 0 4.313-4.04 6.683-6.41 2.37-2.371 4.734-9.297 9.007-9.638zm-2.491 7.857l-1.5 1.498a2.222 2.222 0 0 0 0 3.138 2.222 2.222 0 0 0 3.139 0l1.497-1.5a2.217 2.217 0 1 0-3.136-3.136zM42.88 14.125a6.97 6.97 0 0 1 4.946 2.049 6.994 6.994 0 1 1-9.892 9.892 6.996 6.996 0 0 1 4.946-11.941z"/></symbol><symbol id="ps-icon_device_move-x2" viewBox="0 0 64 64"><path fill-rule="evenodd" d="M18.013 24.64l10.415 6.01c.776 4.218-5.302 8.294-6.98 11.195-1.675 2.906-4.46 8.115-4.46 8.115-1.433 2.484-4.827 3.206-7.584 1.614-2.755-1.592-3.826-4.892-2.394-7.373 0 0 1.328-2.134 2.716-4.425l.417-.69c.602-.997 1.19-1.986 1.664-2.807 1.677-2.904 2.167-10.207 6.206-11.638zm22.173 0L50.6 30.65c.776 4.218-5.302 8.294-6.98 11.195-.545.948-1.21 2.14-1.857 3.317l-.257.47c-1.238 2.258-2.345 4.328-2.345 4.328-1.434 2.484-4.828 3.206-7.585 1.614-2.755-1.592-3.825-4.892-2.393-7.373 0 0 1.327-2.134 2.715-4.425l.556-.92c.552-.918 1.088-1.82 1.525-2.577 1.677-2.904 2.167-10.207 6.206-11.638zM17.64 32.87l-1.06 1.838a2.218 2.218 0 1 0 3.843 2.218l1.059-1.837a2.215 2.215 0 0 0-.812-3.028 2.223 2.223 0 0 0-3.03.81zm22.173 0l-1.06 1.838a2.219 2.219 0 0 0 3.844 2.218l1.058-1.837a2.215 2.215 0 0 0-.812-3.028 2.223 2.223 0 0 0-3.03.81zm-7.86-20.352a6.997 6.997 0 0 1 2.56 9.557 6.974 6.974 0 0 1-4.246 3.257 6.994 6.994 0 1 1-3.621-13.512 6.962 6.962 0 0 1 5.306.698zm22.173 0a6.998 6.998 0 0 1 2.56 9.557 6.976 6.976 0 0 1-4.247 3.257 6.995 6.995 0 1 1-3.62-13.512 6.962 6.962 0 0 1 5.307.698z"/></symbol><symbol id="ps-icon_device_ps-vita" viewBox="0 0 64 64"><path fill-rule="evenodd" d="M57.2 31.9c0 4.2-1.2 7.3-3 9.4-1.9 2.1-4.4 3.1-7.2 3.1 0 0-3.7.4-15.4.4-11.8 0-15.4-.4-15.4-.4-2.8 0-5.3-1-7.2-3.1-1.9-2.1-3-5.2-3-9.4s1.2-7.3 3-9.4c1.9-2.1 4.4-3.1 7.2-3.1 0 0 3.7-.4 15.4-.4 11.8 0 15.4.4 15.4.4 2.8 0 5.3 1 7.2 3.1 1.8 2.1 3 5.2 3 9.4zM47.5 23H15.6v17.8h31.9V23zm2.2 10.4c0 1.3 1.1 2.4 2.4 2.4 1.3 0 2.4-1.1 2.4-2.4 0-1.3-1.1-2.4-2.4-2.4-1.3 0-2.4 1.1-2.4 2.4zm-41 0c0 1.3 1.1 2.4 2.4 2.4 1.3 0 2.4-1.1 2.4-2.4 0-1.3-1.1-2.4-2.4-2.4-1.3 0-2.4 1.1-2.4 2.4z"/></symbol><symbol id="ps-icon_device_ps1" viewBox="0 0 64 64"><path fill-rule="evenodd" d="M52.176 36.44c2.061 0 3.934 1.73 4.058 3.834 0 0 .318 1.884.626 3.895l.077.504c.228 1.515.434 3.02.481 3.773.11 1.709-1.412 1.827-2.067 1.835h-.13c-.715 0-1.873-.31-2.462-1.014-1.069-1.295-1.744-2.448-2.41-3.688h-7.567c-.668 1.24-1.34 2.393-2.41 3.688-.59.704-1.744 1.014-2.464 1.014h-.13c-.653-.008-2.176-.126-2.066-1.835.047-.753.254-2.258.48-3.773l.077-.504c.307-2.011.624-3.895.624-3.895.127-2.105 2-3.834 4.064-3.834 1.272 0 2.36.901 3.475 1.592h4.266c1.115-.69 2.203-1.592 3.478-1.592zm-7.182-22.722c1.427 0 2.58 1.17 2.58 2.611v18.093H45.5c-1.121-.726-2.605-1.59-4.541-1.59a7.47 7.47 0 0 0-1.284.124c.503-1.405.79-2.912.79-4.489 0-7.382-6.006-13.389-13.39-13.389-7.381 0-13.388 6.007-13.388 13.39 0 7.382 6.007 13.39 13.389 13.39 2.217 0 4.305-.55 6.147-1.509-.11.668-.28 1.72-.46 2.868H9.158c-1.424 0-2.581-1.17-2.581-2.61V16.328c0-1.442 1.157-2.61 2.58-2.61zm-33.42 21.35a3.123 3.123 0 0 0-3.123 3.124 3.123 3.123 0 0 0 3.124 3.124 3.124 3.124 0 1 0 0-6.249zm15.502-16.38c5.392 0 9.78 4.386 9.78 9.78 0 5.394-4.388 9.78-9.78 9.78-5.395 0-9.782-4.386-9.782-9.78 0-5.394 4.387-9.78 9.782-9.78z"/></symbol><symbol id="ps-icon_device_ps3" viewBox="0 0 64 64"><path fill-rule="evenodd" d="M49.9 39.3c2.2 0 4.3 1.9 4.4 4.2 0 0 1.2 6.9 1.3 8.9.1 2-1.8 2-2.4 2-.8 0-2-.3-2.7-1.1-1.2-1.4-1.9-2.7-2.6-4h-8.3c-.7 1.4-1.5 2.6-2.6 4-.6.8-1.9 1.1-2.7 1.1-.6 0-2.5 0-2.4-2 .1-2 1.3-8.9 1.3-8.9.1-2.3 2.2-4.2 4.4-4.2 1.4 0 2.6 1 3.8 1.7h4.7c1.2-.7 2.4-1.7 3.8-1.7zM24.2 9c7.9 0 17.2 1.6 17.2 1.6v25.8c-1-.6-2.3-1-3.8-1-4.3 0-8 3.4-8.3 7.6-.072.648-.351 2.333-.651 4.121l-.101.599-.248 1.48H9V10.6S16.3 9 24.2 9z"/></symbol><symbol id="ps-icon_device_ps4" viewBox="0 0 64 64"><path fill-rule="evenodd" d="M34.112 32.231H6L13.644 19h44.35l-4.727 8.173c-.229 0-.452-.032-.688-.032a8.135 8.135 0 0 0-4.459 1.637h-2.618a8.135 8.135 0 0 0-4.46-1.637 7.364 7.364 0 0 0-6.93 5.09zM50.7 39.582a22.035 22.035 0 0 0 2.485 3.823 3.644 3.644 0 0 0 2.548 1.044c.567 0 2.382 0 2.261-1.91-.108-1.79-1.274-8.868-1.274-8.92a4.313 4.313 0 0 0-4.121-3.446c-1.313 0-2.434.93-3.58 1.638h-4.421c-1.147-.707-2.268-1.638-3.587-1.638a4.306 4.306 0 0 0-4.115 3.447c0 .044-1.179 7.122-1.274 8.918-.121 1.911 1.694 1.911 2.261 1.911a3.644 3.644 0 0 0 2.548-1.044 22.035 22.035 0 0 0 2.485-3.823H50.7z"/></symbol><symbol id="ps-icon_device_ps4-pro" viewBox="0 0 64 64"><path fill-rule="evenodd" d="M52.19 39.55c1.924 0 3.682 1.488 4.042 3.389.007.042 1.152 6.993 1.263 8.753.109 1.73-1.43 1.85-2.09 1.857l-.131.001c-.726 0-1.896-.315-2.493-1.027-1.08-1.31-1.761-2.477-2.437-3.73H42.69c-.676 1.253-1.358 2.42-2.438 3.73-.596.712-1.767 1.027-2.492 1.027h-.132c-.66-.009-2.198-.128-2.09-1.858.11-1.76 1.256-8.711 1.264-8.753.36-1.901 2.117-3.389 4.04-3.389 1.288 0 2.39.912 3.515 1.609h4.319c1.125-.697 2.226-1.609 3.514-1.609zm5.31-11l-4.64 8.035a6.749 6.749 0 0 0-.668-.035c-1.866 0-3.32.9-4.4 1.609h-2.55c-1.081-.708-2.534-1.61-4.4-1.61-3.052 0-5.808 2.08-6.762 5H6.5l7.506-13H57.5zm-37.45-9.616h1.713c1.168 0 2.033-.433 2.033-1.745 0-1.344-.865-1.744-2.145-1.744H20.05v3.489zm-2.337-5.362h4.29c2.24 0 4.13.864 4.13 3.537 0 2.705-1.89 3.714-4.114 3.714h-1.97V25h-2.336V13.572zm12.529 4.946h1.537c1.28 0 2.192-.353 2.192-1.537 0-1.28-1.072-1.536-2.128-1.536h-1.601v3.073zm-2.337-4.946h4.434c2.049 0 3.969.768 3.969 3.105 0 1.36-.72 2.24-1.936 2.657v.032c.72.256 1.04.688 1.44 2.065.352 1.217.688 2.337 1.056 3.569h-2.512c-.208-.816-.576-2.272-.77-2.993-.351-1.232-.623-1.616-2.256-1.616h-1.088V25h-2.337V13.572zm15.41 1.68c-2.081 0-3.026 1.809-3.026 4.05 0 2.224.96 4.017 3.041 4.017 2.098 0 3.01-1.793 3.01-4.017 0-2.241-.945-4.05-3.026-4.05m0 9.94c-3.44 0-5.361-2.464-5.361-5.89 0-3.442 1.889-5.923 5.361-5.923 3.49 0 5.362 2.481 5.362 5.923 0 3.426-1.904 5.89-5.361 5.89"/></symbol><symbol id="ps-icon_device_ps5" viewBox="0 0 64 64"><path fill-rule="evenodd" d="M36.928 40.74h-.09a6.392 6.392 0 0 0-3.712 1.689 8.583 8.583 0 0 0-1.436 1.988 24.78 24.78 0 0 0-2.253 7.631 15.206 15.206 0 0 0-.084 3.052c0 .175.04.327.045.474l-.394.09c-4.173.906-9.366 1.69-10.785 1.926a.298.298 0 0 1-.355-.333c.13-2.207.822-13.798 1.83-25.844.665-8.11 1.859-18.479 2.422-23.069a78.056 78.056 0 0 0-2.748-.09c-2.14.062-5.193 2.428-5.07 7.429.068 2.658.637 14.485.727 20.083.136 7.958.197 18.456.22 20.573l-.056.046s-.395.185-.564.287a.253.253 0 0 1-.315-.209v-.214s-.028-13.077-.389-22.961c-.32-8.95-1.69-24.048-1.92-26.616a.315.315 0 0 1 .355-.338l9.85 1.047c.05-.478.096-.845.124-1.092A.321.321 0 0 1 22.68 6c.98.107 4.195.468 7.005.885 2.568.394 4.821.805 5.52.929a.31.31 0 0 1 .253.304c0 1.515 0 9.479.214 15.206.135 3.858.698 10.87 1.216 16.997 0-.022.012.141.04.417zM52.86 52.396a22.528 22.528 0 0 0-2.022-6.792 4.004 4.004 0 0 0-.164-.304 3.756 3.756 0 0 0-3.17-1.887 4.691 4.691 0 0 0-2.462 1.02 34.35 34.35 0 0 0-2.568-.09c-.878 0-1.69 0-2.573.09a4.708 4.708 0 0 0-2.473-1.02 2.185 2.185 0 0 0-.27 0h-.08a3.773 3.773 0 0 0-2.134.991c-.31.368-.59.76-.839 1.172a22.14 22.14 0 0 0-2.01 6.792 11.86 11.86 0 0 0-.074 2.365v.141c0 .265.046.496.074.693.023.756.37 1.465.951 1.949.299.259 1.887.478 2.518.478.075.006.15.006.225 0 .563-.315 1.082-2.77 1.864-4.055.07-.115.15-.224.237-.326.098-.134.22-.249.36-.338a1.96 1.96 0 0 1 .98-.147h6.466c.337-.034.678.016.991.147.136.09.255.204.35.338.078.09.151.208.236.326.783 1.284 1.323 3.74 1.864 4.055.077.007.154.007.23 0 .615 0 2.208-.22 2.507-.478.101-.074.777-.53.957-1.95a12.52 12.52 0 0 0 .029-3.17z"/></symbol><symbol id="ps-icon_device_psvr" viewBox="0 0 64 64"><path fill-rule="evenodd" d="M20.351 11.195l37.814 18.227-1.964 3.689s-8.258-4.002-12.927-5.781c-4.083-1.555-10.11-2.968-12.743-2.49-1.145.208-2.775.686-3.596 1.958.303.132.598.259.89.382l.44.183c1.982.812 4.051 1.51 8.288 2.66 3.692.935 6.091 5.159 6.109 8.793.036 7.215-5.067 10.016-8.792 12.059-.357.195-.707.387-1.047.58-1.539.87-3.411 1.35-5.271 1.35-1.08 0-2.114-.161-2.986-.464-1.357-.473-5.684-2.143-9.387-4.176-3.166-1.731-5.733-3.506-7.041-4.866-.882-.917-1.64-1.798-2.002-3.304-.215-.891-.294-3.122-.3-5.533v-.728c.011-3.288.144-6.694.245-7.366.246-1.627.706-3.045 1.743-3.381l5.912-1.244c1-.22 1.366-.267 1.631-.146l.025.011c.195.09 1.522.7 3.292 1.504.375-.848.984-2.43.486-3.55-.56-1.26-1.49-2.834-1.014-3.765l.107-.213c.22-.447.574-1.186.928-1.932l.193-.405c.509-1.074.967-2.052.967-2.052zM9.026 25.86a3.385 3.385 0 0 0-.255.913c-.191 1.274-.374 10.988.011 12.585.188.784.542 1.247 1.317 2.054l.036.036.087.087c.576.564 2.318 2.084 6.265 4.243 3.523 1.934 7.764 3.57 8.973 3.992.58.202 1.323.312 2.092.312 1.398 0 2.794-.353 3.931-.997.35-.198.71-.395 1.078-.597 3.641-1.998 7.407-4.064 7.38-9.661-.014-2.826-2.169-5.988-5.033-5.988-.586 0-1.191.135-1.798.399-2.149.937-3.836 1.516-5.609 1.516-.895 0-1.8-.135-2.935-.443-1.338-.362-5.317-2.131-8.888-4.091-2.757-1.51-5.011-3.16-6.221-4.046-.169-.121-.312-.23-.431-.314zm6.246 9.62c.143 0 .286.035.424.105l3.86 1.907c.692.344 1.103 1.46.933 2.54-.147.953-.697 1.292-1.164 1.292-.159 0-.319-.036-.482-.11l-3.861-1.908c-.708-.354-1.092-1.319-.933-2.346.138-.886.629-1.48 1.223-1.48z"/></symbol><symbol id="ps-icon_device_psvr-aim" viewBox="0 0 64 64"><path fill-rule="evenodd" d="M49.068 19.814v6.418a9109.986 9109.986 0 0 1-7.826 7.669l-.633.62c-3.898 3.814-7.681 7.504-8.385 8.154-1.746 1.614-4.276 3.463-8.388 3.463-.479 0-.98-.024-1.512-.075-1.186-.116-4.123-.523-7.223-.997l-.849-.13c-3.683-.573-7.394-1.21-8.513-1.54-1.756-.519-3.147-1.706-3.917-3.343-.806-1.717-.85-3.765-.115-5.484l2.49-5.38a3.008 3.008 0 0 0-.707-3.6l2.75-5.774h42.828zm-12.255 6.418H15.805c-1.702 0-3.692 1.256-4.424 2.791l-2.47 5.265c-.719 1.54.062 3.06 1.734 3.372 0 0 3.008.56 6.162 1.098l.888.15c2.072.346 4.09.657 5.25.77 2.075.202 3.251-.166 4.927-1.713.371-.343 2.384-2.302 4.491-4.358l.488-.476c2.276-2.221 4.524-4.421 4.814-4.705l.031-.03c1.216-1.19.82-2.165-.883-2.165zm20.865-8.37a5.136 5.136 0 1 1 0 10.274 5.136 5.136 0 0 1 0-10.274z"/></symbol><symbol id="ps-icon_device_psvr2" viewBox="0 0 64 64"><path d="M7.836 29.451c.937-1.365 4.105-2.012 9.762-1.896 6.262.114 12.93 1.302 18.994 3.865 6.831 2.892 9.606 15.317-12.92 18.024-3.863.465-11.033-.229-12.252-1.51-1.22-1.282-3.459-4.543-4.199-9.513-.26-1.75-.26-3.386-.155-4.761.01.458.082.75.207.77.23.032.542-.833.698-1.927.157-1.104.105-2.02-.113-2.053-.147-.02-.314.314-.47.824a15.55 15.55 0 0 1 .439-1.794l.01-.029zm15.722 16.045c-1-.699-2.23-.667-2.74.062-.51.73-.125 1.897.875 2.594 1 .7 2.22.678 2.74-.062.511-.73.115-1.886-.875-2.594zm-11.533.583c-.73-.927-1.543-1.51-1.824-1.292-.27.208.094 1.146.813 2.074.73.937 1.542 1.521 1.823 1.302.271-.209-.093-1.146-.812-2.084zm12.788-30.298c1.361-.667 4.96-1.94 14.45 1.591 10.405 3.873 15.326 11.355 16.98 14.875.175-.38.437-.855.658-.845.916.043 1.392 2.418.905 4.254-.243.916-.749 2.063-1.39 2.894-.276.356-.657.496-.778-.011-.186-.776-.272-2.133-.379-2.7-1.352-2.226-6.35-9.198-21.607-10.89-5.035-.56-10.136-.502-13.138-.542-.205-.002-.97.054-1.197-.13-.163-.13-.188-.25-.258-.46-.256-.778-.285-2.151.027-2.688.766-1.317 4.044-4.479 5.42-5.191.065-.034.138-.073.221-.114l.086-.043zm1.819 14.305a2.28 2.28 0 0 0-2.282 2.282 2.28 2.28 0 1 0 4.564 0 2.281 2.281 0 0 0-2.282-2.282z"/></symbol><symbol id="ps-icon_device_psvr2_motion_controller" viewBox="0 0 64 64"><path d="M26.728 20.556c9.239 0 16.729 7.477 16.729 16.716 0 9.238-7.49 16.728-16.73 16.728C17.49 54 10 46.51 10 37.272c0-9.239 7.49-16.716 16.728-16.716zm-1.833 15.77H15.62a3.01 3.01 0 0 0-2.972 3.462c.429 2.864 2.012 5.512 3.44 7.058.5.543 3.873 4.068 8.76 4.625 1.666.19 3.138-1.09 3.138-2.756v-9.311a3.08 3.08 0 0 0-3.09-3.079zM32.9 24.342c-.192-.095-6.592-3.324-13.432.623-2.454 1.414-4.227 3.42-4.422 4.864-.073.541-.036 2.433 2.014 2.876.418.096 1.456.144 1.9.144h9.623l-.017-.077-.043-.2a11 11 0 0 1-.161-.892c-.056-.59.48-1.072 1.073-1.072h2.736c.579 0 1.101.471 1.048 1.048-.025.266-.167.943-.222 1.193h3.45c0 3.798-2.84 3.307-2.84 6.962v6.087c0 1.378 1.414 2.134 2.685 1.487.67-.348 1.281-.768 1.857-1.523 2.612-3.44 3.642-7.764 2.36-12.486-.077-.274-1.654-6.136-7.61-9.034zM36.284 11c9.238 0 16.728 7.477 16.728 16.716 0 5.668-2.826 10.668-7.138 13.693a19.53 19.53 0 0 0 .415-3.484c.317-.298.536-.526.635-.634 1.428-1.547 3.01-4.196 3.44-7.059a3.01 3.01 0 0 0-2.972-3.463h-4.154a19.67 19.67 0 0 0-2.81-3.475h3.625c.444 0 1.482-.048 1.9-.143 2.05-.444 2.087-2.337 2.013-2.876-.194-1.444-1.967-3.45-4.42-4.865-6.842-3.946-13.241-.718-13.433-.623a14.068 14.068 0 0 0-4.015 2.933c-1.2.04-2.378.173-3.515.419C25.608 13.826 30.612 11 36.283 11z"/></symbol><symbol id="ps-icon_device_pulse-3d" viewBox="0 0 64 64"><path fill-rule="evenodd" d="M46.092 43.92a14.07 14.07 0 0 1-21.245 12.113c.39-.362.899-.828 1.17-1.093.188-.178.363-.368.523-.571l.09-.126a11.458 11.458 0 0 0 5.392 1.33 11.66 11.66 0 0 0 2.09-23.132c.139-.146.285-.285.424-.418.48-.48 1.01-1.003 1.526-1.595a14.098 14.098 0 0 1 10.03 13.492zM27.104 6s.056 9.8 0 13.012c-.056 5.76-.899 9.368-4.876 14.467-.383.502-.745.975-1.066 1.449v.042C18.878 38.236 18 40.918 18 43.927a13.994 13.994 0 0 0 2.696 8.268c.048.07.174.244.18.244a52.94 52.94 0 0 0 1.533 1.665s1.191-1.059 1.519-1.393a1.39 1.39 0 0 0 .202-.237c.153-.182.273-.39.355-.613 0-.111.07-.223.097-.348a.836.836 0 0 0 0-.14 1.005 1.005 0 0 0 0-.257v-.174a2.25 2.25 0 0 0-.055-.349 1.846 1.846 0 0 0-.21-.578c0-.049-.194-.306-.257-.397a9.752 9.752 0 0 1-1.825-5.69 9.557 9.557 0 0 1 2.403-6.43c1.31-1.449 3.163-3.267 4.967-5.008.947-.94 1.88-1.825 2.716-2.654 2.166-2.138 4.64-4.583 4.64-10.797V6h-9.857z"/></symbol><symbol id="ps-icon_device_resolution-1080" viewBox="0 0 64 64"><path fill-rule="evenodd" d="M52.5 16.5c1.1 0 2 .9 2 2v20c0 1.1-.9 2-2 2H42v4h3v3H19v-3h3v-4H11.5c-1.1 0-2-.9-2-2v-20c0-1.1.9-2 2-2zm-6.818 6.88c-2.881 0-4.321 2.288-4.321 5.97 0 3.681 1.44 5.842 4.32 5.842 2.866 0 4.339-2.16 4.339-5.843 0-3.68-1.473-5.97-4.338-5.97zm-9.92 0c-2.081 0-3.954 1.055-3.954 3.072 0 1.361.704 2.178 1.697 2.625v.032c-1.056.385-2.033 1.217-2.033 2.833 0 2.13 1.889 3.25 4.29 3.25 2.4 0 4.32-1.12 4.32-3.25 0-1.632-.991-2.48-2.08-2.913V29c1.04-.386 1.713-1.186 1.713-2.547 0-2.017-1.872-3.073-3.953-3.073zm-9.92 0c-2.881 0-4.321 2.288-4.321 5.97 0 3.681 1.44 5.842 4.32 5.842 2.866 0 4.339-2.16 4.339-5.843 0-3.68-1.473-5.97-4.338-5.97zm-6.767.191h-2.37L13.777 25.3l.832 1.746 2.129-1.265V35h2.337V23.571zm16.687 6.451c.88 0 1.984.544 1.984 1.712 0 1.072-.864 1.633-1.984 1.633-1.121 0-1.97-.56-1.97-1.633 0-1.168 1.106-1.712 1.97-1.712zm-9.92-4.77c1.44 0 2.017 1.697 2.017 4.098 0 2.4-.577 3.969-2.017 3.969s-2.001-1.568-2.001-3.97c0-2.4.56-4.097 2-4.097zm19.84 0c1.44 0 2.017 1.697 2.017 4.098 0 2.4-.577 3.969-2.017 3.969s-2.001-1.568-2.001-3.97c0-2.4.56-4.097 2-4.097zm-9.92-.08c1.04 0 1.744.544 1.744 1.488 0 1.089-.848 1.585-1.744 1.585s-1.73-.496-1.73-1.585c0-.944.753-1.488 1.73-1.488z"/></symbol><symbol id="ps-icon_device_resolution-4k" viewBox="0 0 64 64"><path fill-rule="evenodd" d="M52.5 16.5c1.1 0 2 .9 2 2v20c0 1.1-.9 2-2 2H42v4h3v3H19v-3h3v-4H11.5c-1.1 0-2-.9-2-2l.003-20c0-1.1.897-2 1.998-2zm-17.13 7.071h-2.338V35h2.338v-5.683h.031L39.275 35h2.881l-4.274-5.906 4.066-5.523h-2.785l-3.762 5.363h-.03v-5.363zm-5.263 0h-3.25l-4.369 6.787v2.257h5.282V35h2.337v-2.385h1.248v-1.873h-1.248v-7.171zm-2.337 2.097v5.074h-3.153l3.121-5.074h.032z"/></symbol><symbol id="ps-icon_device_resolution-720" viewBox="0 0 64 64"><path fill-rule="evenodd" d="M52.5 16.5c1.1 0 2 .9 2 2v20c0 1.1-.9 2-2 2H42v4h3v3H19v-3h3v-4H11.5c-1.1 0-2-.9-2-2v-20c0-1.1.9-2 2-2zm-11.435 6.88c-2.88 0-4.32 2.288-4.32 5.97 0 3.681 1.44 5.842 4.32 5.842 2.865 0 4.338-2.16 4.338-5.843 0-3.68-1.473-5.97-4.338-5.97zm-14.732.191h-7.57v1.873h5.073c-1.792 2.705-3.105 6.578-3.36 9.556h2.384c.224-2.96 1.36-6.435 3.473-9.556v-1.873zm4.802-.192c-1.2 0-2.545.4-3.52 1.088l.735 1.665c.977-.608 1.841-.88 2.61-.88 1.007 0 1.776.592 1.776 1.6 0 1.377-1.12 2.673-5.187 6.243V35h7.667v-1.873h-4.754c3.331-2.88 4.611-4.289 4.611-6.323 0-2.224-1.585-3.425-3.938-3.425zm9.93 1.873c1.44 0 2.017 1.697 2.017 4.098s-.577 3.969-2.017 3.969-2-1.568-2-3.969.56-4.098 2-4.098z"/></symbol></svg>