<svg xmlns="http://www.w3.org/2000/svg" xmlns:xlink="http://www.w3.org/1999/xlink" width="0" height="0" style="position:absolute"><symbol id="ps-icon_third-party_ea" viewBox="0 0 64 64"><path fill-rule="evenodd" d="M43.52 38.252l-1.792-2.859H36.5l1.794-2.865h1.653L37.95 29.34l-5.572 8.912H17.514l3.58-5.724h-2.629l1.787-2.864H31.74l-1.788 2.864h-5.479l-1.791 2.865h8.105l7.16-11.459 8.949 14.318H43.52zM23.832 23.934h11.785l-1.791 2.865H22.04l1.791-2.865zM32 11.5c-11.322 0-20.5 9.179-20.5 20.501C11.5 43.325 20.678 52.5 32 52.5c11.32 0 20.5-9.175 20.5-20.499C52.5 20.679 43.32 11.5 32 11.5z"/></symbol><symbol id="ps-icon_third-party_facebook" viewBox="0 0 64 64"><path fill-rule="evenodd" d="M49.792 12H14.208A2.208 2.208 0 0 0 12 14.208v35.584A2.208 2.208 0 0 0 14.208 52h18.751V36.049h-5.025v-6.037h5.025v-3.99c0-5.167 3.155-7.98 7.764-7.98 1.452-.01 2.904.07 4.346.237v5.4l-2.884.001c-2.507 0-2.992 1.191-2.992 2.939v3.393h5.978l-.779 6.037h-5.355V52h10.755c1.22 0 2.208-.988 2.208-2.208V14.208A2.208 2.208 0 0 0 49.792 12z"/></symbol><symbol id="ps-icon_third-party_instagram" viewBox="0 0 64 64"><path fill-rule="evenodd" d="M33.712 12.001c2.462.003 3.668.016 4.698.046l.255.008.375.014.253.01c.297.012.606.025.953.041 2.129.097 3.583.436 4.855.93a9.803 9.803 0 0 1 3.542 2.307 9.804 9.804 0 0 1 2.307 3.542c.494 1.272.833 2.726.93 4.855.016.347.03.656.042.953l.01.253.013.375.008.255c.03 1.03.043 2.236.046 4.698l.001 1.34v.743l-.001 1.34c-.003 2.463-.016 3.67-.046 4.7l-.008.254-.014.375-.01.253c-.012.297-.025.606-.041.953-.097 2.129-.436 3.583-.93 4.855a9.804 9.804 0 0 1-2.307 3.542 9.804 9.804 0 0 1-3.542 2.307c-1.272.494-2.726.833-4.855.93-.347.016-.656.03-.953.042l-.253.01-.375.013-.255.008c-1.03.03-2.236.043-4.698.046l-1.34.001h-.743l-1.34-.001c-2.463-.003-3.67-.016-4.7-.046l-.254-.008-.375-.014-.253-.01c-.297-.012-.606-.025-.953-.041-2.129-.097-3.583-.436-4.855-.93a9.804 9.804 0 0 1-3.542-2.307 9.803 9.803 0 0 1-2.307-3.542c-.494-1.272-.833-2.726-.93-4.855-.016-.347-.03-.656-.042-.953l-.01-.253-.013-.375-.008-.255c-.03-1.03-.043-2.236-.046-4.698v-3.424c.003-2.462.016-3.668.046-4.698l.008-.255.014-.375.01-.253c.012-.297.025-.606.041-.953.097-2.129.436-3.583.93-4.855a9.803 9.803 0 0 1 2.307-3.542 9.803 9.803 0 0 1 3.542-2.307c1.272-.494 2.726-.833 4.855-.93.347-.016.656-.03.953-.042l.253-.01.375-.013.255-.008c1.03-.03 2.236-.043 4.698-.046zm-.637 3.603h-2.478l-.615.001c-2.552.004-3.638.02-4.725.059l-.252.01c-.337.012-.685.028-1.087.046-1.95.09-3.009.415-3.713.689-.934.363-1.6.796-2.3 1.496-.7.7-1.133 1.366-1.496 2.3-.274.704-.6 1.763-.689 3.713-.018.402-.034.75-.047 1.087l-.01.252c-.039 1.087-.054 2.173-.058 4.725v.615l-.001.329v2.477l.001.615c.004 2.552.02 3.638.059 4.725l.01.252c.012.337.028.685.046 1.087.09 1.95.415 3.009.689 3.713.363.934.796 1.6 1.496 2.3.7.7 1.366 1.133 2.3 1.496.704.274 1.763.6 3.713.689 1.808.082 2.53.109 6.063.115h.616l.328.001h2.478l.616-.001c3.532-.006 4.255-.033 6.063-.115 1.95-.09 3.009-.415 3.713-.689.934-.363 1.6-.796 2.3-1.496.7-.7 1.133-1.366 1.496-2.3.274-.704.6-1.763.689-3.713.018-.402.034-.75.047-1.087l.01-.252c.039-1.087.054-2.173.058-4.725v-.615l.001-.328V30.597l-.001-.615c-.004-2.552-.02-3.638-.059-4.725l-.01-.252c-.012-.337-.028-.685-.046-1.087-.09-1.95-.415-3.009-.689-3.713-.363-.934-.796-1.6-1.496-2.3-.7-.7-1.366-1.133-2.3-1.496-.704-.274-1.763-.6-3.713-.689-.402-.018-.75-.034-1.087-.047l-.252-.01c-1.087-.039-2.173-.054-4.725-.058h-.615l-.328-.001zM32 21.73c5.672 0 10.27 4.598 10.27 10.27S37.672 42.27 32 42.27 21.73 37.672 21.73 32 26.328 21.73 32 21.73zm0 3.603a6.667 6.667 0 1 0 0 13.334 6.667 6.667 0 0 0 0-13.334zm10.676-6.41a2.4 2.4 0 1 1 0 4.801 2.4 2.4 0 0 1 0-4.8z"/></symbol><symbol id="ps-icon_third-party_spotify" viewBox="0 0 64 64"><path fill-rule="evenodd" d="M32 8.625l.387.003C45.118 8.835 55.375 19.22 55.375 32l-.003.387C55.165 45.119 44.78 55.375 32 55.375l-.387-.003c-12.73-.207-22.988-10.59-22.988-23.373C8.625 19.09 19.091 8.625 32 8.625zm9.852 31.504c-6.1-3.568-13.614-4.366-22.343-2.373l-.136.038a1.456 1.456 0 0 0 .461 2.838l.108-.004c.072-.005.145-.016.218-.033l.541-.12c7.91-1.703 14.643-.906 20.017 2.373l.123.068a1.458 1.458 0 0 0 1.882-.552l.068-.123a1.456 1.456 0 0 0-.552-1.881zm2.75-6.874c-7.206-4.239-17.533-5.395-25.871-2.864l-.141.05a1.825 1.825 0 0 0-1.075 2.223c.24.787.964 1.294 1.747 1.294l.176-.008c.117-.012.236-.035.353-.071l.449-.131c7.369-2.08 16.697-.929 22.857 2.857l.137.077c.836.42 1.87.137 2.371-.677l.077-.137a1.823 1.823 0 0 0-.676-2.37zm3.001-7.909c-8.685-4.916-22.07-5.342-30.177-2.871l-.148.05a2.193 2.193 0 0 0 .781 4.24l.158-.006c.159-.012.319-.041.477-.09l.397-.117c7.239-2.055 19.344-1.577 26.736 2.828l.143.078a2.177 2.177 0 0 0 2.848-.845l.078-.144a2.196 2.196 0 0 0-.84-2.86z"/></symbol><symbol id="ps-icon_third-party_tiktok" viewBox="0 0 64 64"><path d="M43.772 20.018A9.585 9.585 0 0 1 39.4 12h-6.9l-.01 27.56a5.794 5.794 0 0 1-8.48 4.899 5.781 5.781 0 0 1-3.11-5.116c0-3.188 2.602-5.781 5.8-5.781.597 0 1.17.098 1.712.267v-7.021a12.716 12.716 0 0 0-1.712-.123c-7.003 0-12.7 5.678-12.7 12.658 0 4.282 2.147 8.071 5.422 10.363A12.655 12.655 0 0 0 26.7 52c7.003 0 12.7-5.678 12.7-12.657V25.367a16.448 16.448 0 0 0 9.6 3.077v-6.877a9.563 9.563 0 0 1-5.228-1.55"/></symbol><symbol id="ps-icon_third-party_twitch" viewBox="0 0 64 64"><path fill-rule="evenodd" d="M53.175 9v25.163h-.034l-16.19 16.156h-7.155l-9.002 8.938v-8.938H10V17.938L18.937 9h34.238zm-3.644 3.644H20.794v26.95h8.044v6.256l6.324-6.256h7.15l7.219-7.218V12.644zm-15.262 6.255v10.794h-3.576V18.899h3.576zm9.831 0v10.794h-3.574V18.899H44.1z"/></symbol><symbol id="ps-icon_third-party_twitter" viewBox="0 0 64 64"><path d="M35.755 29.236L48.738 14h-3.076L34.389 27.229 25.385 14H15l13.616 20.005L15 49.98h3.077l11.904-13.97 9.51 13.97h10.384l-14.12-20.745zm-4.214 4.945l-1.38-1.992-10.976-15.85h4.726l8.858 12.791 1.38 1.992L45.663 47.75h-4.725L31.54 34.18z"/></symbol><symbol id="ps-icon_third-party_ubisoft" viewBox="0 0 64 64"><path fill-rule="evenodd" d="M41.208 31.366v4.254H38.21v-4.254h-4.45v-2.869h4.45v-4.256h3v4.256h4.963l-1.26 2.87h-3.704zm-9.519 2.64c0 1.3-.28 2.467-.839 3.498-.56 1.03-1.387 1.835-2.48 2.417-1.095.582-2.403.872-3.922.872-1.52 0-2.827-.29-3.92-.872-1.095-.58-1.923-1.386-2.482-2.417-.56-1.03-.839-2.198-.839-3.499v-9.764h3.81v9.485c0 1.193.295 2.112.888 2.755.593.643 1.441.965 2.543.965s1.95-.322 2.543-.965c.593-.643.89-1.562.89-2.755l.001-9.485h3.807v9.764zM11 17v30h33.103L56 17H11z"/></symbol><symbol id="ps-icon_third-party_youtube" viewBox="0 0 64 64"><path d="M33.543 18.034l.417.004c3.651.038 11.32.194 13.666.821l.319.096a5.032 4.99 0 0 1 3.219 3.433l.077.302c.686 2.901.754 8.154.759 9.142v.326c-.007 1.025-.077 6.624-.836 9.444l-.097.317a5.023 4.98 0 0 1-3.439 3.212l-.229.057c-1.366.308-4.06.493-6.817.605l-.975.037c-2.918.101-5.742.127-6.97.134h-.349l-.128.002h-.46l-.348-.002a257.155 254.96 0 0 1-6.972-.133l-.975-.036c-2.921-.12-5.77-.323-7.046-.664l-.318-.096a5.03 4.987 0 0 1-3.22-3.433l-.117-.488c-.527-2.385-.667-6.172-.704-8.025v-2.187l.01-.427c.054-2.112.23-5.92.813-8.088l.097-.316a5.027 4.984 0 0 1 3.44-3.212l.306-.072c2.759-.592 10.464-.724 13.778-.753zm-5.652 8.089V37.9l10.472-5.888z"/></symbol><symbol id="ps-icon_third-party_youtube-video" viewBox="0 0 54 12"><defs><path id="ps-icon_third-party_youtube-video-a" d="M0 0h17.134v12H0z"/></defs><g fill="none" fill-rule="evenodd"><mask id="ps-icon_third-party_youtube-video-b" fill="#fff"><use xlink:href="#ps-icon_third-party_youtube-video-a"/></mask><path fill="#D9252A" d="M16.776 1.874A2.147 2.147 0 0 0 15.261.358C13.924 0 8.563 0 8.563 0s-5.36 0-6.698.358A2.147 2.147 0 0 0 .35 1.874C-.008 3.21-.008 6-.008 6s0 2.79.358 4.126a2.147 2.147 0 0 0 1.515 1.516C3.202 12 8.563 12 8.563 12s5.36 0 6.698-.358a2.147 2.147 0 0 0 1.515-1.516C17.134 8.79 17.134 6 17.134 6s0-2.79-.358-4.126" mask="url(#ps-icon_third-party_youtube-video-b)"/><path fill="#FFFFFE" d="M6.849 8.571L11.302 6 6.849 3.428v5.143M26.775 9.74c.094-.245.14-.646.14-1.201V6.197c0-.54-.046-.934-.14-1.183-.094-.25-.26-.374-.497-.374-.229 0-.39.125-.484.374-.094.25-.141.644-.141 1.183V8.54c0 .555.045.956.135 1.201.09.245.253.368.49.368s.403-.123.497-.368zm-1.9 1.177c-.34-.229-.58-.584-.724-1.067-.143-.482-.214-1.123-.214-1.924V6.835c0-.81.081-1.46.245-1.95.163-.49.419-.848.766-1.072.347-.225.803-.338 1.367-.338.556 0 1.001.115 1.336.344.335.229.58.586.736 1.072.155.487.233 1.134.233 1.944v1.09c0 .802-.076 1.445-.227 1.932-.151.486-.397.841-.736 1.066-.339.225-.798.337-1.379.337-.597 0-1.064-.114-1.403-.343zM51.127 4.78c-.086.106-.143.28-.172.52-.028.242-.042.607-.042 1.098v.54h1.238v-.54c0-.482-.017-.848-.05-1.097-.032-.25-.091-.425-.177-.527-.086-.103-.219-.154-.398-.154-.18 0-.313.053-.399.16zm-.214 3.162v.38c0 .483.014.844.042 1.085.029.242.088.417.178.528.09.11.229.165.417.165.253 0 .427-.098.521-.294.094-.196.145-.523.153-.98l1.46.085a2.3 2.3 0 0 1 .011.27c0 .694-.19 1.213-.57 1.557-.38.343-.917.515-1.612.515-.833 0-1.418-.262-1.753-.785-.335-.523-.503-1.332-.503-2.427V6.73c0-1.128.174-1.951.522-2.47.347-.52.941-.779 1.783-.779.58 0 1.026.106 1.337.319.31.212.529.543.655.993.127.45.19 1.07.19 1.863v1.287h-2.831zm-30.158-.14L18.83.852h1.68l.674 3.15c.172.777.298 1.439.38 1.986h.05c.056-.392.183-1.05.38-1.973l.698-3.163h1.68l-1.95 6.95v3.336h-1.667V7.803m13.327-4.18v7.515h-1.324l-.147-.92h-.037c-.36.695-.899 1.042-1.618 1.042-.499 0-.866-.163-1.103-.49-.237-.327-.356-.838-.356-1.533V3.622h1.692V9.14c0 .336.037.574.11.717.074.143.196.215.368.215a.749.749 0 0 0 .423-.135.834.834 0 0 0 .3-.343v-5.97h1.692m8.678 0v7.515h-1.324l-.147-.92h-.037c-.36.695-.9 1.042-1.618 1.042-.499 0-.867-.163-1.104-.49-.237-.327-.355-.838-.355-1.533V3.622h1.692V9.14c0 .336.036.574.11.717.074.143.196.215.368.215a.749.749 0 0 0 .423-.135.834.834 0 0 0 .3-.343v-5.97h1.692"/><path fill="#FFFFFE" d="M38.679 2.213H37v8.925h-1.655V2.213h-1.68V.852h5.014v1.361m8.129 5.677c0 .547-.022.976-.067 1.286-.045.311-.12.532-.227.662a.524.524 0 0 1-.429.197.783.783 0 0 1-.386-.099.738.738 0 0 1-.288-.294V5.376a1.07 1.07 0 0 1 .294-.503.651.651 0 0 1 .453-.196c.172 0 .305.068.399.203.094.134.16.361.196.68.037.319.055.772.055 1.36v.97zm1.551-3.066c-.102-.474-.268-.817-.496-1.03-.23-.212-.544-.319-.944-.319-.31 0-.601.088-.87.264-.27.176-.479.407-.626.693h-.012V.472h-1.63v10.665h1.397l.171-.71h.037c.13.253.327.453.589.6.261.147.551.22.87.22.572 0 .993-.263 1.263-.79.27-.527.404-1.35.404-2.47v-1.19c0-.841-.05-1.499-.153-1.973z"/></g></symbol></svg>