<svg xmlns="http://www.w3.org/2000/svg" width="0" height="0" style="position:absolute"><symbol id="ps-icon_symbols_accessibility" viewBox="0 0 64 64"><path fill-rule="evenodd" d="M31.998 11.58c11.261 0 20.421 9.159 20.421 20.419 0 11.262-9.16 20.42-20.421 20.42-11.257 0-20.417-9.158-20.417-20.42 0-11.26 9.16-20.42 20.417-20.42zm.004 27.436l-5.464 8.373a16.21 16.21 0 0 0 5.457.94c1.917 0 3.758-.331 5.469-.943l-5.462-8.37zm-15.34-12.618a16.27 16.27 0 0 0-.99 5.6c0 5.472 2.704 10.319 6.841 13.285l6.206-10.942-.763-2.883-.009.006c-4.829-1.153-9.391-3.85-11.285-5.066zm30.733.157l-.2.126c-2.148 1.339-6.554 3.823-11.151 4.853l-.744 2.788 6.201 10.952.286-.21c3.969-2.982 6.541-7.727 6.541-13.065 0-1.91-.329-3.741-.933-5.444zM31.998 15.67c-5.564 0-10.492 2.8-13.441 7.067l.262.125c2.957 1.397 8.378 3.592 13.179 3.592 4.965 0 10.559-2.33 13.443-3.714-2.952-4.272-7.876-7.07-13.443-7.07zm.004 2.382a3.31 3.31 0 0 1 3.307 3.311 3.308 3.308 0 1 1-6.617 0 3.313 3.313 0 0 1 3.31-3.31z"/></symbol><symbol id="ps-icon_symbols_announcement" viewBox="0 0 64 64"><path fill-rule="evenodd" d="M38.845 17.908a1.896 1.896 0 0 1 1.754.213c.514.354.82.937.82 1.562V42.22a1.896 1.896 0 0 1-2.574 1.775c-7.717-2.93-13.637-5.046-18.023-6.548l.674 6.32a1.9 1.9 0 0 1-1.82 2.449h-3.222a1.898 1.898 0 0 1-1.888-1.698l-.906-8.484h-3.2a1.9 1.9 0 0 1-1.898-1.899v-6.459a1.9 1.9 0 0 1 1.899-1.9h6.436c3.946-1.295 9.884-3.344 18.225-6.464l1.208-.453a795.63 795.63 0 0 0 2.515-.95zm8.32 21.712a1.422 1.422 0 0 1 1.911-.639l3.747 1.871c.702.354.99 1.209.638 1.912a1.423 1.423 0 0 1-1.91.639l-3.749-1.872a1.425 1.425 0 0 1-.638-1.911zm6.849-10.14a1.425 1.425 0 1 1 0 2.85h-4.187a1.423 1.423 0 0 1-1.422-1.425c0-.787.635-1.425 1.422-1.425zm-2.465-11.072a1.425 1.425 0 1 1 1.274 2.55l-3.747 1.873a1.424 1.424 0 0 1-1.275-2.55z"/></symbol><symbol id="ps-icon_symbols_attachement" viewBox="0 0 64 64"><path fill-rule="evenodd" d="M44.838 31.57c-.074.073-7.44 7.398-11.463 11.462-2.724 2.752-5.269 4.297-7.564 4.59-2.315.297-4.465-.273-6.337-2.145-2.063-2.062-2.244-4.37-2.055-6.208.307-2.98 2.642-5.668 4.422-7.46.747-.745 9.81-9.78 12.874-12.875 2.098-2.119 4.041-3.306 5.776-3.528.814-.105 2.924-.132 4.917 1.861 1.543 1.543 1.943 3.56 1.802 4.932-.236 2.291-2.097 4.388-3.476 5.766l-2.92 2.922s-1.145 1.143-2.768 2.767l-2.215 2.216.002.002-1.308 1.31-.645.657c-1.04 1.06-2.218 2.263-2.945 2.442-1.756.433-2.563-.374-2.828-.64-.894-.893-.962-1.95-.862-2.68.12-.868 1.428-2.134 2.481-3.153.246-.239.49-.474.722-.707l7.904-7.904-2.38-2.38-7.903 7.904c-.22.22-.45.443-.684.67-1.498 1.45-3.196 3.093-3.474 5.111-.288 2.1.357 4.06 1.816 5.52a5.857 5.857 0 0 0 2.646 1.541c1.038.278 2.177.278 3.365-.015 1.658-.407 3.06-1.838 4.545-3.354.206-.21.415-.424.626-.636a4098.04 4098.04 0 0 1 3.361-3.368l5.844-5.845c1.742-1.74 4.098-4.445 4.443-7.8.286-2.776-.75-5.638-2.769-7.658-2.147-2.145-4.962-3.172-7.724-2.819-2.533.324-5.065 1.795-7.74 4.498-.677.684-1.65 1.66-2.759 2.773l-.007-.007-9.996 9.995-.066.067-.083.082.001.001c-2.138 2.158-4.93 5.437-5.343 9.447-.347 3.377.563 6.472 3.023 8.933 1.56 1.56 3.156 2.3 5.106 2.822 1.318.354 2.684.454 4.038.281 3.101-.397 6.218-2.215 9.53-5.56 4.011-4.055 11.37-11.37 11.443-11.444l-2.373-2.387z"/></symbol><symbol id="ps-icon_symbols_background-remove-tool" viewBox="0 0 64 64"><path fill-rule="evenodd" d="M28.111 42.242c4.056.685 5.766 2.84 5.766 6.807h-18.13c0-3.968 1.874-6.122 5.859-6.807a.97.97 0 0 0 .866-.613.488.488 0 0 0 .033-.17v-1.097a5.99 5.99 0 0 1-3.234-5.409c0-3.288 2.483-5.947 5.541-5.947 3.058 0 5.563 2.642 5.563 5.925a5.99 5.99 0 0 1-3.234 5.41v1.096a.85.85 0 0 0 .033.213c.137.4.641.516.96.549m24.438-7.674a2.313 2.313 0 1 1-.422 3.782l-2.67-2.06-.427.235-.28.4 1.755 2.878a2.313 2.313 0 1 1-3.804 0c.352-.43.676-.882.97-1.354a.756.756 0 0 0-.066-.417s-.603-1.216-.646-1.326c-.757-.74-5.667-4.385-5.783-4.5a.4.4 0 0 1-.131-.361c0-.083.066-.373.093-.505 0-.044.033-.049.071-.033l5.536 2.659s-2.05-5.673-2.06-5.717c-.012-.044 0-.066.037-.071l.516-.033a.4.4 0 0 1 .345.175c.099.126 3.19 5.404 3.836 6.238.105.054 1.25.783 1.25.783a.767.767 0 0 0 .411.115c.5-.24.983-.513 1.447-.816m-2.8 7.355a1.392 1.392 0 1 0-2.292-1.582 1.392 1.392 0 0 0 2.291 1.582m5.125-5.98a1.392 1.392 0 1 0-2.444 1.335 1.392 1.392 0 0 0 2.444-1.335m-7.092-.816l-.143.11.258.224a1.51 1.51 0 0 1 .203-.18l-.187-.28a1.37 1.37 0 0 1-.131.126zm-3.037 5.88H30.342a7.8 7.8 0 0 1 3.07 1.815h11.723a3.924 3.924 0 0 1-.39-1.814zm4.193-10.232V17.206A3.206 3.206 0 0 0 45.721 14H12.206A3.206 3.206 0 0 0 9 17.206v22.438a3.206 3.206 0 0 0 3.206 3.207h4.1a8.084 8.084 0 0 1 3.107-1.814h-7.207a1.392 1.392 0 0 1-1.392-1.393V17.206c0-.769.623-1.392 1.392-1.392h33.515c.769 0 1.392.623 1.392 1.392V27.78c.104.175.252.427.482.805.318.543.834 1.381 1.343 2.22zm5.81 7.86a2.318 2.318 0 0 1-2.62-.291l-2.67-2.06-.427.235-.28.4 1.755 2.877a2.313 2.313 0 1 1-3.804 0c.352-.43.676-.882.97-1.353a.756.756 0 0 0-.066-.417s-.602-1.217-.646-1.326c-.757-.74-5.667-4.385-5.782-4.5a.4.4 0 0 1-.132-.362c0-.082.066-.372.093-.504 0-.044.033-.05.071-.033l5.536 2.658s-2.028-5.738-2.039-5.782c-.01-.044 0-.066.038-.071l.516-.033a.4.4 0 0 1 .345.175c.099.126 3.19 5.404 3.836 6.238.105.054 1.25.783 1.25.783a.767.767 0 0 0 .411.115c.5-.24.983-.513 1.447-.816a2.313 2.313 0 1 1 2.192 4.072l.006-.006zm-7.29 1.688a1.392 1.392 0 1 0 1.94-.351 1.403 1.403 0 0 0-1.94.356v-.005zm7.416-4.385a1.392 1.392 0 1 0-.548 1.885c.667-.37.911-1.209.548-1.88v-.005zm-40.86-1.957c.206-.207.32-.487.319-.778a.943.943 0 0 0 0-.214.866.866 0 0 0-.06-.203 1.266 1.266 0 0 0-.121-.18 1.36 1.36 0 0 0-.137-.165 1.129 1.129 0 0 0-1.551 0 .992.992 0 0 0-.236.356c-.027.066-.05.134-.066.203a1.414 1.414 0 0 0 0 .214c0 .292.117.572.324.778a1.096 1.096 0 0 0 1.55 0l-.021-.01zm2.007-2.39c.284.001.557-.11.762-.306a1.096 1.096 0 0 0 0-1.551 1.096 1.096 0 0 0-1.551 0 1.096 1.096 0 0 0 0 1.55c.211.205.495.315.789.308zm2.779-2.707a1.1 1.1 0 0 0 .767-.312 1.096 1.096 0 0 0 0-1.546 1.096 1.096 0 0 0-1.551 0 1.096 1.096 0 0 0 .767 1.88l.017-.022zm2.806-2.707c.286.001.561-.109.767-.307a1.096 1.096 0 0 0 0-1.551 1.096 1.096 0 0 0-1.551 0 1.096 1.096 0 0 0 .784 1.858zm3.557-3.026c.191-.213.291-.492.28-.778a1.096 1.096 0 0 0-.324-.773 1.135 1.135 0 0 0-1.551 0 1.096 1.096 0 0 0 .778 1.87c.295.004.58-.11.79-.319h.027zm4.97 5.815c.3 0 .584-.123.79-.34a1.096 1.096 0 0 0-.033-1.55 1.096 1.096 0 0 0-1.55.032 1.096 1.096 0 0 0 .788 1.858h.006zm-2.871-2.74c.3 0 .587-.122.795-.34a1.096 1.096 0 0 0-1.584-1.513 1.096 1.096 0 0 0 .789 1.853zm6.522 5.174c.206-.205.322-.483.323-.773a1.414 1.414 0 0 0 0-.214 1.315 1.315 0 0 0-.065-.208 1.003 1.003 0 0 0-.1-.186 1.036 1.036 0 0 0-.136-.17 1.096 1.096 0 0 0-.987-.296 1.003 1.003 0 0 0-.395.159c-.06.041-.116.087-.17.137a1.1 1.1 0 0 0-.317.778.943.943 0 0 0 0 .214c.012.07.032.138.06.203.028.066.06.13.099.191a1.036 1.036 0 0 0 .307.301c.058.04.12.073.186.1.068.027.137.05.208.065.072.006.143.006.214 0 .28-.005.546-.117.746-.312l.027.01zm2.017-2.373c.285-.002.558-.114.762-.313a1.096 1.096 0 0 0 0-1.545 1.096 1.096 0 0 0-1.551 0 1.096 1.096 0 0 0 .761 1.885l.028-.027zm3.568-3.02c.21-.209.326-.494.323-.79a1.096 1.096 0 0 0-.323-.772 1.135 1.135 0 0 0-1.551 0 1.36 1.36 0 0 0-.137.164 1.145 1.145 0 0 0-.18.608 1.096 1.096 0 0 0 1.868.779v.01zm2.647 2.702a1.096 1.096 0 0 0-.027-1.584 1.096 1.096 0 0 0-.987-.302 1.211 1.211 0 0 0-.395.164.965.965 0 0 0-.301.301.932.932 0 0 0-.104.193.866.866 0 0 0-.06.203.943.943 0 0 0 0 .214c-.002.291.112.571.318.778.052.048.11.092.17.131a.91.91 0 0 0 .395.164.943.943 0 0 0 .213 0c.276.007.544-.09.75-.273l.028.01z"/></symbol><symbol id="ps-icon_symbols_comment" viewBox="0 0 64 64"><path fill-rule="evenodd" d="M43.5 13h-23c-4.675 0-8.5 3.825-8.5 8.5v8c0 4.675 3.825 8.5 8.5 8.5h7L26 51l12-13h5.5c4.675 0 8.5-3.825 8.5-8.5v-8c0-4.675-3.825-8.5-8.5-8.5"/></symbol><symbol id="ps-icon_symbols_community" viewBox="0 0 64 64"><path fill-rule="evenodd" d="M45.378 37.168c4.73 1.689 7.75 4.252 7.75 7.123 0 5.084-9.482 9.209-21.18 9.209-11.7 0-21.182-4.125-21.182-9.209 0-2.863 3-5.418 7.709-7.108l.134.858c-1.965 1.178-3.125 2.628-3.124 4.198 0 3.952 7.37 7.157 16.463 7.157 9.09 0 16.46-3.205 16.46-7.157 0-1.542-1.12-2.969-3.023-4.137zm-7.644-14.245a4.836 4.836 0 0 1 4.83 4.617l.005.215v11.476a4.836 4.836 0 0 1-4.62 4.828l-.215.005H26.258a4.834 4.834 0 0 1-4.828-4.618l-.004-.215V27.755a4.833 4.833 0 0 1 4.616-4.827l.216-.005h11.476zm-1.962 12.934c-.346 0-.68.127-.938.36-.602.541-1.72.877-2.918.877-1.17 0-2.176-.31-2.695-.827a1.384 1.384 0 0 0-.99-.41c-.375 0-.727.145-.992.41a1.405 1.405 0 0 0 0 1.98c1.022 1.022 2.78 1.631 4.703 1.631 1.912 0 3.649-.575 4.765-1.58a1.404 1.404 0 0 0 .108-1.978 1.402 1.402 0 0 0-1.043-.463zm.869-6.438c-1.012 0-1.836.82-1.836 1.827 0 1.012.824 1.835 1.836 1.835a1.83 1.83 0 1 0 0-3.662zm-9.324 0a1.83 1.83 0 1 0 .001 3.662 1.83 1.83 0 0 0-.001-3.662zM43.36 10.61l.2.053 9.12 2.664a4.002 4.002 0 0 1 2.77 4.764l-.053.198-2.666 9.119a4.002 4.002 0 0 1-4.765 2.772l-.199-.052-2.2-.643v-1.73c0-.713-.105-1.4-.285-2.059 1.116.145 2.176.021 3.015-.38a1.17 1.17 0 1 0-1.015-2.11c-.6.29-1.565.298-2.516.018a4.77 4.77 0 0 1-.945-.386 7.825 7.825 0 0 0-5.795-2.91l-.294-.005h-1.048L38.6 13.38a3.998 3.998 0 0 1 4.762-2.77zm-22.922.053a3.999 3.999 0 0 1 4.962 2.718l1.914 6.543h-1.056a7.82 7.82 0 0 0-6.093 2.92c-.276.149-.59.279-.934.38-.95.28-1.914.272-2.515-.018a1.173 1.173 0 0 0-1.563.55 1.169 1.169 0 0 0 .548 1.559c.837.402 1.894.525 3.007.382a7.777 7.777 0 0 0-.283 2.059v1.73l-2.195.642a4.003 4.003 0 0 1-4.963-2.721l-2.666-9.118a4.001 4.001 0 0 1 2.718-4.962zm-6.313 7.382c-.157 0-.312.023-.463.068a1.638 1.638 0 0 0-1.116 2.033 1.654 1.654 0 0 0 2.038 1.122c.422-.122.771-.403.982-.789a1.63 1.63 0 0 0 .138-1.251 1.652 1.652 0 0 0-1.579-1.183zm35.748 0c-.727 0-1.376.486-1.579 1.183-.123.421-.074.866.137 1.25a1.633 1.633 0 0 0 1.441.854c.726 0 1.377-.488 1.58-1.186a1.619 1.619 0 0 0-.137-1.247 1.63 1.63 0 0 0-.978-.785 1.63 1.63 0 0 0-.464-.07zM21.53 15.88a1.641 1.641 0 0 0-1.577 2.102c.203.7.853 1.188 1.578 1.188a1.644 1.644 0 0 0-.001-3.29zm20.938 0c-.726 0-1.375.487-1.579 1.182a1.64 1.64 0 0 0 .136 1.25c.21.387.558.666.98.79.15.046.306.068.462.068.725 0 1.375-.489 1.578-1.188a1.623 1.623 0 0 0-.137-1.248 1.637 1.637 0 0 0-.979-.787 1.583 1.583 0 0 0-.46-.067z"/></symbol><symbol id="ps-icon_symbols_competitions" viewBox="0 0 64 64"><path fill-rule="evenodd" d="M43.054 40.712l6.111 10.584-6.593-.576-2.798 5.998-6.331-10.966.941-1.631 2.108-1.424 5.412.385 1.15-2.37zm-22.108 0l1.148 2.368 5.412-.384 3.464 2.34-6.745 11.682-2.798-5.998-6.593.576 6.112-10.584zM32 9.75l3.673 2.48 4.42-.314 1.935 3.987 3.988 1.934-.315 4.421 2.48 3.672-2.48 3.672.314 4.42-3.988 1.936-1.935 3.987-4.42-.315L32 42.111l-3.672-2.48-4.42.313-1.934-3.987-3.988-1.935.314-4.42-2.481-3.672 2.48-3.673-.314-4.42 3.989-1.934 1.934-3.987 4.42.313L32 9.75zm0 4.63c-6.37 0-11.551 5.181-11.551 11.55 0 6.37 5.182 11.551 11.55 11.551 6.37 0 11.553-5.182 11.553-11.55 0-6.37-5.182-11.552-11.552-11.552zm0 2.5c4.99 0 9.052 4.06 9.052 9.05 0 4.99-4.061 9.052-9.052 9.052-4.99 0-9.051-4.061-9.051-9.051s4.06-9.051 9.05-9.051z"/></symbol><symbol id="ps-icon_symbols_cut" viewBox="0 0 64 64"><path fill-rule="evenodd" d="M45.47 47.787a4.07 4.07 0 0 1-4.898 3 4.064 4.064 0 0 1-3-4.893 4.066 4.066 0 0 1 4.896-3.003 4.062 4.062 0 0 1 3.002 4.896m-22.764 3a4.07 4.07 0 0 1-4.9-3 4.066 4.066 0 0 1 3.002-4.896 4.061 4.061 0 0 1 1.898 7.896m20.393-10.515c-1.505-.36-4.29-.713-4.748-1.042-.454-.328-.658-1.043-.658-1.043s-1.071-3.812-1.186-4.14c.206-3.077 3.77-20.576 3.8-21.039.035-.509-.15-.855-.404-1.048l-1.19-.924c-.091-.072-.18-.033-.222.078-.02.052-6.853 16.554-6.853 16.554l-6.855-16.554c-.041-.11-.125-.15-.22-.078l-1.19.924c-.253.193-.44.54-.407 1.048.032.463 3.6 17.962 3.806 21.038-.118.33-1.19 4.141-1.19 4.141s-.203.715-.657 1.043c-.457.33-3.24.682-4.746 1.042a6.755 6.755 0 0 0-4.991 8.144 6.754 6.754 0 1 0 13.269-.743L30.25 38l1.388-.33 1.389.33 1.794 9.674a6.753 6.753 0 0 0 13.266.743 6.753 6.753 0 0 0-4.988-8.144"/></symbol><symbol id="ps-icon_symbols_date-and-time" viewBox="0 0 64 64"><path fill-rule="evenodd" d="M34.789 36.754h-4.486l-9.212-5.475 2.339-3.937 6.769 4.022.009-15.031h4.581v20.421zM32.495 12C21.179 12 12 21.177 12 32.503 12 43.823 21.179 53 32.495 53 43.821 53 53 43.823 53 32.503 53 21.177 43.821 12 32.495 12z"/></symbol><symbol id="ps-icon_symbols_dual-hidden-mics-2" viewBox="0 0 64 64"><path fill-rule="evenodd" d="M35.76 26.347h-6.677V14.868A2.875 2.875 0 0 0 26.215 12h-6.697a2.875 2.875 0 0 0-2.868 2.868v11.479H9.96a.96.96 0 0 0-.96.954v6.69a10.518 10.518 0 0 0 10.518 10.525h1.434v3.849H16.65a1.914 1.914 0 0 0 0 3.829h12.433a1.914 1.914 0 1 0 0-3.829h-4.302v-3.85h1.434c5.81-.003 10.518-4.714 10.518-10.524V27.3a.954.954 0 0 0-.974-.954m-2.854 7.644a6.697 6.697 0 0 1-6.69 6.696h-6.697a6.697 6.697 0 0 1-6.69-6.696v-3.822h3.822v3.822a2.875 2.875 0 0 0 2.868 2.874h6.697a2.875 2.875 0 0 0 2.868-2.874v-3.822h3.822v3.822zm5.921 12.35l-2.93-2.902 1.66-1.64 2.91 2.909 2.895-2.91 1.64 1.64-2.916 2.91 2.916 2.909-1.64 1.64-2.895-2.91-2.91 2.91-1.66-1.64 2.93-2.916zm17.153 5.784h-9.098v-2.552c4.33-3.685 5.688-5.18 5.688-6.615a1.592 1.592 0 0 0-1.763-1.64 6.113 6.113 0 0 0-2.985.92l-.94-2.306a8.343 8.343 0 0 1 4.234-1.173c2.875 0 4.686 1.468 4.686 4.117 0 2.271-1.592 3.98-4.872 6.69H56l-.02 2.559z"/></symbol><symbol id="ps-icon_symbols_easy-access" viewBox="0 0 64 64"><path fill-rule="evenodd" d="M16.1 29.61a.947.947 0 0 1-.969-.94V17.743a.94.94 0 0 1 .969-.91h6.681l7.672-7.563a.94.94 0 1 1 1.603.67v26.12a.94.94 0 0 1-.576.866.918.918 0 0 1-1.02-.19l-7.402-7.125H16.1zm20.597-11.27a6.674 6.674 0 0 1 0 9.427l2.098 2.098a9.654 9.654 0 0 0 0-13.624l-2.098 2.098zm4.903-4.882c5.29 5.303 5.29 13.887 0 19.19l2.091 2.092c6.448-6.457 6.448-16.916 0-23.373l-2.09 2.091zm11.03 35.438a2.026 2.026 0 0 1-2.025 2.032h-3.854a7.11 7.11 0 0 1-13.624 0H13.033a2.033 2.033 0 1 1 0-4.065h20.094a7.11 7.11 0 0 1 13.624 0h3.854a2.025 2.025 0 0 1 2.026 2.033zm-9.646 0a3.045 3.045 0 1 0-6.09 0 3.045 3.045 0 0 0 6.09 0z"/></symbol><symbol id="ps-icon_symbols_event" viewBox="0 0 64 64"><path fill-rule="evenodd" d="M44.2 39.48a2.58 2.58 0 0 1-2.574-2.574 2.58 2.58 0 0 1 2.574-2.574 2.58 2.58 0 0 1 2.574 2.574A2.58 2.58 0 0 1 44.2 39.48zm0 7.423a2.58 2.58 0 0 1-2.574-2.574 2.58 2.58 0 0 1 2.574-2.574 2.58 2.58 0 0 1 2.574 2.574 2.58 2.58 0 0 1-2.574 2.574zm-4.615-15.612h-3.068v-12.13l-2.808 1.664-1.092-2.301 3.848-2.274h3.12v15.041zm-3.848 8.189a2.58 2.58 0 0 1-2.574-2.574 2.58 2.58 0 0 1 2.574-2.574 2.58 2.58 0 0 1 2.574 2.574 2.58 2.58 0 0 1-2.574 2.574zm0 7.423a2.58 2.58 0 0 1-2.574-2.574 2.58 2.58 0 0 1 2.574-2.574 2.58 2.58 0 0 1 2.574 2.574 2.58 2.58 0 0 1-2.574 2.574zM25.168 31.55c-1.586 0-3.315-.364-4.602-.987l.741-2.341c1.248.572 2.47.858 3.705.858 1.625 0 2.808-.689 2.808-2.171 0-1.638-1.729-2.054-3.653-2.054h-1.599v-2.47h1.651c1.768 0 3.224-.481 3.224-2.041 0-1.261-.975-1.872-2.392-1.872-1.053 0-2.119.221-3.328.819l-.754-2.379c1.287-.611 2.886-.91 4.42-.91 2.743 0 5.122 1.183 5.122 3.965 0 1.574-.78 2.887-2.574 3.471v.04c1.989.441 2.938 1.898 2.938 3.523 0 3.158-2.574 4.549-5.707 4.549zm2.106 7.93a2.58 2.58 0 0 1-2.574-2.574 2.58 2.58 0 0 1 2.574-2.574 2.58 2.58 0 0 1 2.574 2.574 2.58 2.58 0 0 1-2.574 2.574zm0 7.423a2.58 2.58 0 0 1-2.574-2.574 2.58 2.58 0 0 1 2.574-2.574 2.58 2.58 0 0 1 2.574 2.574 2.58 2.58 0 0 1-2.574 2.574zm-8.463-7.423a2.58 2.58 0 0 1-2.574-2.574 2.58 2.58 0 0 1 2.574-2.574 2.58 2.58 0 0 1 2.574 2.574 2.58 2.58 0 0 1-2.574 2.574zm0 7.423a2.58 2.58 0 0 1-2.574-2.574 2.58 2.58 0 0 1 2.574-2.574 2.58 2.58 0 0 1 2.574 2.574 2.58 2.58 0 0 1-2.574 2.574zM47.606 13H15.548A2.54 2.54 0 0 0 13 15.534v32.071a2.541 2.541 0 0 0 2.548 2.535h32.058a2.541 2.541 0 0 0 2.548-2.535V15.534A2.54 2.54 0 0 0 47.606 13z"/></symbol><symbol id="ps-icon_symbols_exclusive-discount" viewBox="0 0 64 64"><path d="M44.356 12a2.8 2.8 0 0 1 1.74.72l4.31 4.28a2.82 2.82 0 0 1 .72 1.77v10.91a2.77 2.77 0 0 1-.72 1.73l-19.41 19.42a1 1 0 0 1-1.44 0l-17.25-17.26a1 1 0 0 1 0-1.44l19.41-19.41a2.82 2.82 0 0 1 1.74-.72h10.9zm-14.58 23.33c-1.73 1.72-2.02 3.59-.56 5.05s3.35 1.19 5.07-.54h-.04c1.76-1.75 2.02-3.69.6-5.1-1.42-1.41-3.34-1.13-5.07.59zm1.5 1.54c.89-.87 1.74-1.3 2.23-.82.49.48.07 1.36-.81 2.24-.88.88-1.76 1.26-2.23.79s-.07-1.34.81-2.21zm7.27-7.66l-16.29 4.25 1.47 1.46 16.28-4.28-1.46-1.43zm-10.54-4.97c-1.77 1.76-2.02 3.6-.56 5.05 1.46 1.45 3.31 1.21 5.06-.55 1.75-1.76 2.01-3.68.58-5.09-1.43-1.41-3.33-1.17-5.08.59zm3.73.72c.49.48.1 1.36-.79 2.25-.87.87-1.78 1.25-2.25.78s-.08-1.31.81-2.21c.89-.9 1.74-1.3 2.23-.82zm11.84-7.938l-.205.011a2.82 2.82 0 0 0-1.925 1.017 2.83 2.83 0 0 0-.36 3.95 2.84 2.84 0 0 0 4-.36 2.83 2.83 0 0 0 .36-3.95 2.82 2.82 0 0 0-1.667-.664l-.203-.004z"/></symbol><symbol id="ps-icon_symbols_favorite" viewBox="0 0 64 64"><path fill-rule="evenodd" d="M47.893 17.268C46.139 15.247 43.717 14 41.045 14c-2.678-.003-5.096 1.247-6.85 3.264-.755.866-1.355 1.9-1.829 3.019-.472-1.117-1.071-2.149-1.829-3.015C28.783 15.247 26.361 14 23.686 14c-2.672-.003-5.091 1.252-6.844 3.268C15.092 19.283 14 22.064 14 25.144c.004 3.073 1.085 5.859 2.842 7.873l15.524 17.858 15.53-17.858c1.75-2.014 2.835-4.8 2.835-7.873 0-3.08-1.085-5.861-2.838-7.876"/></symbol><symbol id="ps-icon_symbols_featured" viewBox="0 0 64 64"><path fill-rule="evenodd" d="M31.999 9.254c12.542 0 22.746 10.208 22.746 22.748 0 12.54-10.204 22.744-22.746 22.744-12.545 0-22.744-10.203-22.744-22.744 0-12.54 10.199-22.748 22.744-22.748zm0 2.238c-11.311 0-20.512 9.2-20.512 20.51 0 7.272 3.804 13.673 9.527 17.316l4.962-4.964-5.082-5.082 1.828-1.837 5.088 5.09 5.183-5.185 1.832 1.832-5.185 5.182 5.142 5.14-1.83 1.833-5.142-5.138-4.429 4.426A20.392 20.392 0 0 0 32 52.514c2.98 0 5.814-.64 8.372-1.788a7.447 7.447 0 0 1-3.818-6.5c0-4.114 3.343-7.457 7.455-7.457a7.45 7.45 0 0 1 6.563 3.937 20.358 20.358 0 0 0 1.628-5.131l-16.534-.001 8.328-14.721 8.314 14.038c.134-.944.203-1.909.203-2.89 0-11.31-9.201-20.51-20.511-20.51zm12.009 27.844a4.895 4.895 0 0 0-4.89 4.89 4.896 4.896 0 0 0 4.24 4.846 20.668 20.668 0 0 0 5.506-5.408 4.895 4.895 0 0 0-4.856-4.328zm-12.3-17.674a3.246 3.246 0 0 1 3.246 3.245v7.698a3.244 3.244 0 0 1-3.245 3.242h-7.7a3.242 3.242 0 0 1-3.241-3.242v-7.698a3.243 3.243 0 0 1 3.24-3.245zm12.325 3.881l-4.346 7.676h8.888l-4.542-7.676zm-18.065 5.104a.903.903 0 0 0-1.27 0 .903.903 0 0 0 0 1.268c1.43 1.425 4.723 1.446 6.295.03a.896.896 0 0 0 .069-1.262.9.9 0 0 0-1.268-.069c-.875.784-3.055.803-3.826.032zm5.009-4.503a1.106 1.106 0 1 0-.004 2.212 1.106 1.106 0 0 0 .004-2.213zm-6.256 0a1.106 1.106 0 1 0 0 2.211 1.106 1.106 0 0 0 0-2.212z"/></symbol><symbol id="ps-icon_symbols_flag" viewBox="0 0 64 64"><path fill-rule="evenodd" d="M18.5 12.5c1.1 0 2 .9 2 2v.25l27.503 10.313c.824.31.863 1.434.118 1.822l-.118.052L20.5 37.25V49.5c0 1.1-.9 2-2 2s-2-.9-2-2v-35c0-1.1.9-2 2-2z"/></symbol><symbol id="ps-icon_symbols_folder" viewBox="0 0 64 64"><path fill-rule="evenodd" d="M9.384 23.447A3.514 3.514 0 0 0 9 25.054v19.4a3.567 3.567 0 0 0 3.566 3.565h39.339a3.567 3.567 0 0 0 3.566-3.565v-19.4a3.567 3.567 0 0 0-3.566-3.562l-22.828-.003-1.768-3.501C26.589 16.723 25.337 16 23.993 16h-8.534a3.763 3.763 0 0 0-3.261 1.888l-2.814 5.559z"/></symbol><symbol id="ps-icon_symbols_game" viewBox="0 0 64 64"><path fill-rule="evenodd" d="M24.575 36.826c-1.376 2.552-2.765 4.929-4.964 7.598-1.215 1.449-3.599 2.09-5.077 2.09-1.13 0-4.76 0-4.523-3.784.225-3.585 2.558-17.74 2.572-17.828.734-3.869 4.312-6.902 8.228-6.901 2.625 0 4.867 1.858 7.16 3.278h8.795C39.058 19.859 41.3 18 43.926 18c3.915 0 7.493 3.033 8.227 6.902.014.088 2.347 14.243 2.572 17.828.238 3.784-3.392 3.784-4.524 3.784-1.477 0-3.86-.641-5.076-2.09-2.199-2.669-3.588-5.046-4.964-7.598H24.575z"/></symbol><symbol id="ps-icon_symbols_game-free" viewBox="0 0 64 64"><path fill-rule="evenodd" d="M54.494 51.877c-.126-2.012-1.436-9.955-1.443-10.004C52.64 39.701 50.631 38 48.433 38c-1.472 0-2.73 1.043-4.016 1.84H39.48c-1.286-.797-2.545-1.84-4.016-1.84-2.199 0-4.206 1.701-4.618 3.873-.008.049-1.317 7.992-1.443 10.004C29.27 54 31.306 54 31.941 54c.83 0 2.167-.359 2.848-1.173 1.234-1.498 2.014-2.831 2.786-4.263h8.746c.773 1.432 1.552 2.765 2.786 4.263.682.814 2.02 1.173 2.85 1.173.634 0 2.671 0 2.537-2.123M30.427 20.212c.724-3.55 3.5-5.462 5.027-5.462.827 0 2.75.229 2.75 2.34 0 2.24-3.881 2.962-7.777 3.122M18.796 17.09c0-2.112 1.923-2.341 2.75-2.341 1.527 0 4.304 1.913 5.027 5.462-3.896-.16-7.777-.882-7.777-3.121M44.5 22h-5.885c1.799-.982 3.089-2.513 3.089-4.91 0-3.44-2.57-5.84-6.25-5.84-2.292 0-5.152 1.629-6.954 4.5-1.802-2.871-4.662-4.5-6.954-4.5-3.68 0-6.25 2.4-6.25 5.84 0 2.397 1.29 3.928 3.09 4.91H12.5c-.55 0-1 .45-1 1v5.5c0 .55.45 1 1 1H26V22h5v7.5h13.5c.55 0 1-.45 1-1V23c0-.55-.45-1-1-1m-31 21c0 1.1.9 2 2 2H26V32H13.5v11zM31 36.481c1.279-.93 2.832-1.48 4.464-1.48 2.067 0 3.637 1.008 4.9 1.838H43.5V32H31v4.481z"/></symbol><symbol id="ps-icon_symbols_global" viewBox="0 0 64 64"><path fill-rule="evenodd" d="M32 11.524c11.291 0 20.475 9.185 20.475 20.476 0 11.29-9.184 20.477-20.474 20.477-11.29 0-20.476-9.186-20.476-20.477S20.71 11.524 32 11.524zm0 2.302c-1.084 0-2.142.114-3.174.297l5.556 2.913s.482.226.367.62c-.111.397-.61 1.169-.61 1.169s-.123.47-.885.497c-.761.028-1.253 0-1.253 0-.082.003-.588.04-.53.56.096.833.18 1.617.18 1.62l.652 1.465s.364.642-.302 1.318c-.284.288-1.255 1.172-2.276 2.092l-.41.369a580.95 580.95 0 0 1-1.668 1.492l-.144.13-.008.007-.175.156a1.147 1.147 0 0 0-.245.396c-.142.384-.424 1.965-.424 1.965s-.029.676-.819 1.579a232.55 232.55 0 0 1-2.777 3.049l.767 2.857c.376 1.41-1.12.033-1.12.033s-2.686-3.804-3.059-4.79l-.81-1.374s-.422-.97-.93-.246c-.508.725-.423 1.736-.423 1.736v.094c0 .047-.002.107-.007.17l-.008.076c-.053.382-.266.71-1.107-1.292-.352-.833-.574-2.57-.574-2.57s-.196-.988-.732-1.411a87.354 87.354 0 0 1-.807-.648A18.198 18.198 0 0 0 13.827 32c0 10.02 8.153 18.173 18.174 18.173 9.047 0 16.547-6.652 17.925-15.317-.895-1.303-3.034-4.77-3.126-5.097-.113-.396 0-2.016 0-2.016l.339-3.178-.96-3.904a18.283 18.283 0 0 0-2.578-2.634l-.632-.033c-.98-.05-1.901-.095-2.138-.101-.555-.014-.457.399-.457.399l.161.365s.194.383.025.553c-.34.339-.763-.014-.763-.014s-1.447-.938-2.048-1.444c-.602-.505-.183-1.362-.183-1.362l.39-1.54A18.045 18.045 0 0 0 32 13.826zm-.87 26.892s.833-.297 1.588.145c.76.441 3.391 1.742 3.391 1.742s.882.42.234 1.827c-.65 1.408-1.173 2.505-1.173 2.505s-.352 1.003-1.295.214a69.726 69.726 0 0 1-1.585-1.366s-.578-.708-1.762-.48a36.13 36.13 0 0 0-2.185.506l-.105.029-.037.01s-.73.341-1.373-.37c-.16-.178-.347-.39-.536-.607l-.226-.262c-.487-.565-.93-1.093-.93-1.093s-.842-.845.433-1.21zm.524-14.222c.238-.19.643-.142.586.259-.057.401-.869 1.41-.869 1.41-.326.332-1.664.793-1.99.829-.324.041-.036-.258.227-.508s1.808-1.8 2.046-1.99z"/></symbol><symbol id="ps-icon_symbols_good_confirmed" viewBox="0 0 64 64"><path fill-rule="evenodd" clip-rule="evenodd" d="M41.745 48.305H31.197c-4.722 0-7.55-.635-8.234-.81l-5.85.73a1.263 1.263 0 0 1-1.013-.312 1.286 1.286 0 0 1-.436-.967l.015-15.05a1.29 1.29 0 0 1 1.29-1.288h5.237l4.041-6.098c.872-1.12 1.606-4.391 2.092-6.556.225-1.001.414-1.842.591-2.447.278-.943 1.122-3.811 4.268-3.811a4.266 4.266 0 0 1 4.263 4.262l-.558 9.092h5.972a5.341 5.341 0 0 1 5.336 5.336c0 .038 0 .078-.005.116l-1.123 12.485c-.036 2.937-2.417 5.318-5.338 5.318"/></symbol><symbol id="ps-icon_symbols_grief-report" viewBox="0 0 64 64"><path fill-rule="evenodd" d="M26.481 43.134c2.452-2.204 8.566-2.251 10.728-.092a2.523 2.523 0 0 0 3.557 0 2.519 2.519 0 0 0 0-3.552c-4.006-4.003-13.24-4.055-17.642-.091a2.52 2.52 0 0 0-.193 3.548 2.515 2.515 0 0 0 3.55.187zm11.034-17.349a3.103 3.103 0 1 0 6.206 0 3.102 3.102 0 0 0-3.096-3.099 3.106 3.106 0 0 0-3.11 3.099zm-17.53 0a3.102 3.102 0 0 0 3.1 3.101 3.104 3.104 0 0 0 3.101-3.101 3.1 3.1 0 0 0-6.201 0zm31.788 16.898c0 5.017-4.072 9.091-9.091 9.091H21.093C16.071 51.774 12 47.7 12 42.683V21.091C12 16.073 16.071 12 21.093 12h21.589c5.019 0 9.091 4.073 9.091 9.091v21.592z"/></symbol><symbol id="ps-icon_symbols_headset" viewBox="0 0 64 64"><path d="M50.193 37.854a6.347 6.347 0 0 0 3.754-5.795v-2.083a6.365 6.365 0 0 0-4.027-5.91C48.903 14.9 41.14 7.972 31.916 8c-9.224.029-16.943 7.004-17.904 16.177A6.34 6.34 0 0 0 10 30.078v2.083a6.347 6.347 0 0 0 6.347 6.347h.774a2.608 2.608 0 0 0 2.607-2.606v-9.847c0-6.763 5.482-12.245 12.245-12.245 6.762 0 12.244 5.482 12.244 12.245v10.46l-7.75 11.264a4.843 4.843 0 1 0 .342 6.367l13.384-16.292z"/></symbol><symbol id="ps-icon_symbols_hint" viewBox="0 0 64 64"><path fill-rule="evenodd" d="M39.36 49.22v.498a2.402 2.402 0 0 1-2.401 2.401h-9.922a2.402 2.402 0 0 1-2.403-2.4v-.5H39.36zm.001-5.619v2.724H24.634v-2.724h14.727zM32 11.881c8.434 0 15.271 6.836 15.271 15.268 0 4.602-2.899 10.207-7.25 13.558l-16.04.006c-4.354-3.352-7.252-8.96-7.252-13.564 0-8.432 6.837-15.269 15.271-15.269z"/></symbol><symbol id="ps-icon_symbols_home" viewBox="0 0 64 64"><path fill-rule="evenodd" d="M51 32.5c0-.531-.211-1.04-.586-1.415l-16.5-16.5a2.001 2.001 0 0 0-2.828 0l-16.5 16.5A2.001 2.001 0 0 0 14 32.5v17.671h12.5v-9.5c0-3.299 2.7-6 6-6s6 2.701 6 6v9.5H51V32.5z"/></symbol><symbol id="ps-icon_symbols_language" viewBox="0 0 64 64"><path fill-rule="evenodd" d="M30.222 39.456h6.032l-3.003-8.97-3.029 8.97zm8.879 8.502l-1.859-5.057h-8.008l-1.807 5.057h-4.511l7.488-20.787h5.824l7.449 20.787h-4.576zm6.656-25.454H23.423a3.076 3.076 0 0 1-3.068-3.081 3.074 3.074 0 0 1 3.068-3.068h19.734L41.324 12H23.423C19.341 12 16 15.341 16 19.423v25.48a7.428 7.428 0 0 0 7.423 7.423h22.308a2.177 2.177 0 0 0 2.183-2.171V27.6l-2.157-5.096z"/></symbol><symbol id="ps-icon_symbols_like" viewBox="0 0 64 64"><path fill-rule="evenodd" d="M22.81 49.443s2.961.852 8.469.852h10.918a4.727 4.727 0 0 0 4.723-4.722l1.17-13.027a4.727 4.727 0 0 0-4.723-4.723h-7.033l.628-10.212A3.612 3.612 0 0 0 33.35 14c-2.141 0-3.115 1.552-3.65 3.37-.631 2.154-1.519 7.799-2.878 9.536l-4.421 6.67h-6.384L16 50.295l6.81-.852z"/></symbol><symbol id="ps-icon_symbols_locked" viewBox="0 0 64 64"><path fill-rule="evenodd" d="M37.733 27.429H26.482v-4.015a5.628 5.628 0 0 1 5.625-5.624 5.628 5.628 0 0 1 5.626 5.624v4.015zM34.324 41.8v5.255h-4.43V41.8a4.696 4.696 0 0 1 2.213-8.836 4.7 4.7 0 0 1 4.706 4.694 4.706 4.706 0 0 1-2.489 4.142zm11.879-14.371h-2.792v-4.127C43.411 17.058 38.353 12 32.107 12c-6.235 0-11.303 5.058-11.303 11.302v4.127h-2.782A3.023 3.023 0 0 0 15 30.454v19.119a3.022 3.022 0 0 0 3.022 3.017h28.181a3.018 3.018 0 0 0 3.015-3.017V30.454a3.02 3.02 0 0 0-3.015-3.025z"/></symbol><symbol id="ps-icon_symbols_messages" viewBox="0 0 64 64"><path fill-rule="evenodd" d="M55.5 21v6c0 4.67-3.82 8.5-8.5 8.5h-2.5l-11 13v-13H31c-4.67 0-8.5-3.83-8.5-8.5v-6c0-4.67 3.83-8.5 8.5-8.5h16c4.68 0 8.5 3.83 8.5 8.5zm-35.72 8.5h-5.87c-2.97 0-5.41 2.43-5.41 5.41v3.18a5.42 5.42 0 0 0 5.41 5.41h1.84l6.37 9.5.13-9.5h1.84c2.87 0 5.24-2.27 5.39-5.11-4.8-.64-8.67-4.23-9.7-8.89z"/></symbol><symbol id="ps-icon_symbols_network" viewBox="0 0 64 64"><path fill-rule="evenodd" d="M37.202 48.309c1.354-2.101 2.653-4.786 3.491-8.098 1.89.325 3.76.767 5.601 1.318a16.56 16.56 0 0 1-9.092 6.78m-18.496-6.781a47.801 47.801 0 0 1 5.6-1.317c.838 3.31 2.137 5.997 3.492 8.098a16.553 16.553 0 0 1-9.092-6.781m9.092-24.836c-1.355 2.099-2.653 4.786-3.492 8.096a47.597 47.597 0 0 1-5.6-1.316 16.551 16.551 0 0 1 9.092-6.78m18.496 6.78a47.77 47.77 0 0 1-5.6 1.317c-.84-3.311-2.138-5.998-3.492-8.097a16.555 16.555 0 0 1 9.092 6.78m-9.597 1.83a48.616 48.616 0 0 1-8.394 0c1.016-3.708 2.694-6.45 4.197-8.31 1.503 1.86 3.181 4.602 4.197 8.31M16 32.5c0-1.89.335-3.698.922-5.39a51.947 51.947 0 0 0 6.657 1.62 33.001 33.001 0 0 0-.212 3.77c0 1.32.075 2.577.212 3.769a51.91 51.91 0 0 0-6.657 1.62A16.4 16.4 0 0 1 16 32.5m16.5 3c-1.658 0-3.308.087-4.947.244a28.532 28.532 0 0 1 0-6.485c1.64.155 3.29.242 4.947.242a52.55 52.55 0 0 0 4.947-.242c.116 1.027.186 2.103.186 3.242 0 1.14-.07 2.216-.186 3.243A52.215 52.215 0 0 0 32.5 35.5m-4.197 4.197a48.616 48.616 0 0 1 8.394 0c-1.016 3.71-2.694 6.45-4.197 8.312-1.503-1.862-3.18-4.603-4.197-8.312M49 32.5c0 1.89-.335 3.699-.922 5.39a51.988 51.988 0 0 0-6.657-1.62c.136-1.193.212-2.448.212-3.77 0-1.321-.076-2.576-.212-3.77a51.988 51.988 0 0 0 6.657-1.62A16.4 16.4 0 0 1 49 32.5M32.5 12C21.196 12 12 21.197 12 32.5 12 43.804 21.196 53 32.5 53S53 43.804 53 32.5C53 21.197 43.804 12 32.5 12"/></symbol><symbol id="ps-icon_symbols_notification" viewBox="0 0 64 64"><path fill-rule="evenodd" d="M36.5 48a4.5 4.5 0 0 1-9 0zm-4.505-36.5A3.008 3.008 0 0 1 35 14.495v1.913c4.896 1.321 8.503 5.78 8.503 11.092H43.5v5.48c0 2.253.896 4.416 2.489 6.009l3.304 3.304c.63.63.184 1.707-.707 1.707H15.414c-.891 0-1.337-1.077-.707-1.707l3.304-3.304A8.497 8.497 0 0 0 20.5 32.98V27.5c.003-5.311 3.607-9.768 8.5-11.09v-1.915a3.005 3.005 0 0 1 2.995-2.995z"/></symbol><symbol id="ps-icon_symbols_online-multiplay" viewBox="0 0 64 64"><path fill-rule="evenodd" d="M47.5 35.844c6.428 0 11.657 5.228 11.657 11.656 0 6.428-5.23 11.656-11.656 11.656-6.428 0-11.657-5.228-11.657-11.656 0-6.428 5.228-11.656 11.657-11.656zm4.697 16.15a15.476 15.476 0 0 1-1.759 4.17 9.206 9.206 0 0 0 4.643-3.535l-.02.016a26.41 26.41 0 0 0-2.864-.652zm-9.395 0a26.41 26.41 0 0 0-2.862.651l-.021-.016a9.206 9.206 0 0 0 4.643 3.535 15.476 15.476 0 0 1-1.76-4.17zm6.895-.33a27.098 27.098 0 0 0-4.395 0c.547 1.911 1.407 3.353 2.199 4.36.79-1.007 1.65-2.449 2.197-4.36zm-10.875-7.063a9.098 9.098 0 0 0-.479 2.9 9.1 9.1 0 0 0 .48 2.9 29.084 29.084 0 0 1 3.526-.873 18.711 18.711 0 0 1-.002-4.05 29.131 29.131 0 0 1-3.525-.877zm17.355 0c-1.16.36-2.334.665-3.524.876a18.711 18.711 0 0 1-.001 4.051c1.191.21 2.365.514 3.526.872a9.094 9.094 0 0 0 .479-2.9 9.098 9.098 0 0 0-.48-2.899zm-6.01 1.21c-.884.08-1.773.126-2.666.126a29.22 29.22 0 0 1-2.668-.127 15.93 15.93 0 0 0-.096 1.69c0 .596.038 1.156.096 1.697 1.775-.16 3.56-.16 5.334 0 .057-.54.096-1.1.096-1.697 0-.594-.038-1.15-.096-1.69zm-2.666-6.834c-.791 1.006-1.651 2.448-2.198 4.36 1.462.118 2.933.118 4.395 0-.547-1.912-1.407-3.354-2.197-4.36zM32 12.8c4.633 0 8.392 4.035 8.392 9.013 0 3.532-1.897 6.585-4.656 8.065l-.245.127V31.7c0 .068.018.218.052.319.21.612.974.786 1.452.867 1.686.283 3.095.74 4.267 1.37-3.58 1.694-6.376 4.784-7.653 8.574l-.118.369H18.265c0-6.014 2.594-9.28 8.74-10.313.479-.081 1.242-.255 1.452-.867.025-.076.042-.18.048-.255l.004-.064v-1.696c-2.891-1.428-4.9-4.556-4.9-8.192 0-4.978 3.758-9.012 8.39-9.013zm-14.24 7.122c1.046 0 2.03.273 2.903.75a12.407 12.407 0 0 0 2.877 9.152 6.936 6.936 0 0 1-.604 1.059c-4.989 1.917-7.565 5.916-7.668 11.938l-.004.379h-8.02c0-4.605 1.985-7.106 6.691-7.897.367-.063.951-.195 1.112-.664a.874.874 0 0 0 .038-.195l.002-.048v-1.3c-2.213-1.094-3.752-3.488-3.752-6.274 0-3.81 2.877-6.9 6.425-6.9zm26.802 18.914a9.206 9.206 0 0 0-4.643 3.535l.02-.017c.94.277 1.898.483 2.864.653a15.462 15.462 0 0 1 1.759-4.17zm5.877 0a15.462 15.462 0 0 1 1.758 4.171 26.18 26.18 0 0 0 2.863-.653l.021.017a9.206 9.206 0 0 0-4.643-3.535zm-4.2-18.914c3.548 0 6.426 3.09 6.426 6.9 0 2.674-1.426 4.975-3.497 6.123a14.82 14.82 0 0 0-1.668-.102c-.92 0-1.816.096-2.689.258-1.044-.914-2.289-1.658-3.747-2.219a6.962 6.962 0 0 1-.604-1.058 12.404 12.404 0 0 0 2.877-9.152 6.023 6.023 0 0 1 2.902-.75z"/></symbol><symbol id="ps-icon_symbols_online-play" viewBox="0 0 64 64"><path fill-rule="evenodd" d="M49.5 38.98c2.204 0 4.218 1.706 4.63 3.883.004.026.376 2.28.743 4.692l.084.558c.294 1.958.566 3.914.62 4.779.134 2.128-1.908 2.128-2.544 2.128-.831 0-2.173-.36-2.856-1.175-1.237-1.502-2.018-2.84-2.793-4.274h-8.768c-.774 1.435-1.555 2.772-2.792 4.274-.684.815-2.025 1.175-2.856 1.175-.637 0-2.68 0-2.544-2.128.054-.865.326-2.821.62-4.779l.084-.558c.366-2.412.737-4.666.742-4.692.413-2.177 2.426-3.882 4.629-3.882 1.476 0 2.738 1.045 4.027 1.844h4.949c.151-.094.303-.192.454-.29l.454-.298c.986-.645 1.989-1.256 3.118-1.256zM28 13.063c9.89 0 17.937 8.047 17.937 17.938 0 2.416-.486 4.718-1.356 6.824H41.41c-1.266-.832-2.838-1.844-4.91-1.844-1.869 0-3.634.722-5.005 1.91h-.003c.061-.197.125-.388.181-.594a42.693 42.693 0 0 0-7.345 0c.89 3.247 2.358 5.645 3.673 7.274.232-.287.47-.609.706-.944a365.355 365.355 0 0 0-.818 5.305c-9.838-.06-17.826-8.079-17.826-17.93 0-9.892 8.047-17.939 17.938-17.939zm-7.17 24.685a42.024 42.024 0 0 0-4.9 1.152 14.491 14.491 0 0 0 7.956 5.933c-1.185-1.837-2.322-4.188-3.056-7.085zm-6.46-11.463A14.335 14.335 0 0 0 13.561 31c0 1.653.293 3.236.807 4.716a45.261 45.261 0 0 1 5.826-1.41A28.743 28.743 0 0 1 20.008 31c0-1.157.066-2.254.186-3.298a45.443 45.443 0 0 1-5.825-1.418zm27.261 0a45.484 45.484 0 0 1-5.825 1.418c.12 1.044.186 2.141.186 3.298 0 1.16-.066 2.26-.187 3.306 1.968.34 3.914.812 5.825 1.41A14.34 14.34 0 0 0 42.437 31a14.36 14.36 0 0 0-.806-4.716zm-9.302 1.88a45.859 45.859 0 0 1-4.329.211c-1.45 0-2.895-.076-4.329-.212-.102.898-.163 1.84-.163 2.837 0 1.002.062 1.946.164 2.847a46.182 46.182 0 0 1 8.656 0c.102-.9.164-1.845.164-2.847 0-.997-.062-1.939-.163-2.837zM28 17.428c-1.315 1.63-2.783 4.028-3.673 7.274 2.443.212 4.902.212 7.345 0-.889-3.246-2.357-5.645-3.672-7.274zm-4.114-.26A14.48 14.48 0 0 0 15.93 23.1c1.611.482 3.248.868 4.9 1.153.734-2.898 1.871-5.249 3.056-7.085zm8.228 0c1.185 1.835 2.321 4.186 3.055 7.084A41.949 41.949 0 0 0 40.07 23.1a14.48 14.48 0 0 0-7.956-5.932z"/></symbol><symbol id="ps-icon_symbols_patch" viewBox="0 0 64 64"><path fill-rule="evenodd" d="M37.777 28.194a1.79 1.79 0 0 1 0-3.58c.988 0 1.793.8 1.793 1.788 0 .991-.805 1.792-1.793 1.792m0 5.315a1.794 1.794 0 0 1-1.792-1.792c0-.988.804-1.792 1.792-1.792s1.793.804 1.793 1.792-.805 1.792-1.793 1.792m0 5.312a1.792 1.792 0 1 1 0-3.583 1.792 1.792 0 0 1 0 3.583m-5.463-10.627c-.991 0-1.79-.801-1.79-1.792 0-.988.799-1.788 1.79-1.788a1.79 1.79 0 1 1 0 3.58m0 5.315a1.79 1.79 0 0 1-1.79-1.792 1.79 1.79 0 1 1 3.58 0c0 .988-.801 1.792-1.79 1.792m0 5.312c-.991 0-1.79-.801-1.79-1.789a1.79 1.79 0 1 1 1.79 1.789m-5.375-10.627a1.79 1.79 0 0 1 0-3.58 1.789 1.789 0 1 1 0 3.58m0 5.315c-.99 0-1.793-.804-1.793-1.792s.803-1.792 1.793-1.792a1.792 1.792 0 0 1 0 3.584m0 5.312a1.791 1.791 0 1 1-.004-3.582 1.791 1.791 0 0 1 .004 3.582m24.906-13.966A9.725 9.725 0 0 0 44.941 22l-25.186.024a9.73 9.73 0 0 0-6.896 2.868A9.724 9.724 0 0 0 10 31.796a9.74 9.74 0 0 0 2.869 6.898 9.724 9.724 0 0 0 6.905 2.855l25.187-.024a9.733 9.733 0 0 0 6.895-2.868 9.718 9.718 0 0 0 2.858-6.903 9.735 9.735 0 0 0-2.869-6.899"/></symbol><symbol id="ps-icon_symbols_pc" viewBox="0 0 64 64"><path d="M16.188 40.536h31.68a2.917 2.917 0 0 0 2.913-2.916V17.918A2.915 2.915 0 0 0 47.869 15H16.188a2.915 2.915 0 0 0-2.92 2.918V37.62a2.916 2.916 0 0 0 2.92 2.916zm2.33-20.263H45.53v14.941H18.518V20.273zm32.263 23.23H13.243L8 48.772h48l-5.22-5.27z"/></symbol><symbol id="ps-icon_symbols_person" viewBox="0 0 64 64"><path fill-rule="evenodd" d="M38.408 38.269c-.614-.104-1.594-.327-1.863-1.111a1.564 1.564 0 0 1-.066-.41v-2.175c3.708-1.832 6.286-5.844 6.286-10.511 0-6.385-4.82-11.561-10.765-11.562-5.944 0-10.766 5.177-10.766 11.562 0 4.667 2.58 8.679 6.287 10.51v2.177c0 .086-.023.279-.066.409-.27.784-1.25 1.007-1.863 1.11-7.886 1.327-11.214 5.517-11.214 13.232h35.243c0-7.715-3.327-11.905-11.213-13.231"/></symbol><symbol id="ps-icon_symbols_pin" viewBox="0 0 64 64"><path fill-rule="evenodd" d="M42.359 38.35l9.11 13.12-13.117-9.113a27.849 27.849 0 0 0 2.107-1.893 27.809 27.809 0 0 0 1.9-2.114zM16.937 16.938c4.01-4.009 8.948-5.567 11.033-3.484 1.398 1.397 1.153 4.075-.36 6.893l5.85 4.404c3.497-1.912 6.833-2.236 8.563-.506 2.555 2.553.644 8.603-4.266 13.513-4.909 4.91-10.959 6.818-13.514 4.266-1.73-1.73-1.405-5.067.51-8.564l-4.407-5.852c-2.818 1.515-5.494 1.76-6.89.362-2.085-2.083-.526-7.024 3.481-11.032z"/></symbol><symbol id="ps-icon_symbols_rating" viewBox="0 0 64 64"><path fill-rule="evenodd" d="M32.001 41.862l9.619 6.954.29.21a1.15 1.15 0 0 0 1.192-.096c.362-.263.513-.699.453-1.113l-.108-.323-3.72-11.285h.013l9.614-6.96.291-.212c.29-.302.421-.738.282-1.162a1.155 1.155 0 0 0-.915-.779h-.342l-11.883.002v.015L33.131 15.82l-.112-.342a1.157 1.157 0 0 0-1.018-.627c-.447 0-.825.26-1.023.631l-.104.324-3.662 11.307v-.015l-11.884-.002h-.342c-.413.073-.777.35-.915.78a1.16 1.16 0 0 0 .282 1.161l.293.212 9.612 6.96h.014l-3.721 11.285-.108.323c-.06.414.088.85.454 1.113.36.264.817.28 1.192.095l.29-.209 9.622-6.954"/></symbol><symbol id="ps-icon_symbols_return" viewBox="0 0 64 64"><path d="M54.15 12h-7.83a1.841 1.841 0 0 0-1.831 1.749v.147a.033.033 0 0 1-.007.018V27.45a4.635 4.635 0 0 1-4.916 4.904H27.792v-7.532a1.393 1.393 0 0 0-1.384-1.347 1.374 1.374 0 0 0-.84.31L8.371 37.09a1.372 1.372 0 0 0 .027 1.906l17.125 13.25a1.365 1.365 0 0 0 2.268-.981v-7.378h13.353C50.206 43.887 56 38.24 56 29.179v-15.33A1.85 1.85 0 0 0 54.15 12z"/></symbol><symbol id="ps-icon_symbols_settings" viewBox="0 0 64 64"><path fill-rule="evenodd" d="M32 40.39a8.391 8.391 0 1 1 0-16.782 8.391 8.391 0 0 1 0 16.783m20.52-11.73l-4.854-.945a16.064 16.064 0 0 0-1.557-3.767l2.76-4.097c.307-.456.24-1.148-.148-1.537l-3.036-3.035c-.389-.39-1.08-.455-1.537-.15l-4.096 2.76a16.236 16.236 0 0 0-3.768-1.557l-.946-4.851c-.106-.54-.642-.982-1.192-.982h-4.292c-.55 0-1.086.442-1.192.982l-.947 4.85a16.229 16.229 0 0 0-3.767 1.558l-4.096-2.76c-.456-.305-1.148-.24-1.538.15l-3.035 3.035c-.388.389-.456 1.08-.148 1.537l2.76 4.097a16.15 16.15 0 0 0-1.558 3.767l-4.852.946c-.54.106-.98.642-.98 1.192v4.293c0 .55.44 1.086.98 1.19l4.852.948a16.167 16.167 0 0 0 1.557 3.767l-2.759 4.097c-.308.456-.24 1.147.148 1.537l3.035 3.035c.39.389 1.082.455 1.538.149l4.096-2.76a16.097 16.097 0 0 0 3.767 1.556l.947 4.853c.106.54.642.98 1.192.98h4.292c.55 0 1.086-.44 1.192-.98l.946-4.853a16.104 16.104 0 0 0 3.768-1.556l4.096 2.76c.456.306 1.148.24 1.537-.15l3.036-3.034c.388-.39.455-1.081.148-1.537l-2.76-4.097a16.082 16.082 0 0 0 1.557-3.767l4.853-.947c.54-.105.981-.641.981-1.191v-4.293c0-.55-.44-1.086-.98-1.192"/></symbol><symbol id="ps-icon_symbols_share-screen" viewBox="0 0 64 64"><path fill-rule="evenodd" d="M58.5 14.5v18c0 1.1-.9 2-2 2H47v3h5v3H37v-3h1.5c2.76 0 5-2.24 5-5V31H55V16H43.5v-1.5c0-.71-.15-1.39-.42-2H56.5c1.1 0 2 .9 2 2zm-9.21 30.41l-8.28.27c-.76.02-1.06.57-.65 1.22l1.25 2.01c-3.4 1.18-6.95 1.8-10.52 1.8-4.71 0-9.4-1.07-13.75-3.11h-.01c-.58-.28-1.28-.12-1.69.4-.47.61-.37 1.48.24 1.96 2.13 1.66 4.6 2.88 7.19 3.69 2.59.82 5.31 1.21 8.03 1.23 2.72-.02 5.44-.4 8.03-1.23 1.49-.47 2.93-1.08 4.3-1.83l1.32 2.13c.4.65 1.03.63 1.39-.05l3.91-7.31c.36-.67.03-1.2-.73-1.18h-.03zM40.5 14.5v18c0 1.1-.9 2-2 2H29v3h5v3H12v-3h5v-3H7.5c-1.1 0-2-.9-2-2v-18c0-1.1.9-2 2-2h31c1.1 0 2 .9 2 2zM37 16H9v15h28V16zm-2.5 2.5h-23v10h23v-10z"/></symbol><symbol id="ps-icon_symbols_shopping-cart" viewBox="0 0 64 64"><path fill-rule="evenodd" d="M27.99 22l.286 4h-6.93l-1.09-4h7.734zm21.448 4h-6.715l.287-4h7.428l-1 4zm-7.286 8l.285-4h6.001l-1 4h-5.286zm-9.715-8l-.285-4h6.695l-.285 4h-6.125zm5.84 4l-.287 4h-4.98l-.287-4h5.553zm-15.84 0h6.125l.285 4h-5.32l-1.09-4zM49 38a2 2 0 0 0 1.94-1.515l4-16A2 2 0 0 0 53 18H19.164l-.909-3.334a3.978 3.978 0 0 0-3.075-2.87l-3.788-.757a2 2 0 0 0-.785 3.922l3.788.758 5.59 20.494-.394 7.1a4.74 4.74 0 0 0-3.09 4.437 4.75 4.75 0 0 0 9.5 0c0-.257-.037-.504-.076-.75h17.15a4.753 4.753 0 0 0-.075.75 4.75 4.75 0 0 0 9.5 0c0-2.358-1.724-4.301-3.977-4.672A1.968 1.968 0 0 0 48 43H23.614l.278-5H49z"/></symbol><symbol id="ps-icon_symbols_system" viewBox="0 0 64 64"><path d="M15 40.968a2.29 2.29 0 0 0 1.142 1.978L30.094 51V33.565L15 24.853v16.115zm19.124-7.398V51l13.953-8.054a2.288 2.288 0 0 0 1.14-1.978V24.855L34.124 33.57zm-.875-20.262a2.27 2.27 0 0 0-2.283 0l-13.953 8.056c3.903 2.255 13.669 7.892 15.093 8.718 1.43-.826 11.199-6.463 15.103-8.718l-13.96-8.056z"/></symbol><symbol id="ps-icon_symbols_trash" viewBox="0 0 64 64"><path fill-rule="evenodd" d="M45.639 22.47l-2.294 26.452C43.178 50.67 41.733 52 39.994 52H23.115c-1.738 0-3.183-1.33-3.351-3.078L17.47 22.47h28.168zm-4.828 4.116h-3.036l-1.047 21.299h3.035l1.049-21.3zm-7.853 0H29.92v21.299h3.037v-21.3zm-7.623 0h-3.038l1.049 21.299h3.035l-1.047-21.3zM37.176 12c.167 0 .305.132.313.299l.14 2.981h9.479v4.146H16V15.28l9.477-.001.142-2.981a.315.315 0 0 1 .314-.299h11.244z"/></symbol><symbol id="ps-icon_symbols_trending" viewBox="0 0 64 64"><path fill-rule="evenodd" d="M36.823 50.26c-.582.84.294 1.884 1.232 1.482C43.595 49.37 47.5 43.888 47.5 37.5c0-8.56-10.5-26-21.5-27.5 6 15.5-9.5 18.94-9.5 27.5 0 5.836 3.226 10.917 7.992 13.56.871.483 1.85-.49 1.358-1.356a6.455 6.455 0 0 1-.839-3.192c0-3.584 4.396-10.884 9-11.512-1.01 6 3.977 7.928 3.977 11.512a6.552 6.552 0 0 1-1.165 3.749"/></symbol><symbol id="ps-icon_symbols_trophy" viewBox="0 0 64 64"><path fill-rule="evenodd" d="M41 11.5c.55 0 1 .45 1 1h8.5a2 2 0 0 1 2 2c0 10.855-8.145 20.141-18.241 21.364A3.82 3.82 0 0 0 34 37c-.24 4.334-.006 8.128 4.727 13.21.171.185.273.43.273.681v.609a1 1 0 0 1-1 1H26a1 1 0 0 1-1-1v-.609c0-.251.102-.496.273-.681C30.006 45.128 30.24 41.334 30 37a3.861 3.861 0 0 0-.258-1.136C19.645 34.64 11.5 25.355 11.5 14.5a2 2 0 0 1 2-2H22c0-.55.45-1 1-1h18zm-19 5h-6.37c.77 6.506 5.215 12.173 10.936 14.443-2.17-3-4.566-6.695-4.566-11.443v-3zm26.37 0H42v3c0 4.748-2.396 8.443-4.566 11.442 5.72-2.27 10.165-7.936 10.936-14.442z"/></symbol><symbol id="ps-icon_symbols_user" viewBox="0 0 64 64"><path fill-rule="evenodd" d="M37.308 37.1c-2.451 2.202-8.565 2.252-10.728.091a2.522 2.522 0 0 0-3.556 0 2.518 2.518 0 0 0 0 3.553c4.005 4.002 13.239 4.053 17.642.09a2.519 2.519 0 0 0 .192-3.547 2.513 2.513 0 0 0-3.55-.187zm.207-9.436a3.101 3.101 0 1 0 6.206.004 3.101 3.101 0 0 0-6.206-.004zm-17.531 0a3.1 3.1 0 1 0 6.201.005 3.1 3.1 0 0 0-6.201-.005zm31.788 15.017c0 5.019-4.072 9.093-9.091 9.093H21.092C16.071 51.774 12 47.7 12 42.681V21.093C12 16.074 16.071 12 21.092 12h21.589c5.019 0 9.091 4.074 9.091 9.093v21.588z"/></symbol></svg>