<svg xmlns="http://www.w3.org/2000/svg" width="0" height="0" style="position:absolute"><symbol id="ps-icon_ps5-features_120-fps" viewBox="0 0 64 64"><path fill-rule="evenodd" d="M57.971 16.478v-.153c0-.16-.055-.313-.09-.459v-.097a4.582 4.582 0 0 0-.174-.522c0-.041 0-.083-.049-.118a3.477 3.477 0 0 0-.187-.396.633.633 0 0 0-.063-.118 3.804 3.804 0 0 0-.285-.452.306.306 0 0 0-.056-.077 1.982 1.982 0 0 0-.173-.23l-.098-.11-.132-.14a3.4 3.4 0 0 0-.278-.27l-.132-.12a5.194 5.194 0 0 0-.438-.333 4.867 4.867 0 0 0-.904-.487 4.742 4.742 0 0 0-.626-.215l-.16-.042a1.39 1.39 0 0 1-.16-.042A5.563 5.563 0 0 0 52.944 12h-31.29a5.42 5.42 0 0 0-1.023.097l-.16.042-.167.042a5.118 5.118 0 0 0-1.48.674 6.621 6.621 0 0 0-.439.334l-.125.118a3.4 3.4 0 0 0-.278.271l-.132.14-.132.139a1.982 1.982 0 0 0-.174.229l-.063.077a7.158 7.158 0 0 0-.285.452l-.062.118a5.23 5.23 0 0 0-.181.396c-.056.14-.035.077-.056.118a6.9 6.9 0 0 0-.167.522v.097a4.464 4.464 0 0 0-.09.46v.152a5.19 5.19 0 0 0-.035.57v19.505a5.041 5.041 0 0 0 5.041 5.048h31.291a5.042 5.042 0 0 0 5.062-5.02V17.11a5.125 5.125 0 0 0-.028-.633zM55.51 36.553a2.559 2.559 0 0 1-2.566 2.552h-31.29a2.566 2.566 0 0 1-2.546-2.552v-19.47a2.44 2.44 0 0 1 0-.515v-.118l.042-.153c.02-.047.036-.096.049-.146l.062-.146.063-.139.076-.132.084-.132.09-.125c.035-.035.063-.077.098-.118l.104-.112.111-.104.118-.097.119-.098.118-.07.187-.11.119-.056.139-.056c.105-.043.215-.075.327-.097l.132-.035c.153-.03.31-.047.466-.049h31.29c.157.003.313.019.466.05l.132.034c.11.022.217.054.32.097l.146.056a.556.556 0 0 1 .111.055l.195.112.111.07.126.097.118.097.111.104.104.112c0 .041.063.083.098.118l.09.125.083.132.153.14.063.138c.022.048.04.096.056.146.019.048.035.097.048.146.02.05.035.1.042.153a.695.695 0 0 1 0 .118c.028.152.042.305.042.46V29.55l-.007 7.002zm-25.464-4.249h-2.781v-8.532l-1.968 1.043-.925-2.086 2.893-1.536h2.781v11.111zm10.006 0h-7.864v-2.162c3.734-3.102 4.909-4.367 4.909-5.563a1.39 1.39 0 0 0-1.523-1.39 5.347 5.347 0 0 0-2.559.771l-.813-1.94a7.273 7.273 0 0 1 3.65-.994c2.483 0 4.033 1.237 4.033 3.476 0 1.913-1.39 3.359-4.172 5.64h4.367l-.028 2.162zm10.152-5.472c0 3.623-1.55 5.66-4.443 5.66s-4.402-2.017-4.402-5.66c0-3.644 1.53-5.806 4.416-5.806s4.43 2.176 4.43 5.806zm-6.077 0c0 2.086.445 3.477 1.634 3.477 1.19 0 1.669-1.391 1.669-3.477s-.46-3.65-1.669-3.65c-1.21 0-1.62 1.557-1.62 3.65h-.014zm2.594 23.016a5.076 5.076 0 0 1-4.36 2.468H11.07a5.042 5.042 0 0 1-5.063-5.02v-19.47a5.25 5.25 0 0 1 0-.577v-.146c0-.16.056-.313.09-.459v-.097c.048-.177.106-.352.174-.522l.049-.125a3.88 3.88 0 0 1 .188-.39.633.633 0 0 1 .062-.118c.084-.157.18-.308.285-.452l.056-.083.174-.23.097-.104.132-.146c.09-.09.181-.18.278-.264l.132-.118c.14-.118.286-.23.432-.334l.264-.16v23.795a2.559 2.559 0 0 0 2.566 2.552H46.72zm5.396-5.563a5.055 5.055 0 0 1-4.353 2.476H16.473a5.042 5.042 0 0 1-5.062-5.02V22.228c.003-.191.017-.381.042-.57v-.154c0-.153.027-.306.083-.459v-.097c.047-.175.105-.347.174-.514l.048-.126c.056-.134.119-.266.188-.396l.063-.118a4.464 4.464 0 0 1 .34-.529l.181-.23.098-.103.132-.146c.083-.09.18-.181.271-.265l.132-.118c.14-.119.286-.23.438-.334l.264-.16v23.83a2.559 2.559 0 0 0 2.566 2.545h35.686z"/></symbol><symbol id="ps-icon_ps5-features_3d-audio" viewBox="0 0 64 64"><path fill-rule="evenodd" d="M56 39.357v2.999a5.997 5.997 0 0 1-6.018 6.004H49a2.001 2.001 0 0 1-1.995-2.002V34.494c0-8.009-6.492-14.501-14.5-14.501-8.01 0-14.502 6.492-14.502 14.501v11.864a2.001 2.001 0 0 1-2 2.002h-1.005A5.997 5.997 0 0 1 9 42.356v-2.999a5.99 5.99 0 0 1 5.055-5.915C14.055 23.257 22.31 15 32.497 15c10.185 0 18.442 8.257 18.442 18.442A5.983 5.983 0 0 1 56 39.357zm-31.509 3.955h1.223c1.455 0 2.766.321 2.766 1.571 0 1.12-.894 1.646-2.13 1.646a6.714 6.714 0 0 1-2.815-.683l-.56 1.776c1.096.5 2.286.756 3.49.751 2.384 0 4.338-1.052 4.338-3.456a2.643 2.643 0 0 0-2.227-2.67 2.623 2.623 0 0 0 1.953-2.644c0-2.11-1.81-3.005-3.893-3.005a8.04 8.04 0 0 0-3.36.683l.58 1.81a5.628 5.628 0 0 1 2.527-.622c1.073 0 1.81.465 1.81 1.428 0 1.181-1.106 1.55-2.452 1.55h-1.25v1.865zm8.415 4.863h3.887c3.743 0 5.765-2.226 5.765-5.765 0-3.538-2.002-5.662-5.765-5.662h-3.887v11.427zm2.336-9.562h1.216c2.61 0 3.764 1.537 3.764 3.825 0 2.288-1.168 3.866-3.75 3.866h-1.216l-.014-7.691z"/></symbol><symbol id="ps-icon_ps5-features_4k-disc" viewBox="0 0 64 64"><path fill-rule="evenodd" d="M32.554 7A24.5 24.5 0 1 0 57 31.5C57.007 17.984 46.063 7.019 32.548 7h.006zm-1.148 41.006h-1.162v2.223h-2.176v-2.223h-4.926v-2.108l4.054-6.33h3.048v6.688h1.162v1.75zm-3.19-16.513a4.338 4.338 0 1 1 4.338 4.345 4.345 4.345 0 0 1-4.337-4.345zm10.541 18.736l-3.581-5.304v5.304h-2.21V39.567h2.183v5l3.507-5h2.594l-3.79 5.149 4 5.513h-2.703zm-10.703-8.71v4.73h-2.912l2.912-4.73z"/></symbol><symbol id="ps-icon_ps5-features_4k-streaming" viewBox="0 0 64 64"><path fill-rule="evenodd" d="M58 18.91V41.9a5.91 5.91 0 0 1-5.91 5.91H29.866c.071-.639.109-1.281.112-1.925v-.982h22.11a3.011 3.011 0 0 0 3.003-3.003V18.91a3.003 3.003 0 0 0-3.003-2.994H15.537a3.003 3.003 0 0 0-3.003 2.995v8.57h-.983c-.643.005-1.285.042-1.925.113V18.91A5.91 5.91 0 0 1 15.537 13H52.09A5.91 5.91 0 0 1 58 18.91zM6 45.67h5.903v5.903H6V45.67zm11.542.215c0 .656-.111 1.307-.327 1.925h-2.492c.359-.577.55-1.244.55-1.925a3.722 3.722 0 0 0-3.722-3.722 3.658 3.658 0 0 0-1.925.551v-2.492a5.903 5.903 0 0 1 1.925-.327 6.007 6.007 0 0 1 5.991 5.99zm4.865 0c-.001.646-.06 1.29-.176 1.925h-2.316a8.467 8.467 0 0 0 .223-1.925 8.603 8.603 0 0 0-8.587-8.602 9.002 9.002 0 0 0-1.925.223v-2.292a10.84 10.84 0 0 1 12.78 10.671zm4.856 0c-.004.644-.05 1.287-.136 1.925h-2.284c.095-.637.146-1.28.152-1.925-.009-7.42-6.023-13.434-13.444-13.443-.644.006-1.287.057-1.925.152V30.3c.64-.079 1.282-.121 1.925-.127 8.672.013 15.7 7.04 15.712 15.711zm10.84-16.894h-1.598v-9.393h-4.297l-5.728 8.898v2.956h6.934v3.123h3.06v-3.123h1.597l.032-2.46zm14.146 5.592l-5.592-7.74 5.328-7.237h-3.658l-4.929 7.029v-7.03H40.3v14.97h3.06V27.13l5.08 7.445 3.81.008zM33.358 22.346h.056v6.645h-4.146l4.09-6.645z"/></symbol><symbol id="ps-icon_ps5-features_4k-tv-gaming" viewBox="0 0 64 64"><path fill-rule="evenodd" d="M30.482 29.327h-1.691v3.229h-3.166v-3.229h-7.152v-3.089l5.924-9.19h4.394v9.746h1.684l.007 2.533zm10.728 3.229l-5.244-7.724h-.047v7.724h-3.166V17.109h3.166v7.245h.047l5.097-7.26h3.769l-5.507 7.484 5.793 7.993-3.908-.015zm-19.85-5.762h4.271v-6.873h-.046l-4.225 6.873zm15.261 21.694a27.093 27.093 0 0 0 3.09 4.704 4.456 4.456 0 0 0 3.127 1.282c.703 0 2.95 0 2.804-2.317-.14-2.224-1.545-10.99-1.599-11.044a5.321 5.321 0 0 0-5.09-4.271c-1.629 0-3.02 1.15-4.432 2.023h-5.453c-1.421-.872-2.803-2.023-4.433-2.023a5.337 5.337 0 0 0-5.113 4.263c0 .054-1.436 8.82-1.544 11.052-.147 2.317 2.1 2.317 2.803 2.317a4.456 4.456 0 0 0 3.143-1.298 27.093 27.093 0 0 0 3.09-4.703l9.607.015zM57.954 14.6v-.193c0-.2-.062-.386-.108-.579a.58.58 0 0 1 0-.124 10.528 10.528 0 0 0-.209-.648l-.07-.155a5.757 5.757 0 0 0-.231-.494 1.437 1.437 0 0 1-.077-.155 5.406 5.406 0 0 0-.363-.563l-.07-.1-.224-.286-.123-.14-.163-.177-.347-.332-.162-.155a9.326 9.326 0 0 0-.549-.417 6.325 6.325 0 0 0-1.081-.579 6.758 6.758 0 0 0-.772-.27l-.201-.047-.2-.054A6.449 6.449 0 0 0 51.72 9H12.294c-.43 0-.86.044-1.282.131l-.208.054-.201.047c-.263.074-.52.164-.772.27a6.016 6.016 0 0 0-1.63.996l-.162.155a4.742 4.742 0 0 0-.348.332l-.17.177-.123.14c-.077.092-.147.193-.216.285a5.321 5.321 0 0 0-.432.664c-.03.05-.055.102-.078.155a5.757 5.757 0 0 0-.232.494l-.07.155a7.095 7.095 0 0 0-.216.648v.124c-.047.19-.084.384-.108.58a1.444 1.444 0 0 0 0 .192c0 .232-.046.471-.046.71v24.53a6.34 6.34 0 0 0 6.364 6.31h3.298c.17-1.105.34-2.194.486-3.09h-3.861a3.22 3.22 0 0 1-3.229-3.205V15.31c.001-.192.022-.384.062-.572v-.146l.054-.194c.017-.062.038-.124.062-.185.021-.061.047-.12.077-.178.021-.06.047-.12.077-.177a2.61 2.61 0 0 1 .1-.17c.032-.056.065-.11.101-.162l.116-.155.116-.146.131-.147.14-.131.154-.124.146-.116.147-.093a2.05 2.05 0 0 1 .24-.139l.146-.07.178-.069c.132-.05.266-.094.402-.13l.17-.04c.193-.033.39-.051.586-.054h39.389c.194.002.388.02.579.054l.17.04c.136.035.27.079.401.13.063.02.125.043.186.07l.139.07c.085.04.168.086.247.138l.139.093.154.116.147.124.14.13c.047.046.09.095.13.148.046.045.087.094.124.146l.116.155.1.162.093.17c.033.057.061.116.085.177 0 .055.054.116.077.178.022.06.04.123.054.185a1.8 1.8 0 0 1 .054.194.819.819 0 0 1 0 .146c.036.189.057.38.062.572v24.528a3.22 3.22 0 0 1-3.228 3.206h-4.155c.146.911.316 2 .478 3.089h3.7A6.333 6.333 0 0 0 58 39.823V15.31c0-.238-.015-.475-.046-.71z"/></symbol><symbol id="ps-icon_ps5-features_8k" viewBox="0 0 64 64"><path fill-rule="evenodd" d="M39.033 24.232a.508.508 0 0 1 .515.508v5.304s9.222-5.014 10.194-5.55c.282-.19.619-.28.958-.255h5.253c.943 0 1.16.19.26.675l-11.586 6.189c5.456 3.316 9.78 5.884 12.85 7.727.66.399.877.849-.443.849h-5.485c-1.118 0-1.132 0-1.698-.334-.82-.515-10.303-6.595-10.303-6.595v6.42a.508.508 0 0 1-.515.509H34.26a.508.508 0 0 1-.508-.508V24.74c0-.28.228-.508.508-.508h4.774zM13.255 37.19c1.176.044 2.33.044 4.266.044h2.177c1.937 0 3.09 0 4.266-.044 1.357-.043 1.676-.392 1.676-1.857 0-1.466-.24-2.228-2.401-2.228H13.98c-2.177 0-2.394.762-2.394 2.228 0 1.465.312 1.814 1.668 1.857m1.654-6.726h8.126c2.068 0 2.395-.63 2.395-2.067 0-1.437-.414-1.698-1.67-1.742-1.254-.043-2.22-.043-4.098-.043h-2.133c-1.88 0-2.902 0-4.092.043-1.19.044-1.67.29-1.67 1.734s.335 2.068 2.395 2.068h.726M9.236 24.16c1.45-.16 2.583-.16 9.352-.16s7.9 0 9.352.16c2.27.246 2.8 1.27 2.902 2.575 0 .465.036.66.036 1.096 0 .435 0 .682-.036 1.095-.109 1.988-1.154 2.264-3.069 2.844 1.618.494 3.28.93 3.388 2.982v1.22c0 .449 0 1.03-.05 1.32-.138 1.647-1.452 2.314-3.178 2.524-1.132.138-2.576.16-9.352.16-6.777 0-8.22 0-9.352-.16-1.72-.21-3.04-.877-3.178-2.524 0-.29-.051-.871-.051-1.32v-1.22c.109-2.053 1.77-2.488 3.388-2.982-1.915-.58-2.96-.856-3.069-2.844 0-.413-.036-.725-.036-1.095s0-.631.036-1.096c.08-1.306.602-2.329 2.902-2.575"/></symbol><symbol id="ps-icon_ps5-features_adaptive-triggers" viewBox="0 0 64 64"><path fill-rule="evenodd" d="M45.804 28.517c-.048.893-.887 1.595-1.904 1.595h-1.135c-1.018 0-1.857-.702-1.905-1.595l-.13-2.397c-.051-.955.816-1.753 1.905-1.753h1.394c1.089 0 1.956.798 1.905 1.753l-.13 2.397zm-23.202 0c-.048.893-.886 1.595-1.905 1.595h-1.135c-1.017 0-1.856-.702-1.904-1.595l-.13-2.397c-.051-.955.816-1.753 1.905-1.753h1.395c1.088 0 1.956.798 1.904 1.753l-.13 2.397zm26.945-1.424a9.968 9.968 0 0 0-1.358-2.161c-.78-.937-1.895-1.888-3.44-2.39a7.586 7.586 0 0 0-2.353-.36c-1.837 0-3.466 1.014-5.094 2.066 0 0-2.728-.19-5.292-.19-2.558 0-5.312.19-5.312.19-1.628-1.052-3.257-2.066-5.094-2.066-.876 0-1.657.136-2.352.36-1.546.502-2.662 1.453-3.441 2.39a9.934 9.934 0 0 0-1.358 2.16c-.913 1.976-2.917 6.266-3.882 13.44-.34 2.572-.783 8.618 2.02 10.496.89.597 5.264 1.146 5.661.92 1.099-.62 2.216-5.633 3.845-8.263v-.018c.369-.628.602-.992 1.211-1.353.628-.371 1.61-.3 3.314-.3h10.756c1.704 0 2.686-.071 3.314.3.609.36.842.725 1.211 1.353v.018c1.629 2.63 2.746 7.644 3.845 8.263.397.226 4.772-.323 5.662-.92 2.802-1.878 2.36-7.924 2.02-10.496-.966-7.174-2.97-11.464-3.883-13.44zM47.8 11l-1.863 2.64a15.26 15.26 0 0 1 10.201 7.084L58 18.084A18.274 18.274 0 0 0 47.8 11zm-3.445 4.882l-1.864 2.64a15.256 15.256 0 0 1 10.2 7.083l1.864-2.64a18.272 18.272 0 0 0-10.2-7.083zM21.51 18.614l-1.863-2.64a18.276 18.276 0 0 0-10.2 7.084l1.862 2.64a15.256 15.256 0 0 1 10.201-7.084zm-3.446-4.882l-1.863-2.64A18.276 18.276 0 0 0 6 18.178l1.864 2.64a15.258 15.258 0 0 1 10.2-7.085z"/></symbol><symbol id="ps-icon_ps5-features_breathtaking-immersion" viewBox="0 0 64 64"><path fill-rule="evenodd" d="M22.392 27.093a9.532 9.532 0 0 0 1.102 4.236c-2.383-.077-4.36-.697-5.737-1.853l.524-1.12c.5-1.066 1.948-2.716 4.552-4.462v.101a9.759 9.759 0 0 0-.453 2.878c0 .054.006.137.012.22zm23.092 8.937c-5.058-2.133-8.537-1.501-9.014-1.412h-.06c1.064.223 2.092.59 3.057 1.09l.089.054c.274.149.536.304.786.47.054.036.102.084.161.12.191.137.376.268.548.417a7.87 7.87 0 0 1 1.358 1.49l.108.154c.147.22.282.446.405.68l.042.065a10.557 10.557 0 0 0 2.526-3.134l-.006.006zm2.091 1.108a2.12 2.12 0 0 0-.5-.506 12.511 12.511 0 0 1-3.396 4.17l-.06.054c-.357.298-.733.595-1.126.905l-.065.048a31.016 31.016 0 0 1-2.604 1.787 34.5 34.5 0 0 1-1.966 1.12l-.596.298a34.226 34.226 0 0 1-3.104 1.394 25.243 25.243 0 0 1-6.243 1.644l-.465-1.656-.334-1.191-1.525 1.191-7.483 5.958L30.024 56l-.793-3.044c2.687-.46 6.149-1.883 9.61-4.117a35.329 35.329 0 0 0 3.319-2.419c.232-.19.446-.381.667-.596 3.89-3.378 5.94-6.88 4.748-8.686zm-6.935 1.615l-.053-.054c-.108-.12-.233-.232-.352-.346-.119-.113-.167-.178-.268-.262a9.729 9.729 0 0 0-4.766-1.984c-.4-.06-1.03-.208-1.192-.72 0-.036 0-.084-.03-.132a.763.763 0 0 1 0-.107v-1.43a6.649 6.649 0 0 0 1.192-.762 7.638 7.638 0 0 0 2.89-5.886v-.173a7.745 7.745 0 0 0-.131-1.353c0-.089 0-.184-.042-.274-.042-.089-.03-.113-.042-.172a7.745 7.745 0 0 0-1.191-2.753 7.388 7.388 0 0 0-.99-1.156 6.75 6.75 0 0 0-3.234-1.727c-.525.149-1.049.303-1.591.488-.786.262-1.59.596-2.383.912l-.173.071-.643.28c-.697.322-1.382.673-2.056 1.037a7.745 7.745 0 0 0-1.191 2.556c-.03.101-.06.196-.084.298-.023.1 0 .1 0 .149 0 .047 0 .148-.035.22-.122.458-.2.927-.233 1.4v.173a7.745 7.745 0 0 0 1.698 4.712 7.15 7.15 0 0 0 2.383 1.954v1.412a.733.733 0 0 1-.035.215.75.75 0 0 1-.072.173 1.346 1.346 0 0 1-1.007.595 10.408 10.408 0 0 0-4.32 1.657 9.48 9.48 0 0 0-.464.351c-1.763 1.436-2.651 3.593-2.651 6.59h5.416l3.062-2.431.679 2.43h5.141a37.562 37.562 0 0 0 2.664-1.191 31.659 31.659 0 0 0 5.081-3.194 6.184 6.184 0 0 0-.977-1.566zM34.593 9l.662 3.074c-2.705.346-6.226 1.627-9.777 3.718-6.5 3.842-10.616 8.9-9.199 11.32.127.201.288.379.477.524.924-1.955 3.497-4.308 6.988-6.351l.626-.34a33.38 33.38 0 0 1 2.484-1.263l.858-.375c.852-.358 1.692-.68 2.514-.96.695-.23 1.375-.428 2.038-.595a24.102 24.102 0 0 1 2.27-.495 17.504 17.504 0 0 1 1.817-.22l.37 1.573.309 1.328.596-.435 8.758-6.333L34.594 9z"/></symbol><symbol id="ps-icon_ps5-features_create-and-share" viewBox="0 0 64 64"><path fill-rule="evenodd" d="M34.964 42.108h-4.963V17h4.963v25.108zM12.202 26.91L8 29.31l9.77 16.87 4.202-2.408-9.77-16.862zm30.782 16.862l4.202 2.407L57 29.31l-4.202-2.399-9.814 16.862z"/></symbol><symbol id="ps-icon_ps5-features_game-boost" viewBox="0 0 64 64"><path fill-rule="evenodd" d="M57.928 18.632v-.192c0-.2-.064-.39-.111-.582a.662.662 0 0 0 0-.12 5.687 5.687 0 0 0-.232-.622 1.332 1.332 0 0 1-.064-.16 4.809 4.809 0 0 0-.239-.502l-.104-.136a7.981 7.981 0 0 0-.359-.574l-.031-.144-.224-.287-.12-.135-.167-.184-.35-.335-.16-.151a7.09 7.09 0 0 0-.55-.415 6.74 6.74 0 0 0-1.086-.582c-.259-.11-.525-.2-.797-.272l-.2-.048-.231-.063A6.804 6.804 0 0 0 51.619 13H12.326a6.804 6.804 0 0 0-1.285.128l-.207.055-.2.048a6.014 6.014 0 0 0-.797.272 6.74 6.74 0 0 0-1.085.582 7.09 7.09 0 0 0-.55.415l-.168.151-.343.335-.167.184-.12.135-.223.287-.072.104a7.981 7.981 0 0 0-.36.574c-.023.05-.05.098-.079.144-.08.168-.16.335-.231.503-.018.054-.04.107-.064.16a7.85 7.85 0 0 0-.215.653v.12c-.048.191-.08.383-.112.582v.192c-.032.24-.048.483-.048.725v24.728a6.381 6.381 0 0 0 6.381 6.382H51.62A6.381 6.381 0 0 0 58 44.077V19.35a7.235 7.235 0 0 0-.072-.717zm-3.087 25.421a3.19 3.19 0 0 1-3.19 3.19H29.364l5.583-9.619a.415.415 0 0 0-.654-.503l-10.05 9.868a.43.43 0 0 0-.112.287h-6.318l23.54-20.23.207.312 1.667 2.52a1.109 1.109 0 0 0 1.907-.095l4.395-8.352a1.109 1.109 0 0 0-1.077-1.595l-9.389.83a1.109 1.109 0 0 0-.797 1.715l1.643 2.472L9.095 40.344v-3.613l19.886-8.368a.457.457 0 1 0-.255-.877L9.095 31.283V19.357c0-.195.022-.39.064-.582v-.143c0-.072.04-.136.056-.2s.04-.12.055-.183c.016-.064.056-.12.08-.184.023-.06.05-.118.08-.175l.096-.168c.031-.057.066-.113.103-.167l.112-.16.128-.143.127-.144c.048-.048.088-.096.136-.136l.151-.127a1.06 1.06 0 0 1 .152-.112 1.5 1.5 0 0 1 .144-.096l.239-.143.143-.072.184-.072c.13-.048.263-.088.399-.12l.167-.04c.195-.034.393-.053.59-.055H51.62c.198.002.395.02.59.056l.167.04c.143.02.284.049.423.087l.184.072.143.072.24.143.143.096.152.112.151.127c.048 0 .088.088.136.136l.127.144.128.143c.035.055.072.109.112.16l.103.167.096.168.08.175c.027.06.051.121.072.184 0 .064.048.127.064.183.016.056 0 .128.055.2v.143c.036.192.054.387.056.583v24.727z"/></symbol><symbol id="ps-icon_ps5-features_haptic-feedback" viewBox="0 0 64 64"><path fill-rule="evenodd" d="M55.726 36.054a48 48 0 0 0-4.202-14.688C50.908 19.997 48.786 16 43.776 16c-1.992 0-3.758 1.109-5.524 2.259 0 0-2.956-.212-5.742-.212s-5.756.212-5.756.212C24.988 17.109 23.222 16 21.23 16c-4.976 0-7.132 4.018-7.748 5.366a48 48 0 0 0-4.21 14.688c-.369 2.813-.848 9.418 2.191 11.472.965.684 5.708 1.252 6.16 1.006 1.184-.685 2.396-6.16 4.162-9.028a3.463 3.463 0 0 1 1.314-1.478c.684-.411 1.745-.329 3.593-.329h11.636c1.848 0 2.909-.082 3.593.329.572.354 1.03.868 1.314 1.478 1.76 2.875 2.97 8.35 4.162 9.028.43.246 5.174-.35 6.16-1.006 3.018-2.054 2.539-8.659 2.17-11.472zm-34.222-9.09h-2.218a.685.685 0 0 1 0-1.313h2.19a.897.897 0 0 0 .685-.301l1.369-1.493a2.6 2.6 0 0 1 3.607-.219l1.184 1c.374.314.92.314 1.294 0l1.505-1.225a2.587 2.587 0 0 1 3.279 0l1.567 1.245c.37.312.91.312 1.28 0l1.273-1.02a2.587 2.587 0 0 1 3.607.24l1.37 1.478c.174.193.424.3.684.295h2.368a.684.684 0 0 1 0 1.314h-2.396a2.129 2.129 0 0 1-1.553-.685l-1.37-1.478a1.403 1.403 0 0 0-1.957-.13l-1.211 1.013a2.19 2.19 0 0 1-2.8 0l-1.567-1.253a1.41 1.41 0 0 0-1.78 0l-1.505 1.226a2.183 2.183 0 0 1-2.82 0l-1.184-1a1.41 1.41 0 0 0-1.958.123l-1.369 1.493c-.41.444-.99.694-1.595.69h.02zm25.804 5.716a.862.862 0 0 1-.233.623.794.794 0 0 1-.589.267h-.972a2.34 2.34 0 0 1-1.71-.753l-1.746-1.814a1.417 1.417 0 0 0-1.971-.137l-1.37 1.13a2.574 2.574 0 0 1-3.291.034l-1.739-1.37a1.41 1.41 0 0 0-1.793 0l-1.677 1.37a2.567 2.567 0 0 1-3.313 0l-1.307-1.164a1.424 1.424 0 0 0-1.971.123L21.92 32.81a2.382 2.382 0 0 1-1.697.794h-.87a.856.856 0 0 1-.841-.876.87.87 0 0 1 .842-.924h.869a.732.732 0 0 0 .5-.253l1.704-1.814a3.025 3.025 0 0 1 4.216-.24l1.314 1.11a.965.965 0 0 0 1.253 0l1.677-1.37a3.032 3.032 0 0 1 3.826 0l1.738 1.37a.972.972 0 0 0 1.246 0l1.369-1.13a3.025 3.025 0 0 1 4.202.28l1.705 1.828a.684.684 0 0 0 .513.226h.979a.855.855 0 0 1 .821.869h.02z"/></symbol><symbol id="ps-icon_ps5-features_hdr" viewBox="0 0 64 64"><path fill-rule="evenodd" d="M49.703 32.716h-2.248l5.173 5.392H49.36l-6.258-6.668h5.715a.362.362 0 0 0 .353-.352v-3.506a.362.362 0 0 0-.353-.352H42.55a.352.352 0 0 0-.343.352V38.06h-2.782V27.763a1.82 1.82 0 0 1 1.81-1.81h8.897a1.82 1.82 0 0 1 1.81 1.81v3.134a1.81 1.81 0 0 1-1.81 1.82h-.429m-28.71-6.754v5.096h-6.03v-5.096h-2.686v12.145h2.715v-5.353h6.03v5.353h2.686V25.963h-2.715zm11.107 0c2.686 0 5.525 1.276 5.525 4.267v3.477c0 3-2.791 4.41-5.24 4.41H25.89V25.953h6.21m2.772 4.182c0-1.905-1.905-2.858-3.81-2.858H28.68v9.526h2.391c2.096 0 3.81-.953 3.81-3.153l-.009-3.515zM58 21H6v22.07h52V21zm-51.552.476h51.104v21.118H6.476l-.028-21.118z"/></symbol><symbol id="ps-icon_ps5-features_integrated-io" viewBox="0 0 64 64"><path fill-rule="evenodd" d="M44.483 8l.154.007a1.557 1.557 0 0 1 1.41 1.55v3.555a8.03 8.03 0 0 1 5.987 5.726h3.294a1.564 1.564 0 1 1 0 3.12h-2.994v4.873h2.994a1.564 1.564 0 0 1 0 3.128h-2.994v4.873h2.994c.862.004 1.56.702 1.564 1.564l-.007.142a1.572 1.572 0 0 1-1.557 1.422h-2.994v4.865h2.994a1.572 1.572 0 0 1 1.564 1.572l-.007.142a1.572 1.572 0 0 1-1.557 1.422h-3.219a8.023 8.023 0 0 1-6.062 6.04v3.233a1.557 1.557 0 0 1-1.542 1.595l-.142-.007a1.557 1.557 0 0 1-1.415-1.55v-2.994h-4.88v2.994a1.564 1.564 0 0 1-3.12 0v-2.994h-4.88v2.994a1.564 1.564 0 0 1-3.121 0v-2.994h-4.88v2.994a1.564 1.564 0 0 1-3.121 0v-3.33a8.023 8.023 0 0 1-5.696-5.988H9.657a1.572 1.572 0 0 1-1.564-1.565l.007-.142a1.572 1.572 0 0 1 1.557-1.422h3.376v-4.827H9.657a1.572 1.572 0 0 1-1.564-1.565l.007-.142a1.572 1.572 0 0 1 1.557-1.422h3.376v-4.872H9.657a1.564 1.564 0 1 1 0-3.129h3.39v-4.872H9.673a1.564 1.564 0 1 1 0-3.121h3.645a8.016 8.016 0 0 1 5.614-5.673.86.86 0 0 1 0-.195v-3.45a1.564 1.564 0 0 1 3.12 0v3.33h4.88v-3.33a1.564 1.564 0 0 1 3.122 0v3.33h4.88v-3.33a1.564 1.564 0 0 1 3.12 0v3.33h4.873v-3.33c0-.86.697-1.557 1.557-1.557zM39.19 25.963c-3.892 0-5.987 2.717-5.987 6.451 0 3.735 2.133 6.415 5.987 6.415 3.862 0 5.988-2.665 5.988-6.415s-2.096-6.451-5.988-6.451zm-6.496.21h-1.497l-.532 1.451-.464 1.273-3.54 9.73h1.497l3.54-9.73.464-1.273.532-1.452zm-7.605 0h-3.038v12.446h3.038V26.172zm14.101 2.215c2.058 0 3.001 1.81 3.001 4.026 0 2.216-.86 3.997-2.934 3.997-2.073 0-2.993-1.744-2.993-3.997 0-2.252.89-4.026 2.926-4.026z"/></symbol><symbol id="ps-icon_ps5-features_lightning-speed" viewBox="0 0 64 64"><path d="M35.125 16.438l-1.25 2.5H13.25l-1.688-2.5h23.563zM18.187 26.25l1.688 2.5h9l1.25-2.5H18.187zm-3.312-4.875l1.563 2.375h14.937l1.188-2.375H14.875zm37.5 7c-.125-.313-.375-.438-.75-.438l-9.313.125h-.624l.312-.5 9.063-13.312c.187-.25.187-.5.062-.75a.656.656 0 0 0-.563-.313H40.5c-.688 0-1.313.376-1.625 1l-1.438 2.876-1 2-1.25 2.437L34 23.75l-1.25 2.5-1.25 2.5-2.125 4.188c-.313.624-.313 1.312.063 1.874.312.5.875.813 1.5.813l6.875-.063h.5l-.25.438-10.376 19.438v.062c0 .063-.062.125-.062.188 0 .312.25.562.563.562.187 0 .312-.063.437-.25l23.563-26.625c.312-.375.312-.75.187-1z"/></symbol><symbol id="ps-icon_ps5-features_media-remote" viewBox="0 0 64 64"><path fill-rule="evenodd" d="M40.646 11.315a5.388 5.388 0 0 0-5.314-5.284c-1.637-.037-4.942-.045-6.572 0a5.396 5.396 0 0 0-5.306 5.284C23.305 20.804 23 39.484 23 48.95a9.05 9.05 0 0 0 18.1 0c0-9.474-.313-28.117-.454-37.635zm-10.204 6.84a1.608 1.608 0 0 1 3.215 0v1.428a1.608 1.608 0 0 1-3.215 0v-1.429zm-3.386 3.378h1.429a1.608 1.608 0 0 1 0 3.215h-1.429a1.608 1.608 0 0 1 0-3.215zm2.53 24.708h-2.53a1.608 1.608 0 1 1 0-3.215h2.53a1.608 1.608 0 0 1 0 3.215zm0-4.927h-2.53a1.608 1.608 0 1 1 0-3.215h2.53a1.608 1.608 0 0 1 0 3.215zm.856-13.187v-1.43a1.608 1.608 0 0 1 3.215 0v1.43a1.608 1.608 0 0 1-3.215 0zm6.594 18.114h-2.538a1.608 1.608 0 1 1 0-3.215h2.538a1.608 1.608 0 0 1 0 3.215zm0-4.927h-2.538a1.608 1.608 0 1 1 0-3.215h2.538a1.608 1.608 0 0 1 0 3.215zm0-16.566h-1.429a1.608 1.608 0 0 1 0-3.215h1.43a1.608 1.608 0 0 1 0 3.215z"/></symbol><symbol id="ps-icon_ps5-features_ps-sr" viewBox="0 0 64 64"><path d="M30 44.7l-9 5.2-9-5.2 9-5.2 9 5.2zm4 0l9 5.2 9-5.2-9-5.2-9 5.2zm-11 6.35l9 5.2 9-5.2-9-5.2-9 5.2zM19 32l-3.5-2.02L12 32l3.5 2.02L19 32zm11 6.35l-3.5-2.02-3.5 2.02 3.5 2.02 3.5-2.02zM23 32l3.5 2.02L30 32l-3.5-2.02L23 32zm-2 5.2l3.5-2.02-3.5-2.02-3.5 2.02L21 37.2zm-3.5-8.38l3.5 2.02 3.5-2.02L21 26.8l-3.5 2.02zm31 5.2L52 32l-3.5-2.02L45 32l3.5 2.02zm-11 6.35l3.5-2.02-3.5-2.02-3.5 2.02 3.5 2.02zm0-10.39L34 32l3.5 2.02L41 32l-3.5-2.02zm9 5.2L43 33.16l-3.5 2.02L43 37.2l3.5-2.02zM43 26.8l-3.5 2.02 3.5 2.02 3.5-2.02L43 26.8zm-7.5 14.73L32 39.51l-3.5 2.02 3.5 2.02 3.5-2.02zm0-6.35L32 33.16l-3.5 2.02L32 37.2l3.5-2.02zM32 30.84l20-11.55L32 7.74 12 19.29l20 11.55z"/></symbol><symbol id="ps-icon_ps5-features_ps5-accessories" viewBox="0 0 64 64"><path fill-rule="evenodd" d="M18.04 18.834a3.075 3.075 0 0 0-3.018-3.027h-3.74a3.083 3.083 0 0 0-3.026 3.027c-.082 5.395-.252 16.023-.252 21.402a5.152 5.152 0 1 0 10.296 0c0-5.403-.179-16.007-.26-21.402zm-5.833 3.91a.917.917 0 0 1 1.833 0v.812a.917.917 0 1 1-1.833 0v-.812zm-1.923 1.923h.811a.917.917 0 1 1 0 1.834h-.811a.917.917 0 0 1 0-1.834zM11.72 38.72h-1.412a.917.917 0 0 1 0-1.825h1.436a.917.917 0 1 1 0 1.825h-.024zm0-2.799h-1.412a.917.917 0 1 1 0-1.833h1.436a.917.917 0 1 1 0 1.833h-.024zm.487-7.496v-.812a.917.917 0 0 1 1.833 0v.812a.917.917 0 0 1-1.833 0zm3.756 10.295h-1.42a.917.917 0 1 1 0-1.825h1.445a.917.917 0 1 1 0 1.825h-.025zm0-2.799h-1.42a.917.917 0 1 1 0-1.833h1.445a.917.917 0 1 1 0 1.833h-.025zm0-9.42h-.811a.917.917 0 0 1 0-1.833h.811a.917.917 0 0 1 0 1.834zm4.868 1.94v-2.353a4.608 4.608 0 0 1 3.886-4.552C25.08 13.958 31.33 8 38.916 8c7.586 0 13.835 5.958 14.198 13.535A4.608 4.608 0 0 1 57 26.087v2.337a4.616 4.616 0 0 1-1.623 3.52 9.37 9.37 0 0 0-5.29-3.983v-5.614c-.163-6.046-5.11-10.863-11.16-10.863-6.048 0-10.996 4.817-11.16 10.863v5.679a9.411 9.411 0 0 0-3.536 2.085c-.583.603-1.1 1.267-1.542 1.98a4.592 4.592 0 0 1-1.85-3.667l-.008.016zm35.812 22.847c-.308 2.385-1.468 3.18-1.623 3.294-.51.438-3.245.811-4.26.811a.884.884 0 0 1-.389-.057c-.933-.503-1.841-4.681-3.18-6.864a2.385 2.385 0 0 0-.39-.535 2.02 2.02 0 0 0-.608-.576 3.115 3.115 0 0 0-1.623-.268h-11a3.197 3.197 0 0 0-1.671.268 2.02 2.02 0 0 0-.609.576c-.141.17-.271.349-.39.535-1.338 2.183-2.263 6.361-3.164 6.864a.982.982 0 0 1-.405.057c-1.047 0-3.732-.381-4.252-.811-.154-.114-1.306-.909-1.622-3.294a20.633 20.633 0 0 1-.13-1.266 20.234 20.234 0 0 1 .114-4.146 38.295 38.295 0 0 1 3.415-11.537c.423-.704.903-1.372 1.436-1.996a6.49 6.49 0 0 1 2.434-1.42 5.858 5.858 0 0 1 1.81-.284c1.525 0 2.855.812 4.21 1.704a73.392 73.392 0 0 1 4.357-.154c1.371 0 2.961.065 4.365.154 1.314-.876 2.67-1.704 4.17-1.704a6.336 6.336 0 0 1 5.38 3.173c.104.17.198.346.283.527a38.798 38.798 0 0 1 3.416 11.537 21.151 21.151 0 0 1 0 5.428"/></symbol><symbol id="ps-icon_ps5-features_ps5-pro-advanced-ray-tracing" viewBox="0 0 64 64"><path d="M59 18.5l-4.53 1.96L52.5 25l-1.97-4.54L46 18.5l4.53-1.97L52.5 12l1.97 4.53L59 18.5zM43.5 14l1.36-3.14L48 9.5l-3.14-1.36L43.5 5l-1.36 3.14L39 9.5l3.14 1.36L43.5 14zm1 7.5c8.01 8.01 8.01 20.99 0 28.99-4 4-9.25 6-14.5 6s-10.49-2-14.5-6c-8.01-8.01-8.01-20.99 0-28.99 4-4 9.25-6 14.5-6s10.49 2 14.5 6zM12.06 34.92l16.87-16.87c-.56.03-1.11.09-1.66.17L12.24 33.25c-.08.55-.14 1.11-.18 1.66zm.75 6.39L35.32 18.8c-.57-.18-1.16-.33-1.75-.45L12.36 39.56c.12.59.27 1.17.44 1.75zm27.32-20.18c-.58-.4-1.19-.76-1.81-1.09L14.04 44.32c.32.62.69 1.22 1.09 1.81l25-25zm-21.6 28.74l25.34-25.34c-.36-.43-.74-.86-1.14-1.26-.2-.2-.42-.38-.63-.57L16.7 48.1c.19.21.37.43.57.63.4.4.83.78 1.26 1.14zm28.6-19.34L24.52 53.14c1.75.56 3.59.86 5.48.86 4.81 0 9.33-1.87 12.73-5.27 4.92-4.92 6.37-11.99 4.41-18.19zm-2.06-4.37L20.16 51.07c.89.59 1.83 1.09 2.81 1.5l23.59-23.59c-.41-.97-.9-1.92-1.49-2.82z"/></symbol><symbol id="ps-icon_ps5-features_ps5-pro-combined-features" viewBox="0 0 64 64"><path d="M43.97 17.19c-.1-.3-.38-.51-.7-.51H35.2l-2.49-7.67c-.1-.3-.38-.51-.7-.51s-.6.21-.7.51l-2.49 7.67h-8.07a.742.742 0 0 0-.43 1.34l6.53 4.74-2.49 7.67c-.1.3.01.64.27.83.26.19.61.19.87 0l6.53-4.74 6.53 4.74c.13.09.28.14.43.14s.3-.05.43-.14a.74.74 0 0 0 .27-.83l-2.49-7.67 6.53-4.74a.74.74 0 0 0 .27-.83zm-14 20.88c-.1-.3-.38-.51-.7-.51H21.2l-2.49-7.67c-.1-.3-.38-.51-.7-.51s-.6.21-.7.51l-2.49 7.67H6.74a.742.742 0 0 0-.43 1.34l6.53 4.74-2.49 7.67c-.1.3 0 .64.27.83.26.19.61.19.87 0l6.53-4.74 6.53 4.74c.13.09.28.14.43.14s.3-.05.43-.14a.74.74 0 0 0 .27-.83l-2.49-7.67 6.53-4.74a.74.74 0 0 0 .27-.83zm27.99 0c-.1-.3-.38-.51-.7-.51h-8.07l-2.49-7.67c-.1-.3-.38-.51-.7-.51s-.6.21-.7.51l-2.49 7.67h-8.07a.742.742 0 0 0-.43 1.34l6.53 4.74-2.49 7.67c-.1.3.01.64.27.83.26.19.61.19.87 0l6.53-4.74 6.53 4.74c.13.09.28.14.43.14s.3-.05.43-.14a.74.74 0 0 0 .27-.83l-2.49-7.67 6.53-4.74a.74.74 0 0 0 .27-.83z"/></symbol><symbol id="ps-icon_ps5-features_ps5-pro-optimized-console-performance" viewBox="0 0 64 64"><path d="M51 40.99c0 2.8-.53 5.54-1.58 8.17l-.74 1.86-7.43-2.97 1.49-3.71 3.62 1.45c.43-1.56.65-3.16.65-4.78 0-2-.34-3.91-.94-5.71l-3.18 1.32-.96-2.31L45.1 33a18.056 18.056 0 0 0-8.07-8.07l-1.32 3.17-2.31-.96 1.32-3.18c-1.8-.6-3.71-.94-5.71-.94s-3.91.34-5.71.94l1.32 3.18-2.31.96L21 24.93A18.056 18.056 0 0 0 12.93 33l3.17 1.31-.96 2.31-3.18-1.32c-.6 1.8-.94 3.71-.94 5.71 0 1.62.22 3.22.65 4.78l3.62-1.45 1.49 3.71-7.43 2.97-.74-1.86a21.871 21.871 0 0 1-1.58-8.17c0-12.13 9.87-22 22-22s22 9.87 22 22zm-25.89 1.06l2.83 2.83 10.78-11.84-1.77-1.77-11.84 10.78zm30.36-22.52L53.5 15l-1.97 4.53L47 21.5l4.53 1.96L53.5 28l1.97-4.54L60 21.5l-4.53-1.97zM44.5 17l1.36-3.14L49 12.5l-3.14-1.36L44.5 8l-1.36 3.14L40 12.5l3.14 1.36L44.5 17z"/></symbol><symbol id="ps-icon_ps5-features_ray-trace" viewBox="0 0 64 64"><path fill-rule="evenodd" d="M48.593 13.948C40.22 5.793 27.251 4.69 17.62 11.312 7.989 17.935 4.378 30.44 8.995 41.177c4.617 10.738 16.177 16.718 27.61 14.284 11.431-2.435 19.551-12.607 19.393-24.294a24.27 24.27 0 0 0-7.405-17.22zM10.48 31.785a21.026 21.026 0 0 1 20.741-21.31h.292a21.13 21.13 0 0 1 6.446 1L11.675 38.488a20.838 20.838 0 0 1-1.195-6.703zm3.8 11.809a20.456 20.456 0 0 1-2.022-3.64L39.46 12.03a20.692 20.692 0 0 1 3.633 1.93L14.28 43.595zm2.556 3a20.083 20.083 0 0 1-1.181-1.257l29.222-30.056c.445.368.875.75 1.292 1.153a14.6 14.6 0 0 1 1.028 1.084l-29.27 30.076c-.362-.347-.695-.694-1.091-1.028v.028zm3.473 2.779L49.01 19.852c.48.715.913 1.46 1.299 2.23L22.594 50.56a21.713 21.713 0 0 1-2.264-1.243l-.021.056zm8.12 2.986a20.421 20.421 0 0 1-2.084-.402l25.409-26.118c.187.695.34 1.39.465 2.084L28.43 52.36zm7.89-.34c-.583.139-1.166.25-1.757.334l17.81-18.331c-.07.59-.16 1.18-.285 1.757C47.1 40.905 41.223 46.942 36.34 51.964l-.02.055z"/></symbol><symbol id="ps-icon_ps5-features_ssd" viewBox="0 0 64 64"><path fill-rule="evenodd" d="M46.123 23.958c-.5-.504-.5-1.317 0-1.82l2.452-2.46a1.27 1.27 0 0 1 1.813 0c.5.504.5 1.317 0 1.82l-2.452 2.46a1.27 1.27 0 0 1-1.813 0zM58 38.066c0-.71-.575-1.285-1.285-1.285h-3.48c-.709 0-1.284.575-1.284 1.285a1.285 1.285 0 0 0 1.285 1.306h3.48A1.285 1.285 0 0 0 58 38.066zm-45.959 0c0-.695-.552-1.265-1.248-1.285H7.285c-.71 0-1.285.575-1.285 1.285a1.285 1.285 0 0 0 1.285 1.306h3.508a1.285 1.285 0 0 0 1.248-1.306zM33.33 16.779v-3.494c0-.707-.571-1.281-1.278-1.285a1.285 1.285 0 0 0-1.277 1.285v3.479c-.02.704.53 1.293 1.233 1.321a1.285 1.285 0 0 0 1.285-1.321l.037.015zm-15.452 7.179c.5-.504.5-1.317 0-1.82l-2.452-2.46a1.27 1.27 0 0 0-1.813 0c-.5.504-.5 1.317 0 1.82l2.452 2.46a1.27 1.27 0 0 0 1.813 0zm-3.538 7.281l.3-.734a1.314 1.314 0 0 0-.733-1.717L8.878 26.71a1.314 1.314 0 0 0-1.71.734l-.302.734a1.321 1.321 0 0 0 .734 1.718l5.029 2.07a1.307 1.307 0 0 0 1.71-.763v.036zm26.976-11.304l2.063-5.028a1.321 1.321 0 0 0-.734-1.718l-.734-.3a1.307 1.307 0 0 0-1.71.733l-2.063 5.028a1.314 1.314 0 0 0 .734 1.718l.734.308a1.314 1.314 0 0 0 1.71-.741zm-16.978.734l.734-.308a1.321 1.321 0 0 0 .734-1.725l-2.092-5.021a1.307 1.307 0 0 0-1.71-.734l-.735.308a1.314 1.314 0 0 0-.734 1.718l2.085 5.028a1.307 1.307 0 0 0 1.718.749v-.015zm1.167 21.287a9.917 9.917 0 0 0-2.834-.36c-1.894 0-3.86.889-3.86 3.223 0 1.718 1.298 2.547 2.935 3.2 1.358.536 1.843.867 1.843 1.469 0 .602-.5.983-1.622.983a8.809 8.809 0 0 1-2.709-.492l-.389 2.136c1.054.321 2.15.482 3.252.478 2.202 0 4.081-1.087 4.081-3.208.007-1.938-1.285-2.672-2.929-3.34-1.27-.529-1.894-.815-1.894-1.468s.683-.888 1.468-.888a7.26 7.26 0 0 1 2.203.345l.455-2.078zm8.302 0a9.939 9.939 0 0 0-2.841-.36c-1.894 0-3.861.889-3.861 3.223 0 1.718 1.3 2.547 2.936 3.2 1.358.536 1.85.867 1.85 1.469 0 .602-.543 1.042-1.637 1.042a8.691 8.691 0 0 1-2.701-.492l-.419 2.077c1.054.321 2.15.482 3.252.478 2.202 0 4.081-1.087 4.081-3.208 0-1.96-1.255-2.643-2.884-3.34-1.27-.529-1.887-.815-1.887-1.468s.675-.888 1.468-.888c.748 0 1.49.117 2.202.345l.44-2.078zm2.04 10.416h3.89c3.56 0 5.381-2.077 5.381-5.373 0-3.296-1.805-5.226-5.38-5.226h-3.89v10.6zm2.584-8.537h.932c2.276 0 3.164 1.336 3.164 3.223 0 1.886-.903 3.325-3.164 3.325h-.932v-6.548zm15.672-15.194c.14-.01.28-.01.418 0a2.54 2.54 0 0 1 2.085 1.005c.502-.354.692-1.01.455-1.578l-.308-.734a1.307 1.307 0 0 0-1.71-.734l-5.021 2.092a1.35 1.35 0 0 0-.617.543l4.698-.594zm.514 3.075c1.167-.36.91-1.556-.301-1.402l-22.528 2.82c-.616.08-1.086.52-.99.946l.41 1.938.411 1.938c.096.426.734.638 1.3.455l21.698-6.695z"/></symbol><symbol id="ps-icon_ps5-features_stunning-games" viewBox="0 0 64 64"><path d="M43.5 55.125c.125 2-1.75 2-2.375 2-.75 0-2-.313-2.625-1.063-1.125-1.374-1.875-2.624-2.625-4H27.75c-.75 1.313-1.438 2.563-2.625 4-.625.75-1.875 1.063-2.625 1.063-.563 0-2.5 0-2.375-2 .125-1.875 1.313-9.25 1.375-9.313.375-2 2.25-3.624 4.313-3.624 1.375 0 2.562 1 3.75 1.687h4.625c1.187-.75 2.374-1.688 3.75-1.688 2.062 0 3.937 1.563 4.312 3.626-.125 0 1.125 7.437 1.25 9.312z"/><path d="M48.438 21.688H15.124a3.921 3.921 0 0 0-3.938 3.937V44.75a3.921 3.921 0 0 0 3.938 3.938h4.063c.125-.876.25-1.688.375-2.313h-4.438c-.875 0-1.625-.75-1.625-1.625v-2.313l.188-.187 11.437-10.188a1.52 1.52 0 0 1 2 0L35 39c.563.5 1.438.5 2 0l3.938-3.438a1.52 1.52 0 0 1 2 0l6.687 6.063c.125.063.188.188.313.25v2.875c0 .875-.75 1.625-1.626 1.625h-4.437c.125.563.25 1.438.375 2.313h4.063a3.921 3.921 0 0 0 3.937-3.938V25.625c.125-2.188-1.625-3.938-3.813-3.938zm-3.313 9.625a2.668 2.668 0 0 1-2.688-2.688c0-1.5 1.188-2.688 2.688-2.688 1.5 0 2.688 1.188 2.688 2.688-.063 1.5-1.25 2.688-2.688 2.688zM9 20.313c-1.813.875-1.625 2.812-1.625 2.812C6.5 21.312 4.562 21.5 4.562 21.5c1.813-.875 1.625-2.813 1.625-2.813C7.125 20.5 9 20.313 9 20.313zM14.313 7.25s.437 3.938-3.313 5.813c0 0 3.938-.376 5.813 3.374 0 0-.438-3.937 3.312-5.812.063 0-3.938.375-5.813-3.375zm26.875.063c3.75 1.875 3.312 5.812 3.312 5.812 1.875-3.75 5.813-3.375 5.813-3.375C46.563 7.875 47 3.937 47 3.937c-1.875 3.75-5.813 3.376-5.813 3.376zm-9.625 3s-.5 3.25-3.938 4c0 0 3.25.562 4 4 0 0 .5-3.25 3.938-4 0-.063-3.313-.563-4-4zm22 8.437c2.624 1.313 2.312 4.063 2.312 4.063 1.313-2.625 4.063-2.313 4.063-2.313-2.626-1.313-2.313-4.063-2.313-4.063-1.25 2.625-4.063 2.313-4.063 2.313z"/></symbol><symbol id="ps-icon_ps5-features_upgrade" viewBox="0 0 64 64"><path fill-rule="evenodd" d="M32.507 8C20.863 7.984 10.82 16.175 8.495 27.584c-2.325 11.41 3.712 22.877 14.433 27.419V49.69c-8.424-4.728-12.163-14.877-8.819-23.94 3.344-9.063 12.78-14.352 22.256-12.474 9.476 1.877 16.182 10.364 15.818 20.017-.364 9.653-7.69 17.61-17.281 18.769V35.479h6.585l-8.98-15.536-8.98 15.536h6.585v21.507h2.395C46.034 56.986 57 46.02 57 32.493S46.034 8 32.507 8z"/></symbol><symbol id="ps-icon_ps5-features_voice-command" viewBox="0 0 64 64"><path fill-rule="evenodd" d="M33.5 29c1.1 0 2 .9 2 2v17a2 2 0 0 1-1.75 1.975V53h.75c1.1 0 2 .787 2 1.75s-.9 1.75-2 1.75h-5c-1.1 0-2-.787-2-1.75s.9-1.75 2-1.75h.75v-3.025A2 2 0 0 1 28.5 48V31c0-1.1.9-2 2-2zM32 8.5c11.322 0 20.5 9.178 20.5 20.5 0 8.859-5.631 16.384-13.5 19.248v-3.773C44.888 41.8 49 35.877 49 29c0-9.374-7.626-17-17-17-9.374 0-17 7.626-17 17 0 6.877 4.112 12.8 10 15.475v3.773C17.13 45.384 11.5 37.859 11.5 29c0-11.322 9.178-20.5 20.5-20.5zm0 8.5c6.627 0 12 5.373 12 12 0 4.012-1.976 7.555-5 9.733v-4.922A8.45 8.45 0 0 0 40.5 29c0-4.687-3.813-8.5-8.5-8.5-4.687 0-8.5 3.813-8.5 8.5a8.45 8.45 0 0 0 1.5 4.811v4.922c-3.024-2.178-5-5.721-5-9.733 0-6.627 5.373-12 12-12z"/></symbol></svg>